G04 #@! TF.GenerationSoftware,KiCad,Pcbnew,(5.1.5)-3*
G04 #@! TF.CreationDate,2020-02-07T02:52:49+01:00*
G04 #@! TF.ProjectId,T962upgrade,54393632-7570-4677-9261-64652e6b6963,v0.1*
G04 #@! TF.SameCoordinates,Original*
G04 #@! TF.FileFunction,Legend,Bot*
G04 #@! TF.FilePolarity,Positive*
%FSLAX46Y46*%
G04 Gerber Fmt 4.6, Leading zero omitted, Abs format (unit mm)*
G04 Created by KiCad (PCBNEW (5.1.5)-3) date 2020-02-07 02:52:49*
%MOMM*%
%LPD*%
G04 APERTURE LIST*
%ADD10C,0.300000*%
%ADD11C,0.150000*%
%ADD12C,5.602000*%
%ADD13C,0.100000*%
%ADD14O,3.702000X1.902000*%
%ADD15C,1.552000*%
%ADD16O,1.302000X2.002000*%
%ADD17R,1.802000X1.802000*%
%ADD18O,1.802000X1.802000*%
%ADD19O,1.802000X2.102000*%
%ADD20O,1.902000X3.702000*%
%ADD21O,1.602000X1.152000*%
%ADD22R,1.602000X1.152000*%
G04 APERTURE END LIST*
D10*
X114232142Y-101623571D02*
X115089285Y-101623571D01*
X114660714Y-101623571D02*
X114660714Y-100123571D01*
X114803571Y-100337857D01*
X114946428Y-100480714D01*
X115089285Y-100552142D01*
X112446428Y-101052142D02*
X111303571Y-101052142D01*
X109446428Y-101623571D02*
X109446428Y-100123571D01*
X108803571Y-101552142D02*
X108589285Y-101623571D01*
X108232142Y-101623571D01*
X108089285Y-101552142D01*
X108017857Y-101480714D01*
X107946428Y-101337857D01*
X107946428Y-101195000D01*
X108017857Y-101052142D01*
X108089285Y-100980714D01*
X108232142Y-100909285D01*
X108517857Y-100837857D01*
X108660714Y-100766428D01*
X108732142Y-100695000D01*
X108803571Y-100552142D01*
X108803571Y-100409285D01*
X108732142Y-100266428D01*
X108660714Y-100195000D01*
X108517857Y-100123571D01*
X108160714Y-100123571D01*
X107946428Y-100195000D01*
X107303571Y-101623571D02*
X107303571Y-100123571D01*
X106732142Y-100123571D01*
X106589285Y-100195000D01*
X106517857Y-100266428D01*
X106446428Y-100409285D01*
X106446428Y-100623571D01*
X106517857Y-100766428D01*
X106589285Y-100837857D01*
X106732142Y-100909285D01*
X107303571Y-100909285D01*
X115089285Y-102816428D02*
X115017857Y-102745000D01*
X114875000Y-102673571D01*
X114517857Y-102673571D01*
X114375000Y-102745000D01*
X114303571Y-102816428D01*
X114232142Y-102959285D01*
X114232142Y-103102142D01*
X114303571Y-103316428D01*
X115160714Y-104173571D01*
X114232142Y-104173571D01*
X112446428Y-103602142D02*
X111303571Y-103602142D01*
X108589285Y-104173571D02*
X109089285Y-103459285D01*
X109446428Y-104173571D02*
X109446428Y-102673571D01*
X108875000Y-102673571D01*
X108732142Y-102745000D01*
X108660714Y-102816428D01*
X108589285Y-102959285D01*
X108589285Y-103173571D01*
X108660714Y-103316428D01*
X108732142Y-103387857D01*
X108875000Y-103459285D01*
X109446428Y-103459285D01*
X107375000Y-104102142D02*
X107517857Y-104173571D01*
X107803571Y-104173571D01*
X107946428Y-104102142D01*
X108017857Y-103959285D01*
X108017857Y-103387857D01*
X107946428Y-103245000D01*
X107803571Y-103173571D01*
X107517857Y-103173571D01*
X107375000Y-103245000D01*
X107303571Y-103387857D01*
X107303571Y-103530714D01*
X108017857Y-103673571D01*
X106732142Y-104102142D02*
X106589285Y-104173571D01*
X106303571Y-104173571D01*
X106160714Y-104102142D01*
X106089285Y-103959285D01*
X106089285Y-103887857D01*
X106160714Y-103745000D01*
X106303571Y-103673571D01*
X106517857Y-103673571D01*
X106660714Y-103602142D01*
X106732142Y-103459285D01*
X106732142Y-103387857D01*
X106660714Y-103245000D01*
X106517857Y-103173571D01*
X106303571Y-103173571D01*
X106160714Y-103245000D01*
X104875000Y-104102142D02*
X105017857Y-104173571D01*
X105303571Y-104173571D01*
X105446428Y-104102142D01*
X105517857Y-103959285D01*
X105517857Y-103387857D01*
X105446428Y-103245000D01*
X105303571Y-103173571D01*
X105017857Y-103173571D01*
X104875000Y-103245000D01*
X104803571Y-103387857D01*
X104803571Y-103530714D01*
X105517857Y-103673571D01*
X104375000Y-103173571D02*
X103803571Y-103173571D01*
X104160714Y-102673571D02*
X104160714Y-103959285D01*
X104089285Y-104102142D01*
X103946428Y-104173571D01*
X103803571Y-104173571D01*
X115160714Y-105223571D02*
X114232142Y-105223571D01*
X114732142Y-105795000D01*
X114517857Y-105795000D01*
X114375000Y-105866428D01*
X114303571Y-105937857D01*
X114232142Y-106080714D01*
X114232142Y-106437857D01*
X114303571Y-106580714D01*
X114375000Y-106652142D01*
X114517857Y-106723571D01*
X114946428Y-106723571D01*
X115089285Y-106652142D01*
X115160714Y-106580714D01*
X112446428Y-106152142D02*
X111303571Y-106152142D01*
X108589285Y-106723571D02*
X109089285Y-106009285D01*
X109446428Y-106723571D02*
X109446428Y-105223571D01*
X108875000Y-105223571D01*
X108732142Y-105295000D01*
X108660714Y-105366428D01*
X108589285Y-105509285D01*
X108589285Y-105723571D01*
X108660714Y-105866428D01*
X108732142Y-105937857D01*
X108875000Y-106009285D01*
X109446428Y-106009285D01*
X108089285Y-105223571D02*
X107089285Y-106723571D01*
X107089285Y-105223571D02*
X108089285Y-106723571D01*
X104232142Y-105723571D02*
X105375000Y-106152142D01*
X104232142Y-106580714D01*
X103517857Y-106152142D02*
X102375000Y-106152142D01*
X101660714Y-106152142D02*
X100517857Y-106152142D01*
X114375000Y-108273571D02*
X114375000Y-109273571D01*
X114732142Y-107702142D02*
X115089285Y-108773571D01*
X114160714Y-108773571D01*
X112446428Y-108702142D02*
X111303571Y-108702142D01*
X109660714Y-107773571D02*
X108803571Y-107773571D01*
X109232142Y-109273571D02*
X109232142Y-107773571D01*
X108446428Y-107773571D02*
X107446428Y-109273571D01*
X107446428Y-107773571D02*
X108446428Y-109273571D01*
X105732142Y-108702142D02*
X104589285Y-108702142D01*
X103875000Y-108702142D02*
X102732142Y-108702142D01*
X102017857Y-108273571D02*
X100875000Y-108702142D01*
X102017857Y-109130714D01*
X114303571Y-110323571D02*
X115017857Y-110323571D01*
X115089285Y-111037857D01*
X115017857Y-110966428D01*
X114875000Y-110895000D01*
X114517857Y-110895000D01*
X114375000Y-110966428D01*
X114303571Y-111037857D01*
X114232142Y-111180714D01*
X114232142Y-111537857D01*
X114303571Y-111680714D01*
X114375000Y-111752142D01*
X114517857Y-111823571D01*
X114875000Y-111823571D01*
X115017857Y-111752142D01*
X115089285Y-111680714D01*
X112446428Y-111252142D02*
X111303571Y-111252142D01*
X108660714Y-110395000D02*
X108803571Y-110323571D01*
X109017857Y-110323571D01*
X109232142Y-110395000D01*
X109375000Y-110537857D01*
X109446428Y-110680714D01*
X109517857Y-110966428D01*
X109517857Y-111180714D01*
X109446428Y-111466428D01*
X109375000Y-111609285D01*
X109232142Y-111752142D01*
X109017857Y-111823571D01*
X108875000Y-111823571D01*
X108660714Y-111752142D01*
X108589285Y-111680714D01*
X108589285Y-111180714D01*
X108875000Y-111180714D01*
X107946428Y-111823571D02*
X107946428Y-110323571D01*
X107089285Y-111823571D01*
X107089285Y-110323571D01*
X106375000Y-111823571D02*
X106375000Y-110323571D01*
X106017857Y-110323571D01*
X105803571Y-110395000D01*
X105660714Y-110537857D01*
X105589285Y-110680714D01*
X105517857Y-110966428D01*
X105517857Y-111180714D01*
X105589285Y-111466428D01*
X105660714Y-111609285D01*
X105803571Y-111752142D01*
X106017857Y-111823571D01*
X106375000Y-111823571D01*
D11*
X126077023Y-100436666D02*
X125600833Y-100436666D01*
X126172261Y-100722380D02*
X125838928Y-99722380D01*
X125505595Y-100722380D01*
X124410357Y-100341428D02*
X123648452Y-100341428D01*
X122505595Y-99722380D02*
X121886547Y-99722380D01*
X122219880Y-100103333D01*
X122077023Y-100103333D01*
X121981785Y-100150952D01*
X121934166Y-100198571D01*
X121886547Y-100293809D01*
X121886547Y-100531904D01*
X121934166Y-100627142D01*
X121981785Y-100674761D01*
X122077023Y-100722380D01*
X122362738Y-100722380D01*
X122457976Y-100674761D01*
X122505595Y-100627142D01*
X121457976Y-100627142D02*
X121410357Y-100674761D01*
X121457976Y-100722380D01*
X121505595Y-100674761D01*
X121457976Y-100627142D01*
X121457976Y-100722380D01*
X121077023Y-99722380D02*
X120457976Y-99722380D01*
X120791309Y-100103333D01*
X120648452Y-100103333D01*
X120553214Y-100150952D01*
X120505595Y-100198571D01*
X120457976Y-100293809D01*
X120457976Y-100531904D01*
X120505595Y-100627142D01*
X120553214Y-100674761D01*
X120648452Y-100722380D01*
X120934166Y-100722380D01*
X121029404Y-100674761D01*
X121077023Y-100627142D01*
X120172261Y-99722380D02*
X119838928Y-100722380D01*
X119505595Y-99722380D01*
X125696071Y-101848571D02*
X125553214Y-101896190D01*
X125505595Y-101943809D01*
X125457976Y-102039047D01*
X125457976Y-102181904D01*
X125505595Y-102277142D01*
X125553214Y-102324761D01*
X125648452Y-102372380D01*
X126029404Y-102372380D01*
X126029404Y-101372380D01*
X125696071Y-101372380D01*
X125600833Y-101420000D01*
X125553214Y-101467619D01*
X125505595Y-101562857D01*
X125505595Y-101658095D01*
X125553214Y-101753333D01*
X125600833Y-101800952D01*
X125696071Y-101848571D01*
X126029404Y-101848571D01*
X124267500Y-101991428D02*
X123505595Y-101991428D01*
X121696071Y-102277142D02*
X121743690Y-102324761D01*
X121886547Y-102372380D01*
X121981785Y-102372380D01*
X122124642Y-102324761D01*
X122219880Y-102229523D01*
X122267500Y-102134285D01*
X122315119Y-101943809D01*
X122315119Y-101800952D01*
X122267500Y-101610476D01*
X122219880Y-101515238D01*
X122124642Y-101420000D01*
X121981785Y-101372380D01*
X121886547Y-101372380D01*
X121743690Y-101420000D01*
X121696071Y-101467619D01*
X121410357Y-101372380D02*
X120838928Y-101372380D01*
X121124642Y-102372380D02*
X121124642Y-101372380D01*
X120553214Y-102324761D02*
X120410357Y-102372380D01*
X120172261Y-102372380D01*
X120077023Y-102324761D01*
X120029404Y-102277142D01*
X119981785Y-102181904D01*
X119981785Y-102086666D01*
X120029404Y-101991428D01*
X120077023Y-101943809D01*
X120172261Y-101896190D01*
X120362738Y-101848571D01*
X120457976Y-101800952D01*
X120505595Y-101753333D01*
X120553214Y-101658095D01*
X120553214Y-101562857D01*
X120505595Y-101467619D01*
X120457976Y-101420000D01*
X120362738Y-101372380D01*
X120124642Y-101372380D01*
X119981785Y-101420000D01*
X125457976Y-103927142D02*
X125505595Y-103974761D01*
X125648452Y-104022380D01*
X125743690Y-104022380D01*
X125886547Y-103974761D01*
X125981785Y-103879523D01*
X126029404Y-103784285D01*
X126077023Y-103593809D01*
X126077023Y-103450952D01*
X126029404Y-103260476D01*
X125981785Y-103165238D01*
X125886547Y-103070000D01*
X125743690Y-103022380D01*
X125648452Y-103022380D01*
X125505595Y-103070000D01*
X125457976Y-103117619D01*
X124267500Y-103641428D02*
X123505595Y-103641428D01*
X122267500Y-104022380D02*
X122267500Y-103022380D01*
X122029404Y-103022380D01*
X121886547Y-103070000D01*
X121791309Y-103165238D01*
X121743690Y-103260476D01*
X121696071Y-103450952D01*
X121696071Y-103593809D01*
X121743690Y-103784285D01*
X121791309Y-103879523D01*
X121886547Y-103974761D01*
X122029404Y-104022380D01*
X122267500Y-104022380D01*
X121315119Y-103974761D02*
X121172261Y-104022380D01*
X120934166Y-104022380D01*
X120838928Y-103974761D01*
X120791309Y-103927142D01*
X120743690Y-103831904D01*
X120743690Y-103736666D01*
X120791309Y-103641428D01*
X120838928Y-103593809D01*
X120934166Y-103546190D01*
X121124642Y-103498571D01*
X121219880Y-103450952D01*
X121267500Y-103403333D01*
X121315119Y-103308095D01*
X121315119Y-103212857D01*
X121267500Y-103117619D01*
X121219880Y-103070000D01*
X121124642Y-103022380D01*
X120886547Y-103022380D01*
X120743690Y-103070000D01*
X119743690Y-104022380D02*
X120077023Y-103546190D01*
X120315119Y-104022380D02*
X120315119Y-103022380D01*
X119934166Y-103022380D01*
X119838928Y-103070000D01*
X119791309Y-103117619D01*
X119743690Y-103212857D01*
X119743690Y-103355714D01*
X119791309Y-103450952D01*
X119838928Y-103498571D01*
X119934166Y-103546190D01*
X120315119Y-103546190D01*
X126029404Y-105672380D02*
X126029404Y-104672380D01*
X125791309Y-104672380D01*
X125648452Y-104720000D01*
X125553214Y-104815238D01*
X125505595Y-104910476D01*
X125457976Y-105100952D01*
X125457976Y-105243809D01*
X125505595Y-105434285D01*
X125553214Y-105529523D01*
X125648452Y-105624761D01*
X125791309Y-105672380D01*
X126029404Y-105672380D01*
X124267500Y-105291428D02*
X123505595Y-105291428D01*
X121696071Y-105672380D02*
X122029404Y-105196190D01*
X122267500Y-105672380D02*
X122267500Y-104672380D01*
X121886547Y-104672380D01*
X121791309Y-104720000D01*
X121743690Y-104767619D01*
X121696071Y-104862857D01*
X121696071Y-105005714D01*
X121743690Y-105100952D01*
X121791309Y-105148571D01*
X121886547Y-105196190D01*
X122267500Y-105196190D01*
X121267500Y-105672380D02*
X121267500Y-104672380D01*
X126029404Y-106798571D02*
X125696071Y-106798571D01*
X125553214Y-107322380D02*
X126029404Y-107322380D01*
X126029404Y-106322380D01*
X125553214Y-106322380D01*
X124362738Y-106941428D02*
X123600833Y-106941428D01*
X122362738Y-107322380D02*
X122362738Y-106322380D01*
X122124642Y-106322380D01*
X121981785Y-106370000D01*
X121886547Y-106465238D01*
X121838928Y-106560476D01*
X121791309Y-106750952D01*
X121791309Y-106893809D01*
X121838928Y-107084285D01*
X121886547Y-107179523D01*
X121981785Y-107274761D01*
X122124642Y-107322380D01*
X122362738Y-107322380D01*
X120791309Y-107227142D02*
X120838928Y-107274761D01*
X120981785Y-107322380D01*
X121077023Y-107322380D01*
X121219880Y-107274761D01*
X121315119Y-107179523D01*
X121362738Y-107084285D01*
X121410357Y-106893809D01*
X121410357Y-106750952D01*
X121362738Y-106560476D01*
X121315119Y-106465238D01*
X121219880Y-106370000D01*
X121077023Y-106322380D01*
X120981785Y-106322380D01*
X120838928Y-106370000D01*
X120791309Y-106417619D01*
X120362738Y-107322380D02*
X120362738Y-106322380D01*
X120124642Y-106322380D01*
X119981785Y-106370000D01*
X119886547Y-106465238D01*
X119838928Y-106560476D01*
X119791309Y-106750952D01*
X119791309Y-106893809D01*
X119838928Y-107084285D01*
X119886547Y-107179523D01*
X119981785Y-107274761D01*
X120124642Y-107322380D01*
X120362738Y-107322380D01*
X125696071Y-108448571D02*
X126029404Y-108448571D01*
X126029404Y-108972380D02*
X126029404Y-107972380D01*
X125553214Y-107972380D01*
X124410357Y-108591428D02*
X123648452Y-108591428D01*
X122410357Y-108972380D02*
X122410357Y-107972380D01*
X122172261Y-107972380D01*
X122029404Y-108020000D01*
X121934166Y-108115238D01*
X121886547Y-108210476D01*
X121838928Y-108400952D01*
X121838928Y-108543809D01*
X121886547Y-108734285D01*
X121934166Y-108829523D01*
X122029404Y-108924761D01*
X122172261Y-108972380D01*
X122410357Y-108972380D01*
X121553214Y-107972380D02*
X120981785Y-107972380D01*
X121267499Y-108972380D02*
X121267499Y-107972380D01*
X120077023Y-108972380D02*
X120410357Y-108496190D01*
X120648452Y-108972380D02*
X120648452Y-107972380D01*
X120267499Y-107972380D01*
X120172261Y-108020000D01*
X120124642Y-108067619D01*
X120077023Y-108162857D01*
X120077023Y-108305714D01*
X120124642Y-108400952D01*
X120172261Y-108448571D01*
X120267499Y-108496190D01*
X120648452Y-108496190D01*
X125505595Y-109670000D02*
X125600833Y-109622380D01*
X125743690Y-109622380D01*
X125886547Y-109670000D01*
X125981785Y-109765238D01*
X126029404Y-109860476D01*
X126077023Y-110050952D01*
X126077023Y-110193809D01*
X126029404Y-110384285D01*
X125981785Y-110479523D01*
X125886547Y-110574761D01*
X125743690Y-110622380D01*
X125648452Y-110622380D01*
X125505595Y-110574761D01*
X125457976Y-110527142D01*
X125457976Y-110193809D01*
X125648452Y-110193809D01*
X124267500Y-110241428D02*
X123505595Y-110241428D01*
X121696071Y-110622380D02*
X122029404Y-110146190D01*
X122267500Y-110622380D02*
X122267500Y-109622380D01*
X121886547Y-109622380D01*
X121791309Y-109670000D01*
X121743690Y-109717619D01*
X121696071Y-109812857D01*
X121696071Y-109955714D01*
X121743690Y-110050952D01*
X121791309Y-110098571D01*
X121886547Y-110146190D01*
X122267500Y-110146190D01*
X121410357Y-109622380D02*
X120838928Y-109622380D01*
X121124642Y-110622380D02*
X121124642Y-109622380D01*
X120553214Y-110574761D02*
X120410357Y-110622380D01*
X120172261Y-110622380D01*
X120077023Y-110574761D01*
X120029404Y-110527142D01*
X119981785Y-110431904D01*
X119981785Y-110336666D01*
X120029404Y-110241428D01*
X120077023Y-110193809D01*
X120172261Y-110146190D01*
X120362738Y-110098571D01*
X120457976Y-110050952D01*
X120505595Y-110003333D01*
X120553214Y-109908095D01*
X120553214Y-109812857D01*
X120505595Y-109717619D01*
X120457976Y-109670000D01*
X120362738Y-109622380D01*
X120124642Y-109622380D01*
X119981785Y-109670000D01*
X126029404Y-112272380D02*
X126029404Y-111272380D01*
X126029404Y-111748571D02*
X125457976Y-111748571D01*
X125457976Y-112272380D02*
X125457976Y-111272380D01*
X124219880Y-111891428D02*
X123457976Y-111891428D01*
X121696071Y-111320000D02*
X121791309Y-111272380D01*
X121934166Y-111272380D01*
X122077023Y-111320000D01*
X122172261Y-111415238D01*
X122219880Y-111510476D01*
X122267500Y-111700952D01*
X122267500Y-111843809D01*
X122219880Y-112034285D01*
X122172261Y-112129523D01*
X122077023Y-112224761D01*
X121934166Y-112272380D01*
X121838928Y-112272380D01*
X121696071Y-112224761D01*
X121648452Y-112177142D01*
X121648452Y-111843809D01*
X121838928Y-111843809D01*
X121219880Y-112272380D02*
X121219880Y-111272380D01*
X120648452Y-112272380D01*
X120648452Y-111272380D01*
X120172261Y-112272380D02*
X120172261Y-111272380D01*
X119934166Y-111272380D01*
X119791309Y-111320000D01*
X119696071Y-111415238D01*
X119648452Y-111510476D01*
X119600833Y-111700952D01*
X119600833Y-111843809D01*
X119648452Y-112034285D01*
X119696071Y-112129523D01*
X119791309Y-112224761D01*
X119934166Y-112272380D01*
X120172261Y-112272380D01*
D10*
X105759047Y-68437142D02*
X106425714Y-68437142D01*
X106425714Y-69484761D02*
X106425714Y-67484761D01*
X105473333Y-67484761D01*
X104806666Y-68913333D02*
X103854285Y-68913333D01*
X104997142Y-69484761D02*
X104330476Y-67484761D01*
X103663809Y-69484761D01*
X102997142Y-69484761D02*
X102997142Y-67484761D01*
X101854285Y-69484761D01*
X101854285Y-67484761D01*
X112612857Y-66147142D02*
X111470000Y-66147142D01*
X112041428Y-66718571D02*
X112041428Y-65575714D01*
X110470000Y-65218571D02*
X110184285Y-65218571D01*
X110041428Y-65290000D01*
X109898571Y-65432857D01*
X109827142Y-65718571D01*
X109827142Y-66218571D01*
X109898571Y-66504285D01*
X110041428Y-66647142D01*
X110184285Y-66718571D01*
X110470000Y-66718571D01*
X110612857Y-66647142D01*
X110755714Y-66504285D01*
X110827142Y-66218571D01*
X110827142Y-65718571D01*
X110755714Y-65432857D01*
X110612857Y-65290000D01*
X110470000Y-65218571D01*
X108541428Y-65718571D02*
X108541428Y-66718571D01*
X109184285Y-65718571D02*
X109184285Y-66504285D01*
X109112857Y-66647142D01*
X108970000Y-66718571D01*
X108755714Y-66718571D01*
X108612857Y-66647142D01*
X108541428Y-66575714D01*
X108041428Y-65718571D02*
X107470000Y-65718571D01*
X107827142Y-65218571D02*
X107827142Y-66504285D01*
X107755714Y-66647142D01*
X107612857Y-66718571D01*
X107470000Y-66718571D01*
X106970000Y-66147142D02*
X105827142Y-66147142D01*
X101702857Y-66147142D02*
X100560000Y-66147142D01*
X99845714Y-66718571D02*
X99845714Y-65218571D01*
X99131428Y-66718571D02*
X99131428Y-65218571D01*
X98274285Y-66718571D01*
X98274285Y-65218571D01*
X97560000Y-66147142D02*
X96417142Y-66147142D01*
X96988571Y-66718571D02*
X96988571Y-65575714D01*
D11*
X90336666Y-64825714D02*
X90336666Y-65301904D01*
X90622380Y-64730476D02*
X89622380Y-65063809D01*
X90622380Y-65397142D01*
X90622380Y-65730476D02*
X89622380Y-65730476D01*
X89622380Y-65968571D01*
X89670000Y-66111428D01*
X89765238Y-66206666D01*
X89860476Y-66254285D01*
X90050952Y-66301904D01*
X90193809Y-66301904D01*
X90384285Y-66254285D01*
X90479523Y-66206666D01*
X90574761Y-66111428D01*
X90622380Y-65968571D01*
X90622380Y-65730476D01*
X89622380Y-66920952D02*
X89622380Y-67016190D01*
X89670000Y-67111428D01*
X89717619Y-67159047D01*
X89812857Y-67206666D01*
X90003333Y-67254285D01*
X90241428Y-67254285D01*
X90431904Y-67206666D01*
X90527142Y-67159047D01*
X90574761Y-67111428D01*
X90622380Y-67016190D01*
X90622380Y-66920952D01*
X90574761Y-66825714D01*
X90527142Y-66778095D01*
X90431904Y-66730476D01*
X90241428Y-66682857D01*
X90003333Y-66682857D01*
X89812857Y-66730476D01*
X89717619Y-66778095D01*
X89670000Y-66825714D01*
X89622380Y-66920952D01*
X86764761Y-64675000D02*
X86812380Y-64817857D01*
X86812380Y-65055952D01*
X86764761Y-65151190D01*
X86717142Y-65198809D01*
X86621904Y-65246428D01*
X86526666Y-65246428D01*
X86431428Y-65198809D01*
X86383809Y-65151190D01*
X86336190Y-65055952D01*
X86288571Y-64865476D01*
X86240952Y-64770238D01*
X86193333Y-64722619D01*
X86098095Y-64675000D01*
X86002857Y-64675000D01*
X85907619Y-64722619D01*
X85860000Y-64770238D01*
X85812380Y-64865476D01*
X85812380Y-65103571D01*
X85860000Y-65246428D01*
X85812380Y-65579761D02*
X86812380Y-65817857D01*
X86098095Y-66008333D01*
X86812380Y-66198809D01*
X85812380Y-66436904D01*
X86812380Y-67579761D02*
X85812380Y-67579761D01*
X85812380Y-68246428D02*
X85812380Y-68436904D01*
X85860000Y-68532142D01*
X85955238Y-68627380D01*
X86145714Y-68675000D01*
X86479047Y-68675000D01*
X86669523Y-68627380D01*
X86764761Y-68532142D01*
X86812380Y-68436904D01*
X86812380Y-68246428D01*
X86764761Y-68151190D01*
X86669523Y-68055952D01*
X86479047Y-68008333D01*
X86145714Y-68008333D01*
X85955238Y-68055952D01*
X85860000Y-68151190D01*
X85812380Y-68246428D01*
D10*
X117280238Y-122594047D02*
X117280238Y-121104047D01*
X117280238Y-121813571D02*
X116428809Y-121813571D01*
X116428809Y-122594047D02*
X116428809Y-121104047D01*
X113803571Y-121175000D02*
X113945476Y-121104047D01*
X114158333Y-121104047D01*
X114371190Y-121175000D01*
X114513095Y-121316904D01*
X114584047Y-121458809D01*
X114655000Y-121742619D01*
X114655000Y-121955476D01*
X114584047Y-122239285D01*
X114513095Y-122381190D01*
X114371190Y-122523095D01*
X114158333Y-122594047D01*
X114016428Y-122594047D01*
X113803571Y-122523095D01*
X113732619Y-122452142D01*
X113732619Y-121955476D01*
X114016428Y-121955476D01*
X111462142Y-121813571D02*
X111958809Y-121813571D01*
X111958809Y-122594047D02*
X111958809Y-121104047D01*
X111249285Y-121104047D01*
X109546428Y-121813571D02*
X109049761Y-121813571D01*
X108836904Y-122594047D02*
X109546428Y-122594047D01*
X109546428Y-121104047D01*
X108836904Y-121104047D01*
X107063095Y-122594047D02*
X107063095Y-121104047D01*
X106708333Y-121104047D01*
X106495476Y-121175000D01*
X106353571Y-121316904D01*
X106282619Y-121458809D01*
X106211666Y-121742619D01*
X106211666Y-121955476D01*
X106282619Y-122239285D01*
X106353571Y-122381190D01*
X106495476Y-122523095D01*
X106708333Y-122594047D01*
X107063095Y-122594047D01*
X103586428Y-122452142D02*
X103657380Y-122523095D01*
X103870238Y-122594047D01*
X104012142Y-122594047D01*
X104225000Y-122523095D01*
X104366904Y-122381190D01*
X104437857Y-122239285D01*
X104508809Y-121955476D01*
X104508809Y-121742619D01*
X104437857Y-121458809D01*
X104366904Y-121316904D01*
X104225000Y-121175000D01*
X104012142Y-121104047D01*
X103870238Y-121104047D01*
X103657380Y-121175000D01*
X103586428Y-121245952D01*
X101315952Y-121813571D02*
X101103095Y-121884523D01*
X101032142Y-121955476D01*
X100961190Y-122097380D01*
X100961190Y-122310238D01*
X101032142Y-122452142D01*
X101103095Y-122523095D01*
X101245000Y-122594047D01*
X101812619Y-122594047D01*
X101812619Y-121104047D01*
X101315952Y-121104047D01*
X101174047Y-121175000D01*
X101103095Y-121245952D01*
X101032142Y-121387857D01*
X101032142Y-121529761D01*
X101103095Y-121671666D01*
X101174047Y-121742619D01*
X101315952Y-121813571D01*
X101812619Y-121813571D01*
X99258333Y-122168333D02*
X98548809Y-122168333D01*
X99400238Y-122594047D02*
X98903571Y-121104047D01*
X98406904Y-122594047D01*
X73488571Y-114718571D02*
X73488571Y-112890000D01*
X72574285Y-113804285D02*
X74402857Y-113804285D01*
X73488571Y-108090000D02*
X73488571Y-106261428D01*
X73488571Y-104558571D02*
X73488571Y-102730000D01*
X72574285Y-103644285D02*
X74402857Y-103644285D01*
X73488571Y-97930000D02*
X73488571Y-96101428D01*
X73488571Y-94398571D02*
X73488571Y-92570000D01*
X72574285Y-93484285D02*
X74402857Y-93484285D01*
X73488571Y-87770000D02*
X73488571Y-85941428D01*
X76878571Y-78938571D02*
X76878571Y-78224285D01*
X75378571Y-78224285D01*
X75307142Y-80510000D02*
X77235714Y-79224285D01*
X76092857Y-81510000D02*
X76164285Y-81724285D01*
X76235714Y-81795714D01*
X76378571Y-81867142D01*
X76592857Y-81867142D01*
X76735714Y-81795714D01*
X76807142Y-81724285D01*
X76878571Y-81581428D01*
X76878571Y-81010000D01*
X75378571Y-81010000D01*
X75378571Y-81510000D01*
X75450000Y-81652857D01*
X75521428Y-81724285D01*
X75664285Y-81795714D01*
X75807142Y-81795714D01*
X75950000Y-81724285D01*
X76021428Y-81652857D01*
X76092857Y-81510000D01*
X76092857Y-81010000D01*
X76878571Y-89205714D02*
X76164285Y-88705714D01*
X76878571Y-88348571D02*
X75378571Y-88348571D01*
X75378571Y-88920000D01*
X75450000Y-89062857D01*
X75521428Y-89134285D01*
X75664285Y-89205714D01*
X75878571Y-89205714D01*
X76021428Y-89134285D01*
X76092857Y-89062857D01*
X76164285Y-88920000D01*
X76164285Y-88348571D01*
X75307142Y-90920000D02*
X77235714Y-89634285D01*
X76092857Y-91920000D02*
X76092857Y-91420000D01*
X76878571Y-91420000D02*
X75378571Y-91420000D01*
X75378571Y-92134285D01*
X76092857Y-98258571D02*
X76092857Y-98758571D01*
X76878571Y-98972857D02*
X76878571Y-98258571D01*
X75378571Y-98258571D01*
X75378571Y-98972857D01*
X76878571Y-99472857D02*
X75878571Y-100258571D01*
X75878571Y-99472857D02*
X76878571Y-100258571D01*
X75878571Y-100615714D02*
X75878571Y-101187142D01*
X75378571Y-100830000D02*
X76664285Y-100830000D01*
X76807142Y-100901428D01*
X76878571Y-101044285D01*
X76878571Y-101187142D01*
X76878571Y-102472857D02*
X76878571Y-101615714D01*
X76878571Y-102044285D02*
X75378571Y-102044285D01*
X75592857Y-101901428D01*
X75735714Y-101758571D01*
X75807142Y-101615714D01*
X76092857Y-108418571D02*
X76092857Y-108918571D01*
X76878571Y-109132857D02*
X76878571Y-108418571D01*
X75378571Y-108418571D01*
X75378571Y-109132857D01*
X76878571Y-109632857D02*
X75878571Y-110418571D01*
X75878571Y-109632857D02*
X76878571Y-110418571D01*
X75878571Y-110775714D02*
X75878571Y-111347142D01*
X75378571Y-110990000D02*
X76664285Y-110990000D01*
X76807142Y-111061428D01*
X76878571Y-111204285D01*
X76878571Y-111347142D01*
X75521428Y-111775714D02*
X75450000Y-111847142D01*
X75378571Y-111990000D01*
X75378571Y-112347142D01*
X75450000Y-112490000D01*
X75521428Y-112561428D01*
X75664285Y-112632857D01*
X75807142Y-112632857D01*
X76021428Y-112561428D01*
X76878571Y-111704285D01*
X76878571Y-112632857D01*
X73488571Y-84238571D02*
X73488571Y-82410000D01*
X72574285Y-83324285D02*
X74402857Y-83324285D01*
X73488571Y-77610000D02*
X73488571Y-75781428D01*
%LPC*%
D12*
X123825000Y-123190000D03*
X123825000Y-67310000D03*
X67945000Y-123190000D03*
X67945000Y-67310000D03*
D13*
G36*
X72732727Y-77155272D02*
G01*
X72758370Y-77159076D01*
X72783517Y-77165375D01*
X72807926Y-77174108D01*
X72831361Y-77185192D01*
X72853597Y-77198520D01*
X72874419Y-77213963D01*
X72893628Y-77231372D01*
X72911037Y-77250581D01*
X72926480Y-77271403D01*
X72939808Y-77293639D01*
X72950892Y-77317074D01*
X72959625Y-77341483D01*
X72965924Y-77366630D01*
X72969728Y-77392273D01*
X72971000Y-77418166D01*
X72971000Y-78791834D01*
X72969728Y-78817727D01*
X72965924Y-78843370D01*
X72959625Y-78868517D01*
X72950892Y-78892926D01*
X72939808Y-78916361D01*
X72926480Y-78938597D01*
X72911037Y-78959419D01*
X72893628Y-78978628D01*
X72874419Y-78996037D01*
X72853597Y-79011480D01*
X72831361Y-79024808D01*
X72807926Y-79035892D01*
X72783517Y-79044625D01*
X72758370Y-79050924D01*
X72732727Y-79054728D01*
X72706834Y-79056000D01*
X69533166Y-79056000D01*
X69507273Y-79054728D01*
X69481630Y-79050924D01*
X69456483Y-79044625D01*
X69432074Y-79035892D01*
X69408639Y-79024808D01*
X69386403Y-79011480D01*
X69365581Y-78996037D01*
X69346372Y-78978628D01*
X69328963Y-78959419D01*
X69313520Y-78938597D01*
X69300192Y-78916361D01*
X69289108Y-78892926D01*
X69280375Y-78868517D01*
X69274076Y-78843370D01*
X69270272Y-78817727D01*
X69269000Y-78791834D01*
X69269000Y-77418166D01*
X69270272Y-77392273D01*
X69274076Y-77366630D01*
X69280375Y-77341483D01*
X69289108Y-77317074D01*
X69300192Y-77293639D01*
X69313520Y-77271403D01*
X69328963Y-77250581D01*
X69346372Y-77231372D01*
X69365581Y-77213963D01*
X69386403Y-77198520D01*
X69408639Y-77185192D01*
X69432074Y-77174108D01*
X69456483Y-77165375D01*
X69481630Y-77159076D01*
X69507273Y-77155272D01*
X69533166Y-77154000D01*
X72706834Y-77154000D01*
X72732727Y-77155272D01*
G37*
D14*
X71120000Y-81915000D03*
D15*
X90210000Y-122809000D03*
X95210000Y-122809000D03*
D16*
X89210000Y-125509000D03*
X96210000Y-125509000D03*
D17*
X99060000Y-124460000D03*
D18*
X101600000Y-124460000D03*
X104140000Y-124460000D03*
X106680000Y-124460000D03*
X109220000Y-124460000D03*
X111760000Y-124460000D03*
X114300000Y-124460000D03*
X116840000Y-124460000D03*
D13*
G36*
X72732727Y-87315272D02*
G01*
X72758370Y-87319076D01*
X72783517Y-87325375D01*
X72807926Y-87334108D01*
X72831361Y-87345192D01*
X72853597Y-87358520D01*
X72874419Y-87373963D01*
X72893628Y-87391372D01*
X72911037Y-87410581D01*
X72926480Y-87431403D01*
X72939808Y-87453639D01*
X72950892Y-87477074D01*
X72959625Y-87501483D01*
X72965924Y-87526630D01*
X72969728Y-87552273D01*
X72971000Y-87578166D01*
X72971000Y-88951834D01*
X72969728Y-88977727D01*
X72965924Y-89003370D01*
X72959625Y-89028517D01*
X72950892Y-89052926D01*
X72939808Y-89076361D01*
X72926480Y-89098597D01*
X72911037Y-89119419D01*
X72893628Y-89138628D01*
X72874419Y-89156037D01*
X72853597Y-89171480D01*
X72831361Y-89184808D01*
X72807926Y-89195892D01*
X72783517Y-89204625D01*
X72758370Y-89210924D01*
X72732727Y-89214728D01*
X72706834Y-89216000D01*
X69533166Y-89216000D01*
X69507273Y-89214728D01*
X69481630Y-89210924D01*
X69456483Y-89204625D01*
X69432074Y-89195892D01*
X69408639Y-89184808D01*
X69386403Y-89171480D01*
X69365581Y-89156037D01*
X69346372Y-89138628D01*
X69328963Y-89119419D01*
X69313520Y-89098597D01*
X69300192Y-89076361D01*
X69289108Y-89052926D01*
X69280375Y-89028517D01*
X69274076Y-89003370D01*
X69270272Y-88977727D01*
X69269000Y-88951834D01*
X69269000Y-87578166D01*
X69270272Y-87552273D01*
X69274076Y-87526630D01*
X69280375Y-87501483D01*
X69289108Y-87477074D01*
X69300192Y-87453639D01*
X69313520Y-87431403D01*
X69328963Y-87410581D01*
X69346372Y-87391372D01*
X69365581Y-87373963D01*
X69386403Y-87358520D01*
X69408639Y-87345192D01*
X69432074Y-87334108D01*
X69456483Y-87325375D01*
X69481630Y-87319076D01*
X69507273Y-87315272D01*
X69533166Y-87314000D01*
X72706834Y-87314000D01*
X72732727Y-87315272D01*
G37*
D14*
X71120000Y-92075000D03*
D13*
G36*
X72732727Y-97475272D02*
G01*
X72758370Y-97479076D01*
X72783517Y-97485375D01*
X72807926Y-97494108D01*
X72831361Y-97505192D01*
X72853597Y-97518520D01*
X72874419Y-97533963D01*
X72893628Y-97551372D01*
X72911037Y-97570581D01*
X72926480Y-97591403D01*
X72939808Y-97613639D01*
X72950892Y-97637074D01*
X72959625Y-97661483D01*
X72965924Y-97686630D01*
X72969728Y-97712273D01*
X72971000Y-97738166D01*
X72971000Y-99111834D01*
X72969728Y-99137727D01*
X72965924Y-99163370D01*
X72959625Y-99188517D01*
X72950892Y-99212926D01*
X72939808Y-99236361D01*
X72926480Y-99258597D01*
X72911037Y-99279419D01*
X72893628Y-99298628D01*
X72874419Y-99316037D01*
X72853597Y-99331480D01*
X72831361Y-99344808D01*
X72807926Y-99355892D01*
X72783517Y-99364625D01*
X72758370Y-99370924D01*
X72732727Y-99374728D01*
X72706834Y-99376000D01*
X69533166Y-99376000D01*
X69507273Y-99374728D01*
X69481630Y-99370924D01*
X69456483Y-99364625D01*
X69432074Y-99355892D01*
X69408639Y-99344808D01*
X69386403Y-99331480D01*
X69365581Y-99316037D01*
X69346372Y-99298628D01*
X69328963Y-99279419D01*
X69313520Y-99258597D01*
X69300192Y-99236361D01*
X69289108Y-99212926D01*
X69280375Y-99188517D01*
X69274076Y-99163370D01*
X69270272Y-99137727D01*
X69269000Y-99111834D01*
X69269000Y-97738166D01*
X69270272Y-97712273D01*
X69274076Y-97686630D01*
X69280375Y-97661483D01*
X69289108Y-97637074D01*
X69300192Y-97613639D01*
X69313520Y-97591403D01*
X69328963Y-97570581D01*
X69346372Y-97551372D01*
X69365581Y-97533963D01*
X69386403Y-97518520D01*
X69408639Y-97505192D01*
X69432074Y-97494108D01*
X69456483Y-97485375D01*
X69481630Y-97479076D01*
X69507273Y-97475272D01*
X69533166Y-97474000D01*
X72706834Y-97474000D01*
X72732727Y-97475272D01*
G37*
D14*
X71120000Y-102235000D03*
X71120000Y-112395000D03*
D13*
G36*
X72732727Y-107635272D02*
G01*
X72758370Y-107639076D01*
X72783517Y-107645375D01*
X72807926Y-107654108D01*
X72831361Y-107665192D01*
X72853597Y-107678520D01*
X72874419Y-107693963D01*
X72893628Y-107711372D01*
X72911037Y-107730581D01*
X72926480Y-107751403D01*
X72939808Y-107773639D01*
X72950892Y-107797074D01*
X72959625Y-107821483D01*
X72965924Y-107846630D01*
X72969728Y-107872273D01*
X72971000Y-107898166D01*
X72971000Y-109271834D01*
X72969728Y-109297727D01*
X72965924Y-109323370D01*
X72959625Y-109348517D01*
X72950892Y-109372926D01*
X72939808Y-109396361D01*
X72926480Y-109418597D01*
X72911037Y-109439419D01*
X72893628Y-109458628D01*
X72874419Y-109476037D01*
X72853597Y-109491480D01*
X72831361Y-109504808D01*
X72807926Y-109515892D01*
X72783517Y-109524625D01*
X72758370Y-109530924D01*
X72732727Y-109534728D01*
X72706834Y-109536000D01*
X69533166Y-109536000D01*
X69507273Y-109534728D01*
X69481630Y-109530924D01*
X69456483Y-109524625D01*
X69432074Y-109515892D01*
X69408639Y-109504808D01*
X69386403Y-109491480D01*
X69365581Y-109476037D01*
X69346372Y-109458628D01*
X69328963Y-109439419D01*
X69313520Y-109418597D01*
X69300192Y-109396361D01*
X69289108Y-109372926D01*
X69280375Y-109348517D01*
X69274076Y-109323370D01*
X69270272Y-109297727D01*
X69269000Y-109271834D01*
X69269000Y-107898166D01*
X69270272Y-107872273D01*
X69274076Y-107846630D01*
X69280375Y-107821483D01*
X69289108Y-107797074D01*
X69300192Y-107773639D01*
X69313520Y-107751403D01*
X69328963Y-107730581D01*
X69346372Y-107711372D01*
X69365581Y-107693963D01*
X69386403Y-107678520D01*
X69408639Y-107665192D01*
X69432074Y-107654108D01*
X69456483Y-107645375D01*
X69481630Y-107639076D01*
X69507273Y-107635272D01*
X69533166Y-107634000D01*
X72706834Y-107634000D01*
X72732727Y-107635272D01*
G37*
D19*
X100290000Y-68580000D03*
D13*
G36*
X98451975Y-67530276D02*
G01*
X98477699Y-67534092D01*
X98502925Y-67540411D01*
X98527411Y-67549172D01*
X98550920Y-67560291D01*
X98573226Y-67573661D01*
X98594114Y-67589152D01*
X98613383Y-67606617D01*
X98630848Y-67625886D01*
X98646339Y-67646774D01*
X98659709Y-67669080D01*
X98670828Y-67692589D01*
X98679589Y-67717075D01*
X98685908Y-67742301D01*
X98689724Y-67768025D01*
X98691000Y-67794000D01*
X98691000Y-69366000D01*
X98689724Y-69391975D01*
X98685908Y-69417699D01*
X98679589Y-69442925D01*
X98670828Y-69467411D01*
X98659709Y-69490920D01*
X98646339Y-69513226D01*
X98630848Y-69534114D01*
X98613383Y-69553383D01*
X98594114Y-69570848D01*
X98573226Y-69586339D01*
X98550920Y-69599709D01*
X98527411Y-69610828D01*
X98502925Y-69619589D01*
X98477699Y-69625908D01*
X98451975Y-69629724D01*
X98426000Y-69631000D01*
X97154000Y-69631000D01*
X97128025Y-69629724D01*
X97102301Y-69625908D01*
X97077075Y-69619589D01*
X97052589Y-69610828D01*
X97029080Y-69599709D01*
X97006774Y-69586339D01*
X96985886Y-69570848D01*
X96966617Y-69553383D01*
X96949152Y-69534114D01*
X96933661Y-69513226D01*
X96920291Y-69490920D01*
X96909172Y-69467411D01*
X96900411Y-69442925D01*
X96894092Y-69417699D01*
X96890276Y-69391975D01*
X96889000Y-69366000D01*
X96889000Y-67794000D01*
X96890276Y-67768025D01*
X96894092Y-67742301D01*
X96900411Y-67717075D01*
X96909172Y-67692589D01*
X96920291Y-67669080D01*
X96933661Y-67646774D01*
X96949152Y-67625886D01*
X96966617Y-67606617D01*
X96985886Y-67589152D01*
X97006774Y-67573661D01*
X97029080Y-67560291D01*
X97052589Y-67549172D01*
X97077075Y-67540411D01*
X97102301Y-67534092D01*
X97128025Y-67530276D01*
X97154000Y-67529000D01*
X98426000Y-67529000D01*
X98451975Y-67530276D01*
G37*
G36*
X108611975Y-67530276D02*
G01*
X108637699Y-67534092D01*
X108662925Y-67540411D01*
X108687411Y-67549172D01*
X108710920Y-67560291D01*
X108733226Y-67573661D01*
X108754114Y-67589152D01*
X108773383Y-67606617D01*
X108790848Y-67625886D01*
X108806339Y-67646774D01*
X108819709Y-67669080D01*
X108830828Y-67692589D01*
X108839589Y-67717075D01*
X108845908Y-67742301D01*
X108849724Y-67768025D01*
X108851000Y-67794000D01*
X108851000Y-69366000D01*
X108849724Y-69391975D01*
X108845908Y-69417699D01*
X108839589Y-69442925D01*
X108830828Y-69467411D01*
X108819709Y-69490920D01*
X108806339Y-69513226D01*
X108790848Y-69534114D01*
X108773383Y-69553383D01*
X108754114Y-69570848D01*
X108733226Y-69586339D01*
X108710920Y-69599709D01*
X108687411Y-69610828D01*
X108662925Y-69619589D01*
X108637699Y-69625908D01*
X108611975Y-69629724D01*
X108586000Y-69631000D01*
X107314000Y-69631000D01*
X107288025Y-69629724D01*
X107262301Y-69625908D01*
X107237075Y-69619589D01*
X107212589Y-69610828D01*
X107189080Y-69599709D01*
X107166774Y-69586339D01*
X107145886Y-69570848D01*
X107126617Y-69553383D01*
X107109152Y-69534114D01*
X107093661Y-69513226D01*
X107080291Y-69490920D01*
X107069172Y-69467411D01*
X107060411Y-69442925D01*
X107054092Y-69417699D01*
X107050276Y-69391975D01*
X107049000Y-69366000D01*
X107049000Y-67794000D01*
X107050276Y-67768025D01*
X107054092Y-67742301D01*
X107060411Y-67717075D01*
X107069172Y-67692589D01*
X107080291Y-67669080D01*
X107093661Y-67646774D01*
X107109152Y-67625886D01*
X107126617Y-67606617D01*
X107145886Y-67589152D01*
X107166774Y-67573661D01*
X107189080Y-67560291D01*
X107212589Y-67549172D01*
X107237075Y-67540411D01*
X107262301Y-67534092D01*
X107288025Y-67530276D01*
X107314000Y-67529000D01*
X108586000Y-67529000D01*
X108611975Y-67530276D01*
G37*
D19*
X110450000Y-68580000D03*
D20*
X86360000Y-71120000D03*
D13*
G36*
X90882727Y-69270272D02*
G01*
X90908370Y-69274076D01*
X90933517Y-69280375D01*
X90957926Y-69289108D01*
X90981361Y-69300192D01*
X91003597Y-69313520D01*
X91024419Y-69328963D01*
X91043628Y-69346372D01*
X91061037Y-69365581D01*
X91076480Y-69386403D01*
X91089808Y-69408639D01*
X91100892Y-69432074D01*
X91109625Y-69456483D01*
X91115924Y-69481630D01*
X91119728Y-69507273D01*
X91121000Y-69533166D01*
X91121000Y-72706834D01*
X91119728Y-72732727D01*
X91115924Y-72758370D01*
X91109625Y-72783517D01*
X91100892Y-72807926D01*
X91089808Y-72831361D01*
X91076480Y-72853597D01*
X91061037Y-72874419D01*
X91043628Y-72893628D01*
X91024419Y-72911037D01*
X91003597Y-72926480D01*
X90981361Y-72939808D01*
X90957926Y-72950892D01*
X90933517Y-72959625D01*
X90908370Y-72965924D01*
X90882727Y-72969728D01*
X90856834Y-72971000D01*
X89483166Y-72971000D01*
X89457273Y-72969728D01*
X89431630Y-72965924D01*
X89406483Y-72959625D01*
X89382074Y-72950892D01*
X89358639Y-72939808D01*
X89336403Y-72926480D01*
X89315581Y-72911037D01*
X89296372Y-72893628D01*
X89278963Y-72874419D01*
X89263520Y-72853597D01*
X89250192Y-72831361D01*
X89239108Y-72807926D01*
X89230375Y-72783517D01*
X89224076Y-72758370D01*
X89220272Y-72732727D01*
X89219000Y-72706834D01*
X89219000Y-69533166D01*
X89220272Y-69507273D01*
X89224076Y-69481630D01*
X89230375Y-69456483D01*
X89239108Y-69432074D01*
X89250192Y-69408639D01*
X89263520Y-69386403D01*
X89278963Y-69365581D01*
X89296372Y-69346372D01*
X89315581Y-69328963D01*
X89336403Y-69313520D01*
X89358639Y-69300192D01*
X89382074Y-69289108D01*
X89406483Y-69280375D01*
X89431630Y-69274076D01*
X89457273Y-69270272D01*
X89483166Y-69269000D01*
X90856834Y-69269000D01*
X90882727Y-69270272D01*
G37*
D17*
X116840000Y-100965000D03*
D18*
X116840000Y-103505000D03*
X116840000Y-106045000D03*
X116840000Y-108585000D03*
X116840000Y-111125000D03*
D21*
X87630000Y-92710000D03*
X87630000Y-91440000D03*
D22*
X87630000Y-93980000D03*
M02*
