M48
; DRILL file {KiCad (5.1.5)-3} date 07.02.2020 2:52:52
; FORMAT={-:-/ absolute / metric / decimal}
; #@! TF.CreationDate,2020-02-07T02:52:52+01:00
; #@! TF.GenerationSoftware,Kicad,Pcbnew,(5.1.5)-3
FMAT,2
METRIC
T1C0.300
T2C0.400
T3C0.600
T4C0.750
T5C0.850
T6C1.000
T7C1.200
T8C3.200
%
G90
G05
T1
X75.565Y-75.565
X76.835Y-74.295
X76.835Y-78.105
X76.835Y-88.265
X76.835Y-98.425
X76.835Y-108.585
X77.47Y-85.217
X77.47Y-95.377
X77.47Y-105.537
X77.47Y-115.697
X78.105Y-74.295
X78.105Y-76.835
X78.105Y-78.105
X78.105Y-88.265
X78.105Y-98.425
X78.105Y-108.585
X79.375Y-74.295
X79.375Y-76.835
X79.375Y-78.105
X79.375Y-85.217
X79.375Y-88.265
X79.375Y-95.377
X79.375Y-98.425
X79.375Y-105.537
X79.375Y-108.585
X79.375Y-115.697
X80.01Y-85.725
X80.01Y-95.885
X80.01Y-106.045
X80.01Y-116.205
X80.645Y-74.295
X80.645Y-76.835
X80.645Y-78.105
X80.645Y-88.265
X80.645Y-98.425
X80.645Y-108.585
X81.28Y-85.725
X81.28Y-95.885
X81.28Y-106.045
X81.28Y-116.205
X81.915Y-74.295
X81.915Y-76.835
X81.915Y-78.105
X81.915Y-88.265
X81.915Y-98.425
X81.915Y-108.585
X82.55Y-85.725
X82.55Y-95.885
X82.55Y-116.205
X83.82Y-74.295
X83.82Y-76.835
X83.82Y-78.105
X83.82Y-79.375
X83.82Y-80.645
X83.82Y-81.915
X84.455Y-99.695
X84.455Y-100.965
X84.455Y-102.235
X84.455Y-103.505
X84.455Y-104.775
X84.455Y-106.045
X84.455Y-107.315
X85.725Y-100.33
X86.36Y-114.935
X86.36Y-116.84
X86.36Y-118.11
X86.995Y-96.52
X86.995Y-100.33
X87.63Y-106.68
X87.63Y-107.95
X87.63Y-109.22
X87.63Y-110.49
X87.63Y-114.935
X87.63Y-116.84
X87.63Y-118.11
X88.265Y-96.52
X88.9Y-74.295
X88.9Y-75.565
X88.9Y-76.835
X88.9Y-78.105
X88.9Y-103.505
X88.9Y-106.68
X88.9Y-118.11
X88.9Y-119.38
X88.9Y-120.65
X88.9Y-121.92
X88.9Y-123.19
X89.535Y-85.09
X89.535Y-86.995
X89.535Y-88.9
X89.535Y-90.17
X89.535Y-91.44
X89.535Y-92.71
X89.535Y-93.98
X89.535Y-95.25
X89.535Y-96.52
X90.17Y-78.105
X90.17Y-79.375
X90.17Y-103.505
X90.17Y-106.68
X90.805Y-85.09
X90.805Y-91.44
X91.44Y-79.375
X91.44Y-100.33
X91.44Y-103.505
X91.44Y-105.41
X91.44Y-106.68
X92.075Y-85.725
X92.075Y-86.995
X92.075Y-88.265
X92.075Y-91.44
X92.71Y-103.505
X93.345Y-104.775
X93.98Y-102.235
X93.98Y-103.505
X93.98Y-120.65
X95.25Y-102.235
X95.25Y-103.505
X95.25Y-120.65
X96.52Y-71.12
X96.52Y-120.65
X96.52Y-121.92
X98.425Y-91.44
X98.425Y-92.71
X98.425Y-93.98
X98.425Y-95.25
X98.425Y-102.87
X98.425Y-104.14
X98.425Y-105.41
X98.425Y-106.68
X98.425Y-107.95
X98.425Y-109.22
X98.425Y-110.49
X99.06Y-71.12
X99.695Y-95.25
X99.695Y-96.52
X99.695Y-106.68
X99.695Y-107.95
X99.695Y-109.22
X99.695Y-110.49
X100.33Y-66.675
X100.33Y-70.485
X100.965Y-86.36
X100.965Y-96.52
X100.965Y-105.41
X100.965Y-107.95
X100.965Y-109.22
X100.965Y-110.49
X101.6Y-66.675
X101.6Y-67.945
X101.6Y-69.215
X101.6Y-70.485
X101.6Y-71.755
X101.6Y-73.025
X101.6Y-74.295
X101.6Y-75.565
X101.6Y-76.835
X101.6Y-78.105
X101.6Y-92.71
X101.6Y-104.14
X102.235Y-86.36
X103.505Y-86.36
X106.68Y-78.74
X106.68Y-88.265
X107.95Y-77.47
X107.95Y-80.01
X107.95Y-82.55
X107.95Y-83.82
X107.95Y-85.09
X109.22Y-80.01
X109.22Y-81.28
X109.22Y-85.09
X109.855Y-88.9
X110.49Y-80.01
X110.49Y-81.28
X111.125Y-87.63
X111.125Y-88.9
X111.76Y-81.28
X113.03Y-80.01
X113.03Y-81.28
X113.03Y-85.09
X113.03Y-90.17
X113.03Y-91.44
X113.03Y-92.71
X114.3Y-81.28
X114.3Y-82.55
X114.935Y-80.01
X115.57Y-84.455
X126.365Y-81.915
X126.365Y-83.185
X126.365Y-88.265
X126.365Y-89.535
X126.365Y-90.805
X126.365Y-92.075
X126.365Y-97.155
X126.365Y-98.425
T2
X78.359Y-81.661
X78.359Y-91.821
X78.359Y-101.981
X78.359Y-112.141
X91.44Y-107.95
X95.885Y-118.745
T3
X85.09Y-75.565
X95.885Y-80.645
X95.885Y-85.725
X96.52Y-90.17
X96.52Y-95.885
X96.52Y-102.235
X98.425Y-88.265
X106.68Y-86.36
X115.57Y-85.725
T4
X87.63Y-91.44
X87.63Y-92.71
X87.63Y-93.98
T5
X90.21Y-122.809
X95.21Y-122.809
T6
X107.95Y-68.58
X110.45Y-68.58
X99.06Y-124.46
X101.6Y-124.46
X104.14Y-124.46
X106.68Y-124.46
X109.22Y-124.46
X111.76Y-124.46
X114.3Y-124.46
X116.84Y-124.46
X116.84Y-100.965
X116.84Y-103.505
X116.84Y-106.045
X116.84Y-108.585
X116.84Y-111.125
X97.79Y-68.58
X100.29Y-68.58
T7
X71.12Y-78.105
X71.12Y-81.915
X71.12Y-108.585
X71.12Y-112.395
X71.12Y-88.265
X71.12Y-92.075
X86.36Y-71.12
X90.17Y-71.12
X71.12Y-98.425
X71.12Y-102.235
T8
X67.945Y-67.31
X123.825Y-67.31
X123.825Y-123.19
X67.945Y-123.19
T3
G00X89.21Y-125.859
M15
G01X89.21Y-125.159
M16
G05
G00X96.21Y-125.159
M15
G01X96.21Y-125.859
M16
G05
T0
M30
