G04 #@! TF.GenerationSoftware,KiCad,Pcbnew,(5.1.5)-3*
G04 #@! TF.CreationDate,2020-02-07T02:29:08+01:00*
G04 #@! TF.ProjectId,T962upgrade,54393632-7570-4677-9261-64652e6b6963,v0.1*
G04 #@! TF.SameCoordinates,Original*
G04 #@! TF.FileFunction,Copper,L2,Bot*
G04 #@! TF.FilePolarity,Positive*
%FSLAX46Y46*%
G04 Gerber Fmt 4.6, Leading zero omitted, Abs format (unit mm)*
G04 Created by KiCad (PCBNEW (5.1.5)-3) date 2020-02-07 02:29:08*
%MOMM*%
%LPD*%
G04 APERTURE LIST*
%ADD10C,5.500000*%
%ADD11C,0.100000*%
%ADD12O,3.600000X1.800000*%
%ADD13C,1.450000*%
%ADD14O,1.200000X1.900000*%
%ADD15R,1.700000X1.700000*%
%ADD16O,1.700000X1.700000*%
%ADD17O,1.700000X2.000000*%
%ADD18O,1.800000X3.600000*%
%ADD19O,1.500000X1.050000*%
%ADD20R,1.500000X1.050000*%
%ADD21C,0.600000*%
%ADD22C,0.800000*%
%ADD23C,1.000000*%
%ADD24C,0.508000*%
%ADD25C,0.254000*%
%ADD26C,0.128000*%
G04 APERTURE END LIST*
D10*
X123825000Y-123190000D03*
X123825000Y-67310000D03*
X67945000Y-123190000D03*
X67945000Y-67310000D03*
G04 #@! TA.AperFunction,ComponentPad*
D11*
G36*
X72694504Y-77206204D02*
G01*
X72718773Y-77209804D01*
X72742571Y-77215765D01*
X72765671Y-77224030D01*
X72787849Y-77234520D01*
X72808893Y-77247133D01*
X72828598Y-77261747D01*
X72846777Y-77278223D01*
X72863253Y-77296402D01*
X72877867Y-77316107D01*
X72890480Y-77337151D01*
X72900970Y-77359329D01*
X72909235Y-77382429D01*
X72915196Y-77406227D01*
X72918796Y-77430496D01*
X72920000Y-77455000D01*
X72920000Y-78755000D01*
X72918796Y-78779504D01*
X72915196Y-78803773D01*
X72909235Y-78827571D01*
X72900970Y-78850671D01*
X72890480Y-78872849D01*
X72877867Y-78893893D01*
X72863253Y-78913598D01*
X72846777Y-78931777D01*
X72828598Y-78948253D01*
X72808893Y-78962867D01*
X72787849Y-78975480D01*
X72765671Y-78985970D01*
X72742571Y-78994235D01*
X72718773Y-79000196D01*
X72694504Y-79003796D01*
X72670000Y-79005000D01*
X69570000Y-79005000D01*
X69545496Y-79003796D01*
X69521227Y-79000196D01*
X69497429Y-78994235D01*
X69474329Y-78985970D01*
X69452151Y-78975480D01*
X69431107Y-78962867D01*
X69411402Y-78948253D01*
X69393223Y-78931777D01*
X69376747Y-78913598D01*
X69362133Y-78893893D01*
X69349520Y-78872849D01*
X69339030Y-78850671D01*
X69330765Y-78827571D01*
X69324804Y-78803773D01*
X69321204Y-78779504D01*
X69320000Y-78755000D01*
X69320000Y-77455000D01*
X69321204Y-77430496D01*
X69324804Y-77406227D01*
X69330765Y-77382429D01*
X69339030Y-77359329D01*
X69349520Y-77337151D01*
X69362133Y-77316107D01*
X69376747Y-77296402D01*
X69393223Y-77278223D01*
X69411402Y-77261747D01*
X69431107Y-77247133D01*
X69452151Y-77234520D01*
X69474329Y-77224030D01*
X69497429Y-77215765D01*
X69521227Y-77209804D01*
X69545496Y-77206204D01*
X69570000Y-77205000D01*
X72670000Y-77205000D01*
X72694504Y-77206204D01*
G37*
G04 #@! TD.AperFunction*
D12*
X71120000Y-81915000D03*
D13*
X90210000Y-122809000D03*
X95210000Y-122809000D03*
D14*
X89210000Y-125509000D03*
X96210000Y-125509000D03*
D15*
X99060000Y-124460000D03*
D16*
X101600000Y-124460000D03*
X104140000Y-124460000D03*
X106680000Y-124460000D03*
X109220000Y-124460000D03*
X111760000Y-124460000D03*
X114300000Y-124460000D03*
X116840000Y-124460000D03*
G04 #@! TA.AperFunction,ComponentPad*
D11*
G36*
X72694504Y-87366204D02*
G01*
X72718773Y-87369804D01*
X72742571Y-87375765D01*
X72765671Y-87384030D01*
X72787849Y-87394520D01*
X72808893Y-87407133D01*
X72828598Y-87421747D01*
X72846777Y-87438223D01*
X72863253Y-87456402D01*
X72877867Y-87476107D01*
X72890480Y-87497151D01*
X72900970Y-87519329D01*
X72909235Y-87542429D01*
X72915196Y-87566227D01*
X72918796Y-87590496D01*
X72920000Y-87615000D01*
X72920000Y-88915000D01*
X72918796Y-88939504D01*
X72915196Y-88963773D01*
X72909235Y-88987571D01*
X72900970Y-89010671D01*
X72890480Y-89032849D01*
X72877867Y-89053893D01*
X72863253Y-89073598D01*
X72846777Y-89091777D01*
X72828598Y-89108253D01*
X72808893Y-89122867D01*
X72787849Y-89135480D01*
X72765671Y-89145970D01*
X72742571Y-89154235D01*
X72718773Y-89160196D01*
X72694504Y-89163796D01*
X72670000Y-89165000D01*
X69570000Y-89165000D01*
X69545496Y-89163796D01*
X69521227Y-89160196D01*
X69497429Y-89154235D01*
X69474329Y-89145970D01*
X69452151Y-89135480D01*
X69431107Y-89122867D01*
X69411402Y-89108253D01*
X69393223Y-89091777D01*
X69376747Y-89073598D01*
X69362133Y-89053893D01*
X69349520Y-89032849D01*
X69339030Y-89010671D01*
X69330765Y-88987571D01*
X69324804Y-88963773D01*
X69321204Y-88939504D01*
X69320000Y-88915000D01*
X69320000Y-87615000D01*
X69321204Y-87590496D01*
X69324804Y-87566227D01*
X69330765Y-87542429D01*
X69339030Y-87519329D01*
X69349520Y-87497151D01*
X69362133Y-87476107D01*
X69376747Y-87456402D01*
X69393223Y-87438223D01*
X69411402Y-87421747D01*
X69431107Y-87407133D01*
X69452151Y-87394520D01*
X69474329Y-87384030D01*
X69497429Y-87375765D01*
X69521227Y-87369804D01*
X69545496Y-87366204D01*
X69570000Y-87365000D01*
X72670000Y-87365000D01*
X72694504Y-87366204D01*
G37*
G04 #@! TD.AperFunction*
D12*
X71120000Y-92075000D03*
G04 #@! TA.AperFunction,ComponentPad*
D11*
G36*
X72694504Y-97526204D02*
G01*
X72718773Y-97529804D01*
X72742571Y-97535765D01*
X72765671Y-97544030D01*
X72787849Y-97554520D01*
X72808893Y-97567133D01*
X72828598Y-97581747D01*
X72846777Y-97598223D01*
X72863253Y-97616402D01*
X72877867Y-97636107D01*
X72890480Y-97657151D01*
X72900970Y-97679329D01*
X72909235Y-97702429D01*
X72915196Y-97726227D01*
X72918796Y-97750496D01*
X72920000Y-97775000D01*
X72920000Y-99075000D01*
X72918796Y-99099504D01*
X72915196Y-99123773D01*
X72909235Y-99147571D01*
X72900970Y-99170671D01*
X72890480Y-99192849D01*
X72877867Y-99213893D01*
X72863253Y-99233598D01*
X72846777Y-99251777D01*
X72828598Y-99268253D01*
X72808893Y-99282867D01*
X72787849Y-99295480D01*
X72765671Y-99305970D01*
X72742571Y-99314235D01*
X72718773Y-99320196D01*
X72694504Y-99323796D01*
X72670000Y-99325000D01*
X69570000Y-99325000D01*
X69545496Y-99323796D01*
X69521227Y-99320196D01*
X69497429Y-99314235D01*
X69474329Y-99305970D01*
X69452151Y-99295480D01*
X69431107Y-99282867D01*
X69411402Y-99268253D01*
X69393223Y-99251777D01*
X69376747Y-99233598D01*
X69362133Y-99213893D01*
X69349520Y-99192849D01*
X69339030Y-99170671D01*
X69330765Y-99147571D01*
X69324804Y-99123773D01*
X69321204Y-99099504D01*
X69320000Y-99075000D01*
X69320000Y-97775000D01*
X69321204Y-97750496D01*
X69324804Y-97726227D01*
X69330765Y-97702429D01*
X69339030Y-97679329D01*
X69349520Y-97657151D01*
X69362133Y-97636107D01*
X69376747Y-97616402D01*
X69393223Y-97598223D01*
X69411402Y-97581747D01*
X69431107Y-97567133D01*
X69452151Y-97554520D01*
X69474329Y-97544030D01*
X69497429Y-97535765D01*
X69521227Y-97529804D01*
X69545496Y-97526204D01*
X69570000Y-97525000D01*
X72670000Y-97525000D01*
X72694504Y-97526204D01*
G37*
G04 #@! TD.AperFunction*
D12*
X71120000Y-102235000D03*
X71120000Y-112395000D03*
G04 #@! TA.AperFunction,ComponentPad*
D11*
G36*
X72694504Y-107686204D02*
G01*
X72718773Y-107689804D01*
X72742571Y-107695765D01*
X72765671Y-107704030D01*
X72787849Y-107714520D01*
X72808893Y-107727133D01*
X72828598Y-107741747D01*
X72846777Y-107758223D01*
X72863253Y-107776402D01*
X72877867Y-107796107D01*
X72890480Y-107817151D01*
X72900970Y-107839329D01*
X72909235Y-107862429D01*
X72915196Y-107886227D01*
X72918796Y-107910496D01*
X72920000Y-107935000D01*
X72920000Y-109235000D01*
X72918796Y-109259504D01*
X72915196Y-109283773D01*
X72909235Y-109307571D01*
X72900970Y-109330671D01*
X72890480Y-109352849D01*
X72877867Y-109373893D01*
X72863253Y-109393598D01*
X72846777Y-109411777D01*
X72828598Y-109428253D01*
X72808893Y-109442867D01*
X72787849Y-109455480D01*
X72765671Y-109465970D01*
X72742571Y-109474235D01*
X72718773Y-109480196D01*
X72694504Y-109483796D01*
X72670000Y-109485000D01*
X69570000Y-109485000D01*
X69545496Y-109483796D01*
X69521227Y-109480196D01*
X69497429Y-109474235D01*
X69474329Y-109465970D01*
X69452151Y-109455480D01*
X69431107Y-109442867D01*
X69411402Y-109428253D01*
X69393223Y-109411777D01*
X69376747Y-109393598D01*
X69362133Y-109373893D01*
X69349520Y-109352849D01*
X69339030Y-109330671D01*
X69330765Y-109307571D01*
X69324804Y-109283773D01*
X69321204Y-109259504D01*
X69320000Y-109235000D01*
X69320000Y-107935000D01*
X69321204Y-107910496D01*
X69324804Y-107886227D01*
X69330765Y-107862429D01*
X69339030Y-107839329D01*
X69349520Y-107817151D01*
X69362133Y-107796107D01*
X69376747Y-107776402D01*
X69393223Y-107758223D01*
X69411402Y-107741747D01*
X69431107Y-107727133D01*
X69452151Y-107714520D01*
X69474329Y-107704030D01*
X69497429Y-107695765D01*
X69521227Y-107689804D01*
X69545496Y-107686204D01*
X69570000Y-107685000D01*
X72670000Y-107685000D01*
X72694504Y-107686204D01*
G37*
G04 #@! TD.AperFunction*
D17*
X100290000Y-68580000D03*
G04 #@! TA.AperFunction,ComponentPad*
D11*
G36*
X98414504Y-67581204D02*
G01*
X98438773Y-67584804D01*
X98462571Y-67590765D01*
X98485671Y-67599030D01*
X98507849Y-67609520D01*
X98528893Y-67622133D01*
X98548598Y-67636747D01*
X98566777Y-67653223D01*
X98583253Y-67671402D01*
X98597867Y-67691107D01*
X98610480Y-67712151D01*
X98620970Y-67734329D01*
X98629235Y-67757429D01*
X98635196Y-67781227D01*
X98638796Y-67805496D01*
X98640000Y-67830000D01*
X98640000Y-69330000D01*
X98638796Y-69354504D01*
X98635196Y-69378773D01*
X98629235Y-69402571D01*
X98620970Y-69425671D01*
X98610480Y-69447849D01*
X98597867Y-69468893D01*
X98583253Y-69488598D01*
X98566777Y-69506777D01*
X98548598Y-69523253D01*
X98528893Y-69537867D01*
X98507849Y-69550480D01*
X98485671Y-69560970D01*
X98462571Y-69569235D01*
X98438773Y-69575196D01*
X98414504Y-69578796D01*
X98390000Y-69580000D01*
X97190000Y-69580000D01*
X97165496Y-69578796D01*
X97141227Y-69575196D01*
X97117429Y-69569235D01*
X97094329Y-69560970D01*
X97072151Y-69550480D01*
X97051107Y-69537867D01*
X97031402Y-69523253D01*
X97013223Y-69506777D01*
X96996747Y-69488598D01*
X96982133Y-69468893D01*
X96969520Y-69447849D01*
X96959030Y-69425671D01*
X96950765Y-69402571D01*
X96944804Y-69378773D01*
X96941204Y-69354504D01*
X96940000Y-69330000D01*
X96940000Y-67830000D01*
X96941204Y-67805496D01*
X96944804Y-67781227D01*
X96950765Y-67757429D01*
X96959030Y-67734329D01*
X96969520Y-67712151D01*
X96982133Y-67691107D01*
X96996747Y-67671402D01*
X97013223Y-67653223D01*
X97031402Y-67636747D01*
X97051107Y-67622133D01*
X97072151Y-67609520D01*
X97094329Y-67599030D01*
X97117429Y-67590765D01*
X97141227Y-67584804D01*
X97165496Y-67581204D01*
X97190000Y-67580000D01*
X98390000Y-67580000D01*
X98414504Y-67581204D01*
G37*
G04 #@! TD.AperFunction*
G04 #@! TA.AperFunction,ComponentPad*
G36*
X108574504Y-67581204D02*
G01*
X108598773Y-67584804D01*
X108622571Y-67590765D01*
X108645671Y-67599030D01*
X108667849Y-67609520D01*
X108688893Y-67622133D01*
X108708598Y-67636747D01*
X108726777Y-67653223D01*
X108743253Y-67671402D01*
X108757867Y-67691107D01*
X108770480Y-67712151D01*
X108780970Y-67734329D01*
X108789235Y-67757429D01*
X108795196Y-67781227D01*
X108798796Y-67805496D01*
X108800000Y-67830000D01*
X108800000Y-69330000D01*
X108798796Y-69354504D01*
X108795196Y-69378773D01*
X108789235Y-69402571D01*
X108780970Y-69425671D01*
X108770480Y-69447849D01*
X108757867Y-69468893D01*
X108743253Y-69488598D01*
X108726777Y-69506777D01*
X108708598Y-69523253D01*
X108688893Y-69537867D01*
X108667849Y-69550480D01*
X108645671Y-69560970D01*
X108622571Y-69569235D01*
X108598773Y-69575196D01*
X108574504Y-69578796D01*
X108550000Y-69580000D01*
X107350000Y-69580000D01*
X107325496Y-69578796D01*
X107301227Y-69575196D01*
X107277429Y-69569235D01*
X107254329Y-69560970D01*
X107232151Y-69550480D01*
X107211107Y-69537867D01*
X107191402Y-69523253D01*
X107173223Y-69506777D01*
X107156747Y-69488598D01*
X107142133Y-69468893D01*
X107129520Y-69447849D01*
X107119030Y-69425671D01*
X107110765Y-69402571D01*
X107104804Y-69378773D01*
X107101204Y-69354504D01*
X107100000Y-69330000D01*
X107100000Y-67830000D01*
X107101204Y-67805496D01*
X107104804Y-67781227D01*
X107110765Y-67757429D01*
X107119030Y-67734329D01*
X107129520Y-67712151D01*
X107142133Y-67691107D01*
X107156747Y-67671402D01*
X107173223Y-67653223D01*
X107191402Y-67636747D01*
X107211107Y-67622133D01*
X107232151Y-67609520D01*
X107254329Y-67599030D01*
X107277429Y-67590765D01*
X107301227Y-67584804D01*
X107325496Y-67581204D01*
X107350000Y-67580000D01*
X108550000Y-67580000D01*
X108574504Y-67581204D01*
G37*
G04 #@! TD.AperFunction*
D17*
X110450000Y-68580000D03*
D18*
X86360000Y-71120000D03*
G04 #@! TA.AperFunction,ComponentPad*
D11*
G36*
X90844504Y-69321204D02*
G01*
X90868773Y-69324804D01*
X90892571Y-69330765D01*
X90915671Y-69339030D01*
X90937849Y-69349520D01*
X90958893Y-69362133D01*
X90978598Y-69376747D01*
X90996777Y-69393223D01*
X91013253Y-69411402D01*
X91027867Y-69431107D01*
X91040480Y-69452151D01*
X91050970Y-69474329D01*
X91059235Y-69497429D01*
X91065196Y-69521227D01*
X91068796Y-69545496D01*
X91070000Y-69570000D01*
X91070000Y-72670000D01*
X91068796Y-72694504D01*
X91065196Y-72718773D01*
X91059235Y-72742571D01*
X91050970Y-72765671D01*
X91040480Y-72787849D01*
X91027867Y-72808893D01*
X91013253Y-72828598D01*
X90996777Y-72846777D01*
X90978598Y-72863253D01*
X90958893Y-72877867D01*
X90937849Y-72890480D01*
X90915671Y-72900970D01*
X90892571Y-72909235D01*
X90868773Y-72915196D01*
X90844504Y-72918796D01*
X90820000Y-72920000D01*
X89520000Y-72920000D01*
X89495496Y-72918796D01*
X89471227Y-72915196D01*
X89447429Y-72909235D01*
X89424329Y-72900970D01*
X89402151Y-72890480D01*
X89381107Y-72877867D01*
X89361402Y-72863253D01*
X89343223Y-72846777D01*
X89326747Y-72828598D01*
X89312133Y-72808893D01*
X89299520Y-72787849D01*
X89289030Y-72765671D01*
X89280765Y-72742571D01*
X89274804Y-72718773D01*
X89271204Y-72694504D01*
X89270000Y-72670000D01*
X89270000Y-69570000D01*
X89271204Y-69545496D01*
X89274804Y-69521227D01*
X89280765Y-69497429D01*
X89289030Y-69474329D01*
X89299520Y-69452151D01*
X89312133Y-69431107D01*
X89326747Y-69411402D01*
X89343223Y-69393223D01*
X89361402Y-69376747D01*
X89381107Y-69362133D01*
X89402151Y-69349520D01*
X89424329Y-69339030D01*
X89447429Y-69330765D01*
X89471227Y-69324804D01*
X89495496Y-69321204D01*
X89520000Y-69320000D01*
X90820000Y-69320000D01*
X90844504Y-69321204D01*
G37*
G04 #@! TD.AperFunction*
D15*
X116840000Y-100965000D03*
D16*
X116840000Y-103505000D03*
X116840000Y-106045000D03*
X116840000Y-108585000D03*
X116840000Y-111125000D03*
D19*
X87630000Y-92710000D03*
X87630000Y-91440000D03*
D20*
X87630000Y-93980000D03*
D21*
X78105000Y-88265000D03*
X79375000Y-88265000D03*
X76835000Y-88265000D03*
X76835000Y-78105000D03*
X78105000Y-78105000D03*
X79375000Y-78105000D03*
X78105000Y-98425000D03*
X76835000Y-98425000D03*
X79375000Y-98425000D03*
X78105000Y-108585000D03*
X76835000Y-108585000D03*
X79375000Y-108585000D03*
X79375000Y-115697000D03*
X80010000Y-116205000D03*
X81280000Y-116205000D03*
X82550000Y-116205000D03*
X77470000Y-115697000D03*
X77470000Y-105537000D03*
X79375000Y-105537000D03*
X80010000Y-106045000D03*
X81280000Y-106045000D03*
X77470000Y-95377000D03*
X79375000Y-95377000D03*
X80010000Y-95885000D03*
X81280000Y-95885000D03*
X82550000Y-95885000D03*
X77470000Y-85217000D03*
X79375000Y-85217000D03*
X80010000Y-85725000D03*
X81280000Y-85725000D03*
X82550000Y-85725000D03*
X80645000Y-108585000D03*
X81915000Y-108585000D03*
X80645000Y-98425000D03*
X81915000Y-98425000D03*
X80645000Y-88265000D03*
X81915000Y-88265000D03*
X80645000Y-78105000D03*
X81915000Y-78105000D03*
X84455000Y-103505000D03*
X84455000Y-104775000D03*
X84455000Y-106045000D03*
X84455000Y-107315000D03*
X85725000Y-100330000D03*
X84455000Y-102235000D03*
X84455000Y-100965000D03*
X84455000Y-99695000D03*
X83820000Y-81915000D03*
X83820000Y-80645000D03*
X83820000Y-79375000D03*
X83820000Y-78105000D03*
X83820000Y-76835000D03*
X81915000Y-76835000D03*
X80645000Y-76835000D03*
X79375000Y-76835000D03*
X78105000Y-76835000D03*
X83820000Y-74295000D03*
X81915000Y-74295000D03*
X80645000Y-74295000D03*
X79375000Y-74295000D03*
X78105000Y-74295000D03*
X76835000Y-74295000D03*
X75565000Y-75565000D03*
X86995000Y-100330000D03*
X86360000Y-118110000D03*
X87630000Y-118110000D03*
X88900000Y-118110000D03*
X88900000Y-119380000D03*
X88900000Y-120650000D03*
X88900000Y-121920000D03*
X96520000Y-121920000D03*
X96520000Y-120650000D03*
X95250000Y-120650000D03*
X93980000Y-120650000D03*
X114300000Y-81280000D03*
X114300000Y-82550000D03*
X115570000Y-84455000D03*
X113030000Y-85090000D03*
X111125000Y-87630000D03*
X111125000Y-88900000D03*
X109855000Y-88900000D03*
X113030000Y-81280000D03*
X110490000Y-81280000D03*
X110490000Y-80010000D03*
X109220000Y-80010000D03*
X113030000Y-90170000D03*
X113030000Y-91440000D03*
X113030000Y-92710000D03*
X101600000Y-70485000D03*
X101600000Y-73025000D03*
X101600000Y-71755000D03*
X101600000Y-74295000D03*
X88900000Y-75565000D03*
X88900000Y-74295000D03*
X88900000Y-76835000D03*
X90170000Y-78105000D03*
X88900000Y-78105000D03*
X91440000Y-79375000D03*
X90170000Y-79375000D03*
X92075000Y-86995000D03*
X92075000Y-85725000D03*
X90805000Y-85090000D03*
X89535000Y-85090000D03*
X92075000Y-88265000D03*
X89535000Y-88900000D03*
X89535000Y-86995000D03*
X89535000Y-90170000D03*
X89535000Y-91440000D03*
X90805000Y-91440000D03*
X92075000Y-91440000D03*
X89535000Y-92710000D03*
X89535000Y-93980000D03*
X89535000Y-95250000D03*
X89535000Y-96520000D03*
X88265000Y-96520000D03*
X86995000Y-96520000D03*
X91440000Y-103505000D03*
X90170000Y-103505000D03*
X88900000Y-103505000D03*
X92710000Y-103505000D03*
X93980000Y-103505000D03*
X93980000Y-102235000D03*
X95250000Y-103505000D03*
X95250000Y-102235000D03*
X91440000Y-100330000D03*
X86360000Y-114935000D03*
X87630000Y-114935000D03*
X86360000Y-116840000D03*
X87630000Y-116840000D03*
X88900000Y-123190000D03*
X87630000Y-107950000D03*
X87630000Y-106680000D03*
X88900000Y-106680000D03*
X90170000Y-106680000D03*
X91440000Y-106680000D03*
X91440000Y-105410000D03*
X93345000Y-104775000D03*
X87630000Y-109220000D03*
X87630000Y-110490000D03*
X98425000Y-104140000D03*
X98425000Y-102870000D03*
X98425000Y-105410000D03*
X98425000Y-106680000D03*
X99695000Y-106680000D03*
X100965000Y-105410000D03*
X101600000Y-104140000D03*
X126365000Y-81915000D03*
X126365000Y-83185000D03*
X126365000Y-88265000D03*
X126365000Y-89535000D03*
X126365000Y-90805000D03*
X126365000Y-92075000D03*
X126365000Y-97155000D03*
X126365000Y-98425000D03*
X98425000Y-92710000D03*
X98425000Y-91440000D03*
X98425000Y-93980000D03*
X98425000Y-95250000D03*
X99695000Y-95250000D03*
X101600000Y-92710000D03*
X99695000Y-96520000D03*
X100965000Y-96520000D03*
X98425000Y-109220000D03*
X99695000Y-109220000D03*
X98425000Y-107950000D03*
X99695000Y-107950000D03*
X98425000Y-110490000D03*
X99695000Y-110490000D03*
X100965000Y-107950000D03*
X100965000Y-109220000D03*
X100965000Y-110490000D03*
X102235000Y-86360000D03*
X100965000Y-86360000D03*
X103505000Y-86360000D03*
X106680000Y-88265000D03*
X111760000Y-81280000D03*
X113030000Y-80010000D03*
X114935000Y-80010000D03*
X101600000Y-75565000D03*
X101600000Y-76835000D03*
X101600000Y-78105000D03*
X100330000Y-70485000D03*
X109220000Y-81280000D03*
X107950000Y-80010000D03*
X106680000Y-78740000D03*
X107950000Y-82550000D03*
X107950000Y-83820000D03*
X107950000Y-85090000D03*
X109220000Y-85090000D03*
X107950000Y-77470000D03*
X101600000Y-69215000D03*
X101600000Y-67945000D03*
X101600000Y-66675000D03*
X100330000Y-66675000D03*
D22*
X95885000Y-118745000D03*
X91440000Y-107950000D03*
D23*
X98425000Y-88265000D03*
X96520000Y-90170000D03*
X96520000Y-95885000D03*
X96520000Y-102235000D03*
X106680000Y-86360000D03*
X115570000Y-85725000D03*
X95885000Y-80645000D03*
X95885000Y-85725000D03*
D21*
X96520000Y-71120000D03*
X99060000Y-71120000D03*
D22*
X78359000Y-81661000D03*
X78359000Y-91821000D03*
X78359000Y-101981000D03*
X78359000Y-112141000D03*
D23*
X85090000Y-75565000D03*
D24*
X95885000Y-118745000D02*
X95885000Y-118110000D01*
X95885000Y-118110000D02*
X95885000Y-115570000D01*
X95885000Y-115570000D02*
X91440000Y-111125000D01*
X91440000Y-111125000D02*
X91440000Y-107950000D01*
X96520000Y-90170000D02*
X98425000Y-88265000D01*
X96520000Y-102235000D02*
X96520000Y-95885000D01*
X106680000Y-86360000D02*
X114935000Y-86360000D01*
X114935000Y-86360000D02*
X115570000Y-85725000D01*
X95885000Y-80645000D02*
X95885000Y-85725000D01*
D25*
X96520000Y-71120000D02*
X99060000Y-71120000D01*
X78359000Y-112141000D02*
X76581000Y-112141000D01*
X76581000Y-112141000D02*
X76200000Y-111760000D01*
X76200000Y-111760000D02*
X76200000Y-101600000D01*
X76200000Y-101600000D02*
X76200000Y-91440000D01*
X76200000Y-101981000D02*
X76200000Y-101600000D01*
X78359000Y-101981000D02*
X76200000Y-101981000D01*
X76200000Y-91821000D02*
X76200000Y-91440000D01*
X78359000Y-91821000D02*
X76200000Y-91821000D01*
X76200000Y-91440000D02*
X76200000Y-82550000D01*
X76200000Y-82550000D02*
X76200000Y-76835000D01*
X76200000Y-76835000D02*
X77470000Y-75565000D01*
X77470000Y-75565000D02*
X85090000Y-75565000D01*
X76200000Y-81661000D02*
X78359000Y-81661000D01*
X76200000Y-81915000D02*
X76200000Y-81661000D01*
D26*
G36*
X85026000Y-74747000D02*
G01*
X85009434Y-74747000D01*
X84851398Y-74778435D01*
X84702532Y-74840098D01*
X84568555Y-74929618D01*
X84454618Y-75043555D01*
X84403539Y-75120000D01*
X77491848Y-75120000D01*
X77469999Y-75117848D01*
X77448150Y-75120000D01*
X77448140Y-75120000D01*
X77382765Y-75126439D01*
X77298882Y-75151884D01*
X77221575Y-75193206D01*
X77153815Y-75248815D01*
X77139879Y-75265796D01*
X75900796Y-76504880D01*
X75883816Y-76518815D01*
X75828207Y-76586575D01*
X75786885Y-76663882D01*
X75761439Y-76747765D01*
X75752847Y-76835000D01*
X75755001Y-76856870D01*
X75755000Y-81639139D01*
X75752847Y-81661000D01*
X75755000Y-81682861D01*
X75755000Y-82571859D01*
X75755001Y-82571869D01*
X75755000Y-91418140D01*
X75755000Y-91799140D01*
X75752847Y-91821000D01*
X75755001Y-91842869D01*
X75755000Y-101578140D01*
X75755000Y-101959140D01*
X75752847Y-101981000D01*
X75755001Y-102002869D01*
X75755000Y-111738140D01*
X75752847Y-111760000D01*
X75755000Y-111781859D01*
X75761439Y-111847234D01*
X75786884Y-111931117D01*
X75828206Y-112008424D01*
X75883815Y-112076185D01*
X75900801Y-112090125D01*
X76250879Y-112440204D01*
X76264815Y-112457185D01*
X76332575Y-112512794D01*
X76409882Y-112554116D01*
X76493765Y-112579561D01*
X76559140Y-112586000D01*
X76559150Y-112586000D01*
X76580999Y-112588152D01*
X76602848Y-112586000D01*
X77792809Y-112586000D01*
X77801293Y-112598698D01*
X77901302Y-112698707D01*
X78018900Y-112777283D01*
X78149567Y-112831408D01*
X78288283Y-112859000D01*
X78429717Y-112859000D01*
X78568433Y-112831408D01*
X78699100Y-112777283D01*
X78816698Y-112698707D01*
X78916707Y-112598698D01*
X78995283Y-112481100D01*
X79049408Y-112350433D01*
X79077000Y-112211717D01*
X79077000Y-112070283D01*
X79049408Y-111931567D01*
X78995283Y-111800900D01*
X78916707Y-111683302D01*
X78816698Y-111583293D01*
X78699100Y-111504717D01*
X78568433Y-111450592D01*
X78429717Y-111423000D01*
X78288283Y-111423000D01*
X78149567Y-111450592D01*
X78018900Y-111504717D01*
X77901302Y-111583293D01*
X77801293Y-111683302D01*
X77792809Y-111696000D01*
X76765325Y-111696000D01*
X76645000Y-111575676D01*
X76645000Y-102426000D01*
X77792809Y-102426000D01*
X77801293Y-102438698D01*
X77901302Y-102538707D01*
X78018900Y-102617283D01*
X78149567Y-102671408D01*
X78288283Y-102699000D01*
X78429717Y-102699000D01*
X78568433Y-102671408D01*
X78699100Y-102617283D01*
X78816698Y-102538707D01*
X78916707Y-102438698D01*
X78995283Y-102321100D01*
X79049408Y-102190433D01*
X79077000Y-102051717D01*
X79077000Y-101910283D01*
X79049408Y-101771567D01*
X78995283Y-101640900D01*
X78916707Y-101523302D01*
X78816698Y-101423293D01*
X78699100Y-101344717D01*
X78568433Y-101290592D01*
X78429717Y-101263000D01*
X78288283Y-101263000D01*
X78149567Y-101290592D01*
X78018900Y-101344717D01*
X77901302Y-101423293D01*
X77801293Y-101523302D01*
X77792809Y-101536000D01*
X76645000Y-101536000D01*
X76645000Y-92266000D01*
X77792809Y-92266000D01*
X77801293Y-92278698D01*
X77901302Y-92378707D01*
X78018900Y-92457283D01*
X78149567Y-92511408D01*
X78288283Y-92539000D01*
X78429717Y-92539000D01*
X78568433Y-92511408D01*
X78699100Y-92457283D01*
X78816698Y-92378707D01*
X78916707Y-92278698D01*
X78995283Y-92161100D01*
X79049408Y-92030433D01*
X79077000Y-91891717D01*
X79077000Y-91750283D01*
X79049408Y-91611567D01*
X78995283Y-91480900D01*
X78916707Y-91363302D01*
X78816698Y-91263293D01*
X78699100Y-91184717D01*
X78568433Y-91130592D01*
X78429717Y-91103000D01*
X78288283Y-91103000D01*
X78149567Y-91130592D01*
X78018900Y-91184717D01*
X77901302Y-91263293D01*
X77801293Y-91363302D01*
X77792809Y-91376000D01*
X76645000Y-91376000D01*
X76645000Y-82106000D01*
X77792809Y-82106000D01*
X77801293Y-82118698D01*
X77901302Y-82218707D01*
X78018900Y-82297283D01*
X78149567Y-82351408D01*
X78288283Y-82379000D01*
X78429717Y-82379000D01*
X78568433Y-82351408D01*
X78699100Y-82297283D01*
X78816698Y-82218707D01*
X78916707Y-82118698D01*
X78995283Y-82001100D01*
X79049408Y-81870433D01*
X79077000Y-81731717D01*
X79077000Y-81590283D01*
X79049408Y-81451567D01*
X78995283Y-81320900D01*
X78916707Y-81203302D01*
X78816698Y-81103293D01*
X78699100Y-81024717D01*
X78568433Y-80970592D01*
X78429717Y-80943000D01*
X78288283Y-80943000D01*
X78149567Y-80970592D01*
X78018900Y-81024717D01*
X77901302Y-81103293D01*
X77801293Y-81203302D01*
X77792809Y-81216000D01*
X76645000Y-81216000D01*
X76645000Y-77019324D01*
X77654325Y-76010000D01*
X84403539Y-76010000D01*
X84454618Y-76086445D01*
X84568555Y-76200382D01*
X84702532Y-76289902D01*
X84851398Y-76351565D01*
X85009434Y-76383000D01*
X85026000Y-76383000D01*
X85026000Y-97790000D01*
X85027230Y-97802486D01*
X85030872Y-97814492D01*
X85036786Y-97825556D01*
X85044745Y-97835255D01*
X85054444Y-97843214D01*
X85065508Y-97849128D01*
X85077514Y-97852770D01*
X85090000Y-97854000D01*
X87566000Y-97854000D01*
X87566000Y-102806000D01*
X85090000Y-102806000D01*
X85077514Y-102807230D01*
X85065508Y-102810872D01*
X85054444Y-102816786D01*
X85044745Y-102824745D01*
X85036786Y-102834444D01*
X85030872Y-102845508D01*
X85027230Y-102857514D01*
X85026000Y-102870000D01*
X85026000Y-126301000D01*
X64834000Y-126301000D01*
X64834000Y-122887828D01*
X64877000Y-122887828D01*
X64877000Y-123492172D01*
X64994901Y-124084903D01*
X65226173Y-124643243D01*
X65561929Y-125145736D01*
X65989264Y-125573071D01*
X66491757Y-125908827D01*
X67050097Y-126140099D01*
X67642828Y-126258000D01*
X68247172Y-126258000D01*
X68839903Y-126140099D01*
X69398243Y-125908827D01*
X69900736Y-125573071D01*
X70328071Y-125145736D01*
X70663827Y-124643243D01*
X70895099Y-124084903D01*
X71013000Y-123492172D01*
X71013000Y-122887828D01*
X70895099Y-122295097D01*
X70663827Y-121736757D01*
X70328071Y-121234264D01*
X69900736Y-120806929D01*
X69398243Y-120471173D01*
X68839903Y-120239901D01*
X68247172Y-120122000D01*
X67642828Y-120122000D01*
X67050097Y-120239901D01*
X66491757Y-120471173D01*
X65989264Y-120806929D01*
X65561929Y-121234264D01*
X65226173Y-121736757D01*
X64994901Y-122295097D01*
X64877000Y-122887828D01*
X64834000Y-122887828D01*
X64834000Y-112395000D01*
X68996107Y-112395000D01*
X69019624Y-112633770D01*
X69089270Y-112863364D01*
X69202370Y-113074959D01*
X69354577Y-113260423D01*
X69540041Y-113412630D01*
X69751636Y-113525730D01*
X69981230Y-113595376D01*
X70160168Y-113613000D01*
X72079832Y-113613000D01*
X72258770Y-113595376D01*
X72488364Y-113525730D01*
X72699959Y-113412630D01*
X72885423Y-113260423D01*
X73037630Y-113074959D01*
X73150730Y-112863364D01*
X73220376Y-112633770D01*
X73243893Y-112395000D01*
X73220376Y-112156230D01*
X73150730Y-111926636D01*
X73037630Y-111715041D01*
X72885423Y-111529577D01*
X72699959Y-111377370D01*
X72488364Y-111264270D01*
X72258770Y-111194624D01*
X72079832Y-111177000D01*
X70160168Y-111177000D01*
X69981230Y-111194624D01*
X69751636Y-111264270D01*
X69540041Y-111377370D01*
X69354577Y-111529577D01*
X69202370Y-111715041D01*
X69089270Y-111926636D01*
X69019624Y-112156230D01*
X68996107Y-112395000D01*
X64834000Y-112395000D01*
X64834000Y-107935000D01*
X69000462Y-107935000D01*
X69000462Y-109235000D01*
X69011406Y-109346111D01*
X69043815Y-109452953D01*
X69096446Y-109551418D01*
X69167276Y-109637724D01*
X69253582Y-109708554D01*
X69352047Y-109761185D01*
X69458889Y-109793594D01*
X69570000Y-109804538D01*
X72670000Y-109804538D01*
X72781111Y-109793594D01*
X72887953Y-109761185D01*
X72986418Y-109708554D01*
X73072724Y-109637724D01*
X73143554Y-109551418D01*
X73196185Y-109452953D01*
X73228594Y-109346111D01*
X73239538Y-109235000D01*
X73239538Y-107935000D01*
X73228594Y-107823889D01*
X73196185Y-107717047D01*
X73143554Y-107618582D01*
X73072724Y-107532276D01*
X72986418Y-107461446D01*
X72887953Y-107408815D01*
X72781111Y-107376406D01*
X72670000Y-107365462D01*
X69570000Y-107365462D01*
X69458889Y-107376406D01*
X69352047Y-107408815D01*
X69253582Y-107461446D01*
X69167276Y-107532276D01*
X69096446Y-107618582D01*
X69043815Y-107717047D01*
X69011406Y-107823889D01*
X69000462Y-107935000D01*
X64834000Y-107935000D01*
X64834000Y-102235000D01*
X68996107Y-102235000D01*
X69019624Y-102473770D01*
X69089270Y-102703364D01*
X69202370Y-102914959D01*
X69354577Y-103100423D01*
X69540041Y-103252630D01*
X69751636Y-103365730D01*
X69981230Y-103435376D01*
X70160168Y-103453000D01*
X72079832Y-103453000D01*
X72258770Y-103435376D01*
X72488364Y-103365730D01*
X72699959Y-103252630D01*
X72885423Y-103100423D01*
X73037630Y-102914959D01*
X73150730Y-102703364D01*
X73220376Y-102473770D01*
X73243893Y-102235000D01*
X73220376Y-101996230D01*
X73150730Y-101766636D01*
X73037630Y-101555041D01*
X72885423Y-101369577D01*
X72699959Y-101217370D01*
X72488364Y-101104270D01*
X72258770Y-101034624D01*
X72079832Y-101017000D01*
X70160168Y-101017000D01*
X69981230Y-101034624D01*
X69751636Y-101104270D01*
X69540041Y-101217370D01*
X69354577Y-101369577D01*
X69202370Y-101555041D01*
X69089270Y-101766636D01*
X69019624Y-101996230D01*
X68996107Y-102235000D01*
X64834000Y-102235000D01*
X64834000Y-97775000D01*
X69000462Y-97775000D01*
X69000462Y-99075000D01*
X69011406Y-99186111D01*
X69043815Y-99292953D01*
X69096446Y-99391418D01*
X69167276Y-99477724D01*
X69253582Y-99548554D01*
X69352047Y-99601185D01*
X69458889Y-99633594D01*
X69570000Y-99644538D01*
X72670000Y-99644538D01*
X72781111Y-99633594D01*
X72887953Y-99601185D01*
X72986418Y-99548554D01*
X73072724Y-99477724D01*
X73143554Y-99391418D01*
X73196185Y-99292953D01*
X73228594Y-99186111D01*
X73239538Y-99075000D01*
X73239538Y-97775000D01*
X73228594Y-97663889D01*
X73196185Y-97557047D01*
X73143554Y-97458582D01*
X73072724Y-97372276D01*
X72986418Y-97301446D01*
X72887953Y-97248815D01*
X72781111Y-97216406D01*
X72670000Y-97205462D01*
X69570000Y-97205462D01*
X69458889Y-97216406D01*
X69352047Y-97248815D01*
X69253582Y-97301446D01*
X69167276Y-97372276D01*
X69096446Y-97458582D01*
X69043815Y-97557047D01*
X69011406Y-97663889D01*
X69000462Y-97775000D01*
X64834000Y-97775000D01*
X64834000Y-92075000D01*
X68996107Y-92075000D01*
X69019624Y-92313770D01*
X69089270Y-92543364D01*
X69202370Y-92754959D01*
X69354577Y-92940423D01*
X69540041Y-93092630D01*
X69751636Y-93205730D01*
X69981230Y-93275376D01*
X70160168Y-93293000D01*
X72079832Y-93293000D01*
X72258770Y-93275376D01*
X72488364Y-93205730D01*
X72699959Y-93092630D01*
X72885423Y-92940423D01*
X73037630Y-92754959D01*
X73150730Y-92543364D01*
X73220376Y-92313770D01*
X73243893Y-92075000D01*
X73220376Y-91836230D01*
X73150730Y-91606636D01*
X73037630Y-91395041D01*
X72885423Y-91209577D01*
X72699959Y-91057370D01*
X72488364Y-90944270D01*
X72258770Y-90874624D01*
X72079832Y-90857000D01*
X70160168Y-90857000D01*
X69981230Y-90874624D01*
X69751636Y-90944270D01*
X69540041Y-91057370D01*
X69354577Y-91209577D01*
X69202370Y-91395041D01*
X69089270Y-91606636D01*
X69019624Y-91836230D01*
X68996107Y-92075000D01*
X64834000Y-92075000D01*
X64834000Y-87615000D01*
X69000462Y-87615000D01*
X69000462Y-88915000D01*
X69011406Y-89026111D01*
X69043815Y-89132953D01*
X69096446Y-89231418D01*
X69167276Y-89317724D01*
X69253582Y-89388554D01*
X69352047Y-89441185D01*
X69458889Y-89473594D01*
X69570000Y-89484538D01*
X72670000Y-89484538D01*
X72781111Y-89473594D01*
X72887953Y-89441185D01*
X72986418Y-89388554D01*
X73072724Y-89317724D01*
X73143554Y-89231418D01*
X73196185Y-89132953D01*
X73228594Y-89026111D01*
X73239538Y-88915000D01*
X73239538Y-87615000D01*
X73228594Y-87503889D01*
X73196185Y-87397047D01*
X73143554Y-87298582D01*
X73072724Y-87212276D01*
X72986418Y-87141446D01*
X72887953Y-87088815D01*
X72781111Y-87056406D01*
X72670000Y-87045462D01*
X69570000Y-87045462D01*
X69458889Y-87056406D01*
X69352047Y-87088815D01*
X69253582Y-87141446D01*
X69167276Y-87212276D01*
X69096446Y-87298582D01*
X69043815Y-87397047D01*
X69011406Y-87503889D01*
X69000462Y-87615000D01*
X64834000Y-87615000D01*
X64834000Y-81915000D01*
X68996107Y-81915000D01*
X69019624Y-82153770D01*
X69089270Y-82383364D01*
X69202370Y-82594959D01*
X69354577Y-82780423D01*
X69540041Y-82932630D01*
X69751636Y-83045730D01*
X69981230Y-83115376D01*
X70160168Y-83133000D01*
X72079832Y-83133000D01*
X72258770Y-83115376D01*
X72488364Y-83045730D01*
X72699959Y-82932630D01*
X72885423Y-82780423D01*
X73037630Y-82594959D01*
X73150730Y-82383364D01*
X73220376Y-82153770D01*
X73243893Y-81915000D01*
X73220376Y-81676230D01*
X73150730Y-81446636D01*
X73037630Y-81235041D01*
X72885423Y-81049577D01*
X72699959Y-80897370D01*
X72488364Y-80784270D01*
X72258770Y-80714624D01*
X72079832Y-80697000D01*
X70160168Y-80697000D01*
X69981230Y-80714624D01*
X69751636Y-80784270D01*
X69540041Y-80897370D01*
X69354577Y-81049577D01*
X69202370Y-81235041D01*
X69089270Y-81446636D01*
X69019624Y-81676230D01*
X68996107Y-81915000D01*
X64834000Y-81915000D01*
X64834000Y-77455000D01*
X69000462Y-77455000D01*
X69000462Y-78755000D01*
X69011406Y-78866111D01*
X69043815Y-78972953D01*
X69096446Y-79071418D01*
X69167276Y-79157724D01*
X69253582Y-79228554D01*
X69352047Y-79281185D01*
X69458889Y-79313594D01*
X69570000Y-79324538D01*
X72670000Y-79324538D01*
X72781111Y-79313594D01*
X72887953Y-79281185D01*
X72986418Y-79228554D01*
X73072724Y-79157724D01*
X73143554Y-79071418D01*
X73196185Y-78972953D01*
X73228594Y-78866111D01*
X73239538Y-78755000D01*
X73239538Y-77455000D01*
X73228594Y-77343889D01*
X73196185Y-77237047D01*
X73143554Y-77138582D01*
X73072724Y-77052276D01*
X72986418Y-76981446D01*
X72887953Y-76928815D01*
X72781111Y-76896406D01*
X72670000Y-76885462D01*
X69570000Y-76885462D01*
X69458889Y-76896406D01*
X69352047Y-76928815D01*
X69253582Y-76981446D01*
X69167276Y-77052276D01*
X69096446Y-77138582D01*
X69043815Y-77237047D01*
X69011406Y-77343889D01*
X69000462Y-77455000D01*
X64834000Y-77455000D01*
X64834000Y-67007828D01*
X64877000Y-67007828D01*
X64877000Y-67612172D01*
X64994901Y-68204903D01*
X65226173Y-68763243D01*
X65561929Y-69265736D01*
X65989264Y-69693071D01*
X66491757Y-70028827D01*
X67050097Y-70260099D01*
X67642828Y-70378000D01*
X68247172Y-70378000D01*
X68839903Y-70260099D01*
X69398243Y-70028827D01*
X69900736Y-69693071D01*
X70328071Y-69265736D01*
X70663827Y-68763243D01*
X70895099Y-68204903D01*
X71013000Y-67612172D01*
X71013000Y-67007828D01*
X70895099Y-66415097D01*
X70663827Y-65856757D01*
X70328071Y-65354264D01*
X69900736Y-64926929D01*
X69398243Y-64591173D01*
X68839903Y-64359901D01*
X68247172Y-64242000D01*
X67642828Y-64242000D01*
X67050097Y-64359901D01*
X66491757Y-64591173D01*
X65989264Y-64926929D01*
X65561929Y-65354264D01*
X65226173Y-65856757D01*
X64994901Y-66415097D01*
X64877000Y-67007828D01*
X64834000Y-67007828D01*
X64834000Y-64199000D01*
X85026000Y-64199000D01*
X85026000Y-74747000D01*
G37*
X85026000Y-74747000D02*
X85009434Y-74747000D01*
X84851398Y-74778435D01*
X84702532Y-74840098D01*
X84568555Y-74929618D01*
X84454618Y-75043555D01*
X84403539Y-75120000D01*
X77491848Y-75120000D01*
X77469999Y-75117848D01*
X77448150Y-75120000D01*
X77448140Y-75120000D01*
X77382765Y-75126439D01*
X77298882Y-75151884D01*
X77221575Y-75193206D01*
X77153815Y-75248815D01*
X77139879Y-75265796D01*
X75900796Y-76504880D01*
X75883816Y-76518815D01*
X75828207Y-76586575D01*
X75786885Y-76663882D01*
X75761439Y-76747765D01*
X75752847Y-76835000D01*
X75755001Y-76856870D01*
X75755000Y-81639139D01*
X75752847Y-81661000D01*
X75755000Y-81682861D01*
X75755000Y-82571859D01*
X75755001Y-82571869D01*
X75755000Y-91418140D01*
X75755000Y-91799140D01*
X75752847Y-91821000D01*
X75755001Y-91842869D01*
X75755000Y-101578140D01*
X75755000Y-101959140D01*
X75752847Y-101981000D01*
X75755001Y-102002869D01*
X75755000Y-111738140D01*
X75752847Y-111760000D01*
X75755000Y-111781859D01*
X75761439Y-111847234D01*
X75786884Y-111931117D01*
X75828206Y-112008424D01*
X75883815Y-112076185D01*
X75900801Y-112090125D01*
X76250879Y-112440204D01*
X76264815Y-112457185D01*
X76332575Y-112512794D01*
X76409882Y-112554116D01*
X76493765Y-112579561D01*
X76559140Y-112586000D01*
X76559150Y-112586000D01*
X76580999Y-112588152D01*
X76602848Y-112586000D01*
X77792809Y-112586000D01*
X77801293Y-112598698D01*
X77901302Y-112698707D01*
X78018900Y-112777283D01*
X78149567Y-112831408D01*
X78288283Y-112859000D01*
X78429717Y-112859000D01*
X78568433Y-112831408D01*
X78699100Y-112777283D01*
X78816698Y-112698707D01*
X78916707Y-112598698D01*
X78995283Y-112481100D01*
X79049408Y-112350433D01*
X79077000Y-112211717D01*
X79077000Y-112070283D01*
X79049408Y-111931567D01*
X78995283Y-111800900D01*
X78916707Y-111683302D01*
X78816698Y-111583293D01*
X78699100Y-111504717D01*
X78568433Y-111450592D01*
X78429717Y-111423000D01*
X78288283Y-111423000D01*
X78149567Y-111450592D01*
X78018900Y-111504717D01*
X77901302Y-111583293D01*
X77801293Y-111683302D01*
X77792809Y-111696000D01*
X76765325Y-111696000D01*
X76645000Y-111575676D01*
X76645000Y-102426000D01*
X77792809Y-102426000D01*
X77801293Y-102438698D01*
X77901302Y-102538707D01*
X78018900Y-102617283D01*
X78149567Y-102671408D01*
X78288283Y-102699000D01*
X78429717Y-102699000D01*
X78568433Y-102671408D01*
X78699100Y-102617283D01*
X78816698Y-102538707D01*
X78916707Y-102438698D01*
X78995283Y-102321100D01*
X79049408Y-102190433D01*
X79077000Y-102051717D01*
X79077000Y-101910283D01*
X79049408Y-101771567D01*
X78995283Y-101640900D01*
X78916707Y-101523302D01*
X78816698Y-101423293D01*
X78699100Y-101344717D01*
X78568433Y-101290592D01*
X78429717Y-101263000D01*
X78288283Y-101263000D01*
X78149567Y-101290592D01*
X78018900Y-101344717D01*
X77901302Y-101423293D01*
X77801293Y-101523302D01*
X77792809Y-101536000D01*
X76645000Y-101536000D01*
X76645000Y-92266000D01*
X77792809Y-92266000D01*
X77801293Y-92278698D01*
X77901302Y-92378707D01*
X78018900Y-92457283D01*
X78149567Y-92511408D01*
X78288283Y-92539000D01*
X78429717Y-92539000D01*
X78568433Y-92511408D01*
X78699100Y-92457283D01*
X78816698Y-92378707D01*
X78916707Y-92278698D01*
X78995283Y-92161100D01*
X79049408Y-92030433D01*
X79077000Y-91891717D01*
X79077000Y-91750283D01*
X79049408Y-91611567D01*
X78995283Y-91480900D01*
X78916707Y-91363302D01*
X78816698Y-91263293D01*
X78699100Y-91184717D01*
X78568433Y-91130592D01*
X78429717Y-91103000D01*
X78288283Y-91103000D01*
X78149567Y-91130592D01*
X78018900Y-91184717D01*
X77901302Y-91263293D01*
X77801293Y-91363302D01*
X77792809Y-91376000D01*
X76645000Y-91376000D01*
X76645000Y-82106000D01*
X77792809Y-82106000D01*
X77801293Y-82118698D01*
X77901302Y-82218707D01*
X78018900Y-82297283D01*
X78149567Y-82351408D01*
X78288283Y-82379000D01*
X78429717Y-82379000D01*
X78568433Y-82351408D01*
X78699100Y-82297283D01*
X78816698Y-82218707D01*
X78916707Y-82118698D01*
X78995283Y-82001100D01*
X79049408Y-81870433D01*
X79077000Y-81731717D01*
X79077000Y-81590283D01*
X79049408Y-81451567D01*
X78995283Y-81320900D01*
X78916707Y-81203302D01*
X78816698Y-81103293D01*
X78699100Y-81024717D01*
X78568433Y-80970592D01*
X78429717Y-80943000D01*
X78288283Y-80943000D01*
X78149567Y-80970592D01*
X78018900Y-81024717D01*
X77901302Y-81103293D01*
X77801293Y-81203302D01*
X77792809Y-81216000D01*
X76645000Y-81216000D01*
X76645000Y-77019324D01*
X77654325Y-76010000D01*
X84403539Y-76010000D01*
X84454618Y-76086445D01*
X84568555Y-76200382D01*
X84702532Y-76289902D01*
X84851398Y-76351565D01*
X85009434Y-76383000D01*
X85026000Y-76383000D01*
X85026000Y-97790000D01*
X85027230Y-97802486D01*
X85030872Y-97814492D01*
X85036786Y-97825556D01*
X85044745Y-97835255D01*
X85054444Y-97843214D01*
X85065508Y-97849128D01*
X85077514Y-97852770D01*
X85090000Y-97854000D01*
X87566000Y-97854000D01*
X87566000Y-102806000D01*
X85090000Y-102806000D01*
X85077514Y-102807230D01*
X85065508Y-102810872D01*
X85054444Y-102816786D01*
X85044745Y-102824745D01*
X85036786Y-102834444D01*
X85030872Y-102845508D01*
X85027230Y-102857514D01*
X85026000Y-102870000D01*
X85026000Y-126301000D01*
X64834000Y-126301000D01*
X64834000Y-122887828D01*
X64877000Y-122887828D01*
X64877000Y-123492172D01*
X64994901Y-124084903D01*
X65226173Y-124643243D01*
X65561929Y-125145736D01*
X65989264Y-125573071D01*
X66491757Y-125908827D01*
X67050097Y-126140099D01*
X67642828Y-126258000D01*
X68247172Y-126258000D01*
X68839903Y-126140099D01*
X69398243Y-125908827D01*
X69900736Y-125573071D01*
X70328071Y-125145736D01*
X70663827Y-124643243D01*
X70895099Y-124084903D01*
X71013000Y-123492172D01*
X71013000Y-122887828D01*
X70895099Y-122295097D01*
X70663827Y-121736757D01*
X70328071Y-121234264D01*
X69900736Y-120806929D01*
X69398243Y-120471173D01*
X68839903Y-120239901D01*
X68247172Y-120122000D01*
X67642828Y-120122000D01*
X67050097Y-120239901D01*
X66491757Y-120471173D01*
X65989264Y-120806929D01*
X65561929Y-121234264D01*
X65226173Y-121736757D01*
X64994901Y-122295097D01*
X64877000Y-122887828D01*
X64834000Y-122887828D01*
X64834000Y-112395000D01*
X68996107Y-112395000D01*
X69019624Y-112633770D01*
X69089270Y-112863364D01*
X69202370Y-113074959D01*
X69354577Y-113260423D01*
X69540041Y-113412630D01*
X69751636Y-113525730D01*
X69981230Y-113595376D01*
X70160168Y-113613000D01*
X72079832Y-113613000D01*
X72258770Y-113595376D01*
X72488364Y-113525730D01*
X72699959Y-113412630D01*
X72885423Y-113260423D01*
X73037630Y-113074959D01*
X73150730Y-112863364D01*
X73220376Y-112633770D01*
X73243893Y-112395000D01*
X73220376Y-112156230D01*
X73150730Y-111926636D01*
X73037630Y-111715041D01*
X72885423Y-111529577D01*
X72699959Y-111377370D01*
X72488364Y-111264270D01*
X72258770Y-111194624D01*
X72079832Y-111177000D01*
X70160168Y-111177000D01*
X69981230Y-111194624D01*
X69751636Y-111264270D01*
X69540041Y-111377370D01*
X69354577Y-111529577D01*
X69202370Y-111715041D01*
X69089270Y-111926636D01*
X69019624Y-112156230D01*
X68996107Y-112395000D01*
X64834000Y-112395000D01*
X64834000Y-107935000D01*
X69000462Y-107935000D01*
X69000462Y-109235000D01*
X69011406Y-109346111D01*
X69043815Y-109452953D01*
X69096446Y-109551418D01*
X69167276Y-109637724D01*
X69253582Y-109708554D01*
X69352047Y-109761185D01*
X69458889Y-109793594D01*
X69570000Y-109804538D01*
X72670000Y-109804538D01*
X72781111Y-109793594D01*
X72887953Y-109761185D01*
X72986418Y-109708554D01*
X73072724Y-109637724D01*
X73143554Y-109551418D01*
X73196185Y-109452953D01*
X73228594Y-109346111D01*
X73239538Y-109235000D01*
X73239538Y-107935000D01*
X73228594Y-107823889D01*
X73196185Y-107717047D01*
X73143554Y-107618582D01*
X73072724Y-107532276D01*
X72986418Y-107461446D01*
X72887953Y-107408815D01*
X72781111Y-107376406D01*
X72670000Y-107365462D01*
X69570000Y-107365462D01*
X69458889Y-107376406D01*
X69352047Y-107408815D01*
X69253582Y-107461446D01*
X69167276Y-107532276D01*
X69096446Y-107618582D01*
X69043815Y-107717047D01*
X69011406Y-107823889D01*
X69000462Y-107935000D01*
X64834000Y-107935000D01*
X64834000Y-102235000D01*
X68996107Y-102235000D01*
X69019624Y-102473770D01*
X69089270Y-102703364D01*
X69202370Y-102914959D01*
X69354577Y-103100423D01*
X69540041Y-103252630D01*
X69751636Y-103365730D01*
X69981230Y-103435376D01*
X70160168Y-103453000D01*
X72079832Y-103453000D01*
X72258770Y-103435376D01*
X72488364Y-103365730D01*
X72699959Y-103252630D01*
X72885423Y-103100423D01*
X73037630Y-102914959D01*
X73150730Y-102703364D01*
X73220376Y-102473770D01*
X73243893Y-102235000D01*
X73220376Y-101996230D01*
X73150730Y-101766636D01*
X73037630Y-101555041D01*
X72885423Y-101369577D01*
X72699959Y-101217370D01*
X72488364Y-101104270D01*
X72258770Y-101034624D01*
X72079832Y-101017000D01*
X70160168Y-101017000D01*
X69981230Y-101034624D01*
X69751636Y-101104270D01*
X69540041Y-101217370D01*
X69354577Y-101369577D01*
X69202370Y-101555041D01*
X69089270Y-101766636D01*
X69019624Y-101996230D01*
X68996107Y-102235000D01*
X64834000Y-102235000D01*
X64834000Y-97775000D01*
X69000462Y-97775000D01*
X69000462Y-99075000D01*
X69011406Y-99186111D01*
X69043815Y-99292953D01*
X69096446Y-99391418D01*
X69167276Y-99477724D01*
X69253582Y-99548554D01*
X69352047Y-99601185D01*
X69458889Y-99633594D01*
X69570000Y-99644538D01*
X72670000Y-99644538D01*
X72781111Y-99633594D01*
X72887953Y-99601185D01*
X72986418Y-99548554D01*
X73072724Y-99477724D01*
X73143554Y-99391418D01*
X73196185Y-99292953D01*
X73228594Y-99186111D01*
X73239538Y-99075000D01*
X73239538Y-97775000D01*
X73228594Y-97663889D01*
X73196185Y-97557047D01*
X73143554Y-97458582D01*
X73072724Y-97372276D01*
X72986418Y-97301446D01*
X72887953Y-97248815D01*
X72781111Y-97216406D01*
X72670000Y-97205462D01*
X69570000Y-97205462D01*
X69458889Y-97216406D01*
X69352047Y-97248815D01*
X69253582Y-97301446D01*
X69167276Y-97372276D01*
X69096446Y-97458582D01*
X69043815Y-97557047D01*
X69011406Y-97663889D01*
X69000462Y-97775000D01*
X64834000Y-97775000D01*
X64834000Y-92075000D01*
X68996107Y-92075000D01*
X69019624Y-92313770D01*
X69089270Y-92543364D01*
X69202370Y-92754959D01*
X69354577Y-92940423D01*
X69540041Y-93092630D01*
X69751636Y-93205730D01*
X69981230Y-93275376D01*
X70160168Y-93293000D01*
X72079832Y-93293000D01*
X72258770Y-93275376D01*
X72488364Y-93205730D01*
X72699959Y-93092630D01*
X72885423Y-92940423D01*
X73037630Y-92754959D01*
X73150730Y-92543364D01*
X73220376Y-92313770D01*
X73243893Y-92075000D01*
X73220376Y-91836230D01*
X73150730Y-91606636D01*
X73037630Y-91395041D01*
X72885423Y-91209577D01*
X72699959Y-91057370D01*
X72488364Y-90944270D01*
X72258770Y-90874624D01*
X72079832Y-90857000D01*
X70160168Y-90857000D01*
X69981230Y-90874624D01*
X69751636Y-90944270D01*
X69540041Y-91057370D01*
X69354577Y-91209577D01*
X69202370Y-91395041D01*
X69089270Y-91606636D01*
X69019624Y-91836230D01*
X68996107Y-92075000D01*
X64834000Y-92075000D01*
X64834000Y-87615000D01*
X69000462Y-87615000D01*
X69000462Y-88915000D01*
X69011406Y-89026111D01*
X69043815Y-89132953D01*
X69096446Y-89231418D01*
X69167276Y-89317724D01*
X69253582Y-89388554D01*
X69352047Y-89441185D01*
X69458889Y-89473594D01*
X69570000Y-89484538D01*
X72670000Y-89484538D01*
X72781111Y-89473594D01*
X72887953Y-89441185D01*
X72986418Y-89388554D01*
X73072724Y-89317724D01*
X73143554Y-89231418D01*
X73196185Y-89132953D01*
X73228594Y-89026111D01*
X73239538Y-88915000D01*
X73239538Y-87615000D01*
X73228594Y-87503889D01*
X73196185Y-87397047D01*
X73143554Y-87298582D01*
X73072724Y-87212276D01*
X72986418Y-87141446D01*
X72887953Y-87088815D01*
X72781111Y-87056406D01*
X72670000Y-87045462D01*
X69570000Y-87045462D01*
X69458889Y-87056406D01*
X69352047Y-87088815D01*
X69253582Y-87141446D01*
X69167276Y-87212276D01*
X69096446Y-87298582D01*
X69043815Y-87397047D01*
X69011406Y-87503889D01*
X69000462Y-87615000D01*
X64834000Y-87615000D01*
X64834000Y-81915000D01*
X68996107Y-81915000D01*
X69019624Y-82153770D01*
X69089270Y-82383364D01*
X69202370Y-82594959D01*
X69354577Y-82780423D01*
X69540041Y-82932630D01*
X69751636Y-83045730D01*
X69981230Y-83115376D01*
X70160168Y-83133000D01*
X72079832Y-83133000D01*
X72258770Y-83115376D01*
X72488364Y-83045730D01*
X72699959Y-82932630D01*
X72885423Y-82780423D01*
X73037630Y-82594959D01*
X73150730Y-82383364D01*
X73220376Y-82153770D01*
X73243893Y-81915000D01*
X73220376Y-81676230D01*
X73150730Y-81446636D01*
X73037630Y-81235041D01*
X72885423Y-81049577D01*
X72699959Y-80897370D01*
X72488364Y-80784270D01*
X72258770Y-80714624D01*
X72079832Y-80697000D01*
X70160168Y-80697000D01*
X69981230Y-80714624D01*
X69751636Y-80784270D01*
X69540041Y-80897370D01*
X69354577Y-81049577D01*
X69202370Y-81235041D01*
X69089270Y-81446636D01*
X69019624Y-81676230D01*
X68996107Y-81915000D01*
X64834000Y-81915000D01*
X64834000Y-77455000D01*
X69000462Y-77455000D01*
X69000462Y-78755000D01*
X69011406Y-78866111D01*
X69043815Y-78972953D01*
X69096446Y-79071418D01*
X69167276Y-79157724D01*
X69253582Y-79228554D01*
X69352047Y-79281185D01*
X69458889Y-79313594D01*
X69570000Y-79324538D01*
X72670000Y-79324538D01*
X72781111Y-79313594D01*
X72887953Y-79281185D01*
X72986418Y-79228554D01*
X73072724Y-79157724D01*
X73143554Y-79071418D01*
X73196185Y-78972953D01*
X73228594Y-78866111D01*
X73239538Y-78755000D01*
X73239538Y-77455000D01*
X73228594Y-77343889D01*
X73196185Y-77237047D01*
X73143554Y-77138582D01*
X73072724Y-77052276D01*
X72986418Y-76981446D01*
X72887953Y-76928815D01*
X72781111Y-76896406D01*
X72670000Y-76885462D01*
X69570000Y-76885462D01*
X69458889Y-76896406D01*
X69352047Y-76928815D01*
X69253582Y-76981446D01*
X69167276Y-77052276D01*
X69096446Y-77138582D01*
X69043815Y-77237047D01*
X69011406Y-77343889D01*
X69000462Y-77455000D01*
X64834000Y-77455000D01*
X64834000Y-67007828D01*
X64877000Y-67007828D01*
X64877000Y-67612172D01*
X64994901Y-68204903D01*
X65226173Y-68763243D01*
X65561929Y-69265736D01*
X65989264Y-69693071D01*
X66491757Y-70028827D01*
X67050097Y-70260099D01*
X67642828Y-70378000D01*
X68247172Y-70378000D01*
X68839903Y-70260099D01*
X69398243Y-70028827D01*
X69900736Y-69693071D01*
X70328071Y-69265736D01*
X70663827Y-68763243D01*
X70895099Y-68204903D01*
X71013000Y-67612172D01*
X71013000Y-67007828D01*
X70895099Y-66415097D01*
X70663827Y-65856757D01*
X70328071Y-65354264D01*
X69900736Y-64926929D01*
X69398243Y-64591173D01*
X68839903Y-64359901D01*
X68247172Y-64242000D01*
X67642828Y-64242000D01*
X67050097Y-64359901D01*
X66491757Y-64591173D01*
X65989264Y-64926929D01*
X65561929Y-65354264D01*
X65226173Y-65856757D01*
X64994901Y-66415097D01*
X64877000Y-67007828D01*
X64834000Y-67007828D01*
X64834000Y-64199000D01*
X85026000Y-64199000D01*
X85026000Y-74747000D01*
G36*
X126936000Y-126301000D02*
G01*
X97014655Y-126301000D01*
X97062224Y-126212003D01*
X97114717Y-126038959D01*
X97128000Y-125904091D01*
X97128000Y-125113909D01*
X97114717Y-124979041D01*
X97062224Y-124805997D01*
X96976982Y-124646519D01*
X96862264Y-124506736D01*
X96722480Y-124392018D01*
X96563002Y-124306776D01*
X96389958Y-124254283D01*
X96210000Y-124236559D01*
X96030041Y-124254283D01*
X95856997Y-124306776D01*
X95697519Y-124392018D01*
X95557736Y-124506736D01*
X95443018Y-124646520D01*
X95357776Y-124805998D01*
X95305283Y-124979042D01*
X95292000Y-125113910D01*
X95292000Y-125904091D01*
X95305283Y-126038959D01*
X95357777Y-126212003D01*
X95405346Y-126301000D01*
X90014655Y-126301000D01*
X90062224Y-126212003D01*
X90114717Y-126038959D01*
X90128000Y-125904091D01*
X90128000Y-125113909D01*
X90114717Y-124979041D01*
X90062224Y-124805997D01*
X89976982Y-124646519D01*
X89862264Y-124506736D01*
X89722481Y-124392018D01*
X89563003Y-124306776D01*
X89389959Y-124254283D01*
X89210000Y-124236559D01*
X89030042Y-124254283D01*
X88856998Y-124306776D01*
X88697520Y-124392018D01*
X88557737Y-124506736D01*
X88443019Y-124646519D01*
X88357777Y-124805997D01*
X88305283Y-124979041D01*
X88292000Y-125113909D01*
X88292000Y-125904090D01*
X88305283Y-126038958D01*
X88357776Y-126212002D01*
X88405346Y-126301000D01*
X85789000Y-126301000D01*
X85789000Y-122706273D01*
X89167000Y-122706273D01*
X89167000Y-122911727D01*
X89207082Y-123113232D01*
X89285705Y-123303046D01*
X89399849Y-123473874D01*
X89545126Y-123619151D01*
X89715954Y-123733295D01*
X89905768Y-123811918D01*
X90107273Y-123852000D01*
X90312727Y-123852000D01*
X90514232Y-123811918D01*
X90704046Y-123733295D01*
X90874874Y-123619151D01*
X91020151Y-123473874D01*
X91134295Y-123303046D01*
X91212918Y-123113232D01*
X91253000Y-122911727D01*
X91253000Y-122706273D01*
X94167000Y-122706273D01*
X94167000Y-122911727D01*
X94207082Y-123113232D01*
X94285705Y-123303046D01*
X94399849Y-123473874D01*
X94545126Y-123619151D01*
X94715954Y-123733295D01*
X94905768Y-123811918D01*
X95107273Y-123852000D01*
X95312727Y-123852000D01*
X95514232Y-123811918D01*
X95704046Y-123733295D01*
X95874874Y-123619151D01*
X95884025Y-123610000D01*
X97890462Y-123610000D01*
X97890462Y-125310000D01*
X97896602Y-125372339D01*
X97914785Y-125432282D01*
X97944314Y-125487526D01*
X97984053Y-125535947D01*
X98032474Y-125575686D01*
X98087718Y-125605215D01*
X98147661Y-125623398D01*
X98210000Y-125629538D01*
X99910000Y-125629538D01*
X99972339Y-125623398D01*
X100032282Y-125605215D01*
X100087526Y-125575686D01*
X100135947Y-125535947D01*
X100175686Y-125487526D01*
X100205215Y-125432282D01*
X100223398Y-125372339D01*
X100229538Y-125310000D01*
X100229538Y-124344962D01*
X100432000Y-124344962D01*
X100432000Y-124575038D01*
X100476886Y-124800693D01*
X100564932Y-125013255D01*
X100692756Y-125204556D01*
X100855444Y-125367244D01*
X101046745Y-125495068D01*
X101259307Y-125583114D01*
X101484962Y-125628000D01*
X101715038Y-125628000D01*
X101940693Y-125583114D01*
X102153255Y-125495068D01*
X102344556Y-125367244D01*
X102507244Y-125204556D01*
X102635068Y-125013255D01*
X102723114Y-124800693D01*
X102768000Y-124575038D01*
X102768000Y-124344962D01*
X102972000Y-124344962D01*
X102972000Y-124575038D01*
X103016886Y-124800693D01*
X103104932Y-125013255D01*
X103232756Y-125204556D01*
X103395444Y-125367244D01*
X103586745Y-125495068D01*
X103799307Y-125583114D01*
X104024962Y-125628000D01*
X104255038Y-125628000D01*
X104480693Y-125583114D01*
X104693255Y-125495068D01*
X104884556Y-125367244D01*
X105047244Y-125204556D01*
X105175068Y-125013255D01*
X105263114Y-124800693D01*
X105308000Y-124575038D01*
X105308000Y-124344962D01*
X105512000Y-124344962D01*
X105512000Y-124575038D01*
X105556886Y-124800693D01*
X105644932Y-125013255D01*
X105772756Y-125204556D01*
X105935444Y-125367244D01*
X106126745Y-125495068D01*
X106339307Y-125583114D01*
X106564962Y-125628000D01*
X106795038Y-125628000D01*
X107020693Y-125583114D01*
X107233255Y-125495068D01*
X107424556Y-125367244D01*
X107587244Y-125204556D01*
X107715068Y-125013255D01*
X107803114Y-124800693D01*
X107848000Y-124575038D01*
X107848000Y-124344962D01*
X108052000Y-124344962D01*
X108052000Y-124575038D01*
X108096886Y-124800693D01*
X108184932Y-125013255D01*
X108312756Y-125204556D01*
X108475444Y-125367244D01*
X108666745Y-125495068D01*
X108879307Y-125583114D01*
X109104962Y-125628000D01*
X109335038Y-125628000D01*
X109560693Y-125583114D01*
X109773255Y-125495068D01*
X109964556Y-125367244D01*
X110127244Y-125204556D01*
X110255068Y-125013255D01*
X110343114Y-124800693D01*
X110388000Y-124575038D01*
X110388000Y-124344962D01*
X110592000Y-124344962D01*
X110592000Y-124575038D01*
X110636886Y-124800693D01*
X110724932Y-125013255D01*
X110852756Y-125204556D01*
X111015444Y-125367244D01*
X111206745Y-125495068D01*
X111419307Y-125583114D01*
X111644962Y-125628000D01*
X111875038Y-125628000D01*
X112100693Y-125583114D01*
X112313255Y-125495068D01*
X112504556Y-125367244D01*
X112667244Y-125204556D01*
X112795068Y-125013255D01*
X112883114Y-124800693D01*
X112928000Y-124575038D01*
X112928000Y-124344962D01*
X113132000Y-124344962D01*
X113132000Y-124575038D01*
X113176886Y-124800693D01*
X113264932Y-125013255D01*
X113392756Y-125204556D01*
X113555444Y-125367244D01*
X113746745Y-125495068D01*
X113959307Y-125583114D01*
X114184962Y-125628000D01*
X114415038Y-125628000D01*
X114640693Y-125583114D01*
X114853255Y-125495068D01*
X115044556Y-125367244D01*
X115207244Y-125204556D01*
X115335068Y-125013255D01*
X115423114Y-124800693D01*
X115442213Y-124704674D01*
X115697911Y-124704674D01*
X115767589Y-124922783D01*
X115878480Y-125123108D01*
X116026321Y-125297950D01*
X116205432Y-125440590D01*
X116408929Y-125545546D01*
X116595326Y-125602086D01*
X116777000Y-125546675D01*
X116777000Y-124523000D01*
X116903000Y-124523000D01*
X116903000Y-125546675D01*
X117084674Y-125602086D01*
X117271071Y-125545546D01*
X117474568Y-125440590D01*
X117653679Y-125297950D01*
X117801520Y-125123108D01*
X117912411Y-124922783D01*
X117982089Y-124704674D01*
X117926803Y-124523000D01*
X116903000Y-124523000D01*
X116777000Y-124523000D01*
X115753197Y-124523000D01*
X115697911Y-124704674D01*
X115442213Y-124704674D01*
X115468000Y-124575038D01*
X115468000Y-124344962D01*
X115442214Y-124215326D01*
X115697911Y-124215326D01*
X115753197Y-124397000D01*
X116777000Y-124397000D01*
X116777000Y-123373325D01*
X116903000Y-123373325D01*
X116903000Y-124397000D01*
X117926803Y-124397000D01*
X117982089Y-124215326D01*
X117912411Y-123997217D01*
X117801520Y-123796892D01*
X117653679Y-123622050D01*
X117474568Y-123479410D01*
X117271071Y-123374454D01*
X117084674Y-123317914D01*
X116903000Y-123373325D01*
X116777000Y-123373325D01*
X116595326Y-123317914D01*
X116408929Y-123374454D01*
X116205432Y-123479410D01*
X116026321Y-123622050D01*
X115878480Y-123796892D01*
X115767589Y-123997217D01*
X115697911Y-124215326D01*
X115442214Y-124215326D01*
X115423114Y-124119307D01*
X115335068Y-123906745D01*
X115207244Y-123715444D01*
X115044556Y-123552756D01*
X114853255Y-123424932D01*
X114640693Y-123336886D01*
X114415038Y-123292000D01*
X114184962Y-123292000D01*
X113959307Y-123336886D01*
X113746745Y-123424932D01*
X113555444Y-123552756D01*
X113392756Y-123715444D01*
X113264932Y-123906745D01*
X113176886Y-124119307D01*
X113132000Y-124344962D01*
X112928000Y-124344962D01*
X112883114Y-124119307D01*
X112795068Y-123906745D01*
X112667244Y-123715444D01*
X112504556Y-123552756D01*
X112313255Y-123424932D01*
X112100693Y-123336886D01*
X111875038Y-123292000D01*
X111644962Y-123292000D01*
X111419307Y-123336886D01*
X111206745Y-123424932D01*
X111015444Y-123552756D01*
X110852756Y-123715444D01*
X110724932Y-123906745D01*
X110636886Y-124119307D01*
X110592000Y-124344962D01*
X110388000Y-124344962D01*
X110343114Y-124119307D01*
X110255068Y-123906745D01*
X110127244Y-123715444D01*
X109964556Y-123552756D01*
X109773255Y-123424932D01*
X109560693Y-123336886D01*
X109335038Y-123292000D01*
X109104962Y-123292000D01*
X108879307Y-123336886D01*
X108666745Y-123424932D01*
X108475444Y-123552756D01*
X108312756Y-123715444D01*
X108184932Y-123906745D01*
X108096886Y-124119307D01*
X108052000Y-124344962D01*
X107848000Y-124344962D01*
X107803114Y-124119307D01*
X107715068Y-123906745D01*
X107587244Y-123715444D01*
X107424556Y-123552756D01*
X107233255Y-123424932D01*
X107020693Y-123336886D01*
X106795038Y-123292000D01*
X106564962Y-123292000D01*
X106339307Y-123336886D01*
X106126745Y-123424932D01*
X105935444Y-123552756D01*
X105772756Y-123715444D01*
X105644932Y-123906745D01*
X105556886Y-124119307D01*
X105512000Y-124344962D01*
X105308000Y-124344962D01*
X105263114Y-124119307D01*
X105175068Y-123906745D01*
X105047244Y-123715444D01*
X104884556Y-123552756D01*
X104693255Y-123424932D01*
X104480693Y-123336886D01*
X104255038Y-123292000D01*
X104024962Y-123292000D01*
X103799307Y-123336886D01*
X103586745Y-123424932D01*
X103395444Y-123552756D01*
X103232756Y-123715444D01*
X103104932Y-123906745D01*
X103016886Y-124119307D01*
X102972000Y-124344962D01*
X102768000Y-124344962D01*
X102723114Y-124119307D01*
X102635068Y-123906745D01*
X102507244Y-123715444D01*
X102344556Y-123552756D01*
X102153255Y-123424932D01*
X101940693Y-123336886D01*
X101715038Y-123292000D01*
X101484962Y-123292000D01*
X101259307Y-123336886D01*
X101046745Y-123424932D01*
X100855444Y-123552756D01*
X100692756Y-123715444D01*
X100564932Y-123906745D01*
X100476886Y-124119307D01*
X100432000Y-124344962D01*
X100229538Y-124344962D01*
X100229538Y-123610000D01*
X100223398Y-123547661D01*
X100205215Y-123487718D01*
X100175686Y-123432474D01*
X100135947Y-123384053D01*
X100087526Y-123344314D01*
X100032282Y-123314785D01*
X99972339Y-123296602D01*
X99910000Y-123290462D01*
X98210000Y-123290462D01*
X98147661Y-123296602D01*
X98087718Y-123314785D01*
X98032474Y-123344314D01*
X97984053Y-123384053D01*
X97944314Y-123432474D01*
X97914785Y-123487718D01*
X97896602Y-123547661D01*
X97890462Y-123610000D01*
X95884025Y-123610000D01*
X96020151Y-123473874D01*
X96134295Y-123303046D01*
X96212918Y-123113232D01*
X96253000Y-122911727D01*
X96253000Y-122887828D01*
X120757000Y-122887828D01*
X120757000Y-123492172D01*
X120874901Y-124084903D01*
X121106173Y-124643243D01*
X121441929Y-125145736D01*
X121869264Y-125573071D01*
X122371757Y-125908827D01*
X122930097Y-126140099D01*
X123522828Y-126258000D01*
X124127172Y-126258000D01*
X124719903Y-126140099D01*
X125278243Y-125908827D01*
X125780736Y-125573071D01*
X126208071Y-125145736D01*
X126543827Y-124643243D01*
X126775099Y-124084903D01*
X126893000Y-123492172D01*
X126893000Y-122887828D01*
X126775099Y-122295097D01*
X126543827Y-121736757D01*
X126208071Y-121234264D01*
X125780736Y-120806929D01*
X125278243Y-120471173D01*
X124719903Y-120239901D01*
X124127172Y-120122000D01*
X123522828Y-120122000D01*
X122930097Y-120239901D01*
X122371757Y-120471173D01*
X121869264Y-120806929D01*
X121441929Y-121234264D01*
X121106173Y-121736757D01*
X120874901Y-122295097D01*
X120757000Y-122887828D01*
X96253000Y-122887828D01*
X96253000Y-122706273D01*
X96212918Y-122504768D01*
X96134295Y-122314954D01*
X96020151Y-122144126D01*
X95874874Y-121998849D01*
X95704046Y-121884705D01*
X95514232Y-121806082D01*
X95312727Y-121766000D01*
X95107273Y-121766000D01*
X94905768Y-121806082D01*
X94715954Y-121884705D01*
X94545126Y-121998849D01*
X94399849Y-122144126D01*
X94285705Y-122314954D01*
X94207082Y-122504768D01*
X94167000Y-122706273D01*
X91253000Y-122706273D01*
X91212918Y-122504768D01*
X91134295Y-122314954D01*
X91020151Y-122144126D01*
X90874874Y-121998849D01*
X90704046Y-121884705D01*
X90514232Y-121806082D01*
X90312727Y-121766000D01*
X90107273Y-121766000D01*
X89905768Y-121806082D01*
X89715954Y-121884705D01*
X89545126Y-121998849D01*
X89399849Y-122144126D01*
X89285705Y-122314954D01*
X89207082Y-122504768D01*
X89167000Y-122706273D01*
X85789000Y-122706273D01*
X85789000Y-107879283D01*
X90722000Y-107879283D01*
X90722000Y-108020717D01*
X90749592Y-108159433D01*
X90803717Y-108290100D01*
X90868001Y-108386308D01*
X90868000Y-111096909D01*
X90865233Y-111125000D01*
X90868000Y-111153091D01*
X90868000Y-111153093D01*
X90876277Y-111237130D01*
X90908985Y-111344953D01*
X90962099Y-111444322D01*
X91033578Y-111531422D01*
X91055408Y-111549337D01*
X95313001Y-115806931D01*
X95313000Y-118081906D01*
X95313000Y-118308693D01*
X95248717Y-118404900D01*
X95194592Y-118535567D01*
X95167000Y-118674283D01*
X95167000Y-118815717D01*
X95194592Y-118954433D01*
X95248717Y-119085100D01*
X95327293Y-119202698D01*
X95427302Y-119302707D01*
X95544900Y-119381283D01*
X95675567Y-119435408D01*
X95814283Y-119463000D01*
X95955717Y-119463000D01*
X96094433Y-119435408D01*
X96225100Y-119381283D01*
X96342698Y-119302707D01*
X96442707Y-119202698D01*
X96521283Y-119085100D01*
X96575408Y-118954433D01*
X96603000Y-118815717D01*
X96603000Y-118674283D01*
X96575408Y-118535567D01*
X96521283Y-118404900D01*
X96457000Y-118308693D01*
X96457000Y-115598090D01*
X96459767Y-115569999D01*
X96457000Y-115541906D01*
X96448723Y-115457869D01*
X96416015Y-115350046D01*
X96362901Y-115250677D01*
X96291422Y-115163578D01*
X96269597Y-115145667D01*
X92493604Y-111369674D01*
X115697914Y-111369674D01*
X115754454Y-111556071D01*
X115859410Y-111759568D01*
X116002050Y-111938679D01*
X116176892Y-112086520D01*
X116377217Y-112197411D01*
X116595326Y-112267089D01*
X116777000Y-112211803D01*
X116777000Y-111188000D01*
X116903000Y-111188000D01*
X116903000Y-112211803D01*
X117084674Y-112267089D01*
X117302783Y-112197411D01*
X117503108Y-112086520D01*
X117677950Y-111938679D01*
X117820590Y-111759568D01*
X117925546Y-111556071D01*
X117982086Y-111369674D01*
X117926675Y-111188000D01*
X116903000Y-111188000D01*
X116777000Y-111188000D01*
X115753325Y-111188000D01*
X115697914Y-111369674D01*
X92493604Y-111369674D01*
X92012000Y-110888071D01*
X92012000Y-110880326D01*
X115697914Y-110880326D01*
X115753325Y-111062000D01*
X116777000Y-111062000D01*
X116777000Y-110038197D01*
X116903000Y-110038197D01*
X116903000Y-111062000D01*
X117926675Y-111062000D01*
X117982086Y-110880326D01*
X117925546Y-110693929D01*
X117820590Y-110490432D01*
X117677950Y-110311321D01*
X117503108Y-110163480D01*
X117302783Y-110052589D01*
X117084674Y-109982911D01*
X116903000Y-110038197D01*
X116777000Y-110038197D01*
X116595326Y-109982911D01*
X116377217Y-110052589D01*
X116176892Y-110163480D01*
X116002050Y-110311321D01*
X115859410Y-110490432D01*
X115754454Y-110693929D01*
X115697914Y-110880326D01*
X92012000Y-110880326D01*
X92012000Y-108469962D01*
X115672000Y-108469962D01*
X115672000Y-108700038D01*
X115716886Y-108925693D01*
X115804932Y-109138255D01*
X115932756Y-109329556D01*
X116095444Y-109492244D01*
X116286745Y-109620068D01*
X116499307Y-109708114D01*
X116724962Y-109753000D01*
X116955038Y-109753000D01*
X117180693Y-109708114D01*
X117393255Y-109620068D01*
X117584556Y-109492244D01*
X117747244Y-109329556D01*
X117875068Y-109138255D01*
X117963114Y-108925693D01*
X118008000Y-108700038D01*
X118008000Y-108469962D01*
X117963114Y-108244307D01*
X117875068Y-108031745D01*
X117747244Y-107840444D01*
X117584556Y-107677756D01*
X117393255Y-107549932D01*
X117180693Y-107461886D01*
X116955038Y-107417000D01*
X116724962Y-107417000D01*
X116499307Y-107461886D01*
X116286745Y-107549932D01*
X116095444Y-107677756D01*
X115932756Y-107840444D01*
X115804932Y-108031745D01*
X115716886Y-108244307D01*
X115672000Y-108469962D01*
X92012000Y-108469962D01*
X92012000Y-108386307D01*
X92076283Y-108290100D01*
X92130408Y-108159433D01*
X92158000Y-108020717D01*
X92158000Y-107879283D01*
X92130408Y-107740567D01*
X92076283Y-107609900D01*
X91997707Y-107492302D01*
X91897698Y-107392293D01*
X91780100Y-107313717D01*
X91649433Y-107259592D01*
X91510717Y-107232000D01*
X91369283Y-107232000D01*
X91230567Y-107259592D01*
X91099900Y-107313717D01*
X90982302Y-107392293D01*
X90882293Y-107492302D01*
X90803717Y-107609900D01*
X90749592Y-107740567D01*
X90722000Y-107879283D01*
X85789000Y-107879283D01*
X85789000Y-105929962D01*
X115672000Y-105929962D01*
X115672000Y-106160038D01*
X115716886Y-106385693D01*
X115804932Y-106598255D01*
X115932756Y-106789556D01*
X116095444Y-106952244D01*
X116286745Y-107080068D01*
X116499307Y-107168114D01*
X116724962Y-107213000D01*
X116955038Y-107213000D01*
X117180693Y-107168114D01*
X117393255Y-107080068D01*
X117584556Y-106952244D01*
X117747244Y-106789556D01*
X117875068Y-106598255D01*
X117963114Y-106385693D01*
X118008000Y-106160038D01*
X118008000Y-105929962D01*
X117963114Y-105704307D01*
X117875068Y-105491745D01*
X117747244Y-105300444D01*
X117584556Y-105137756D01*
X117393255Y-105009932D01*
X117180693Y-104921886D01*
X116955038Y-104877000D01*
X116724962Y-104877000D01*
X116499307Y-104921886D01*
X116286745Y-105009932D01*
X116095444Y-105137756D01*
X115932756Y-105300444D01*
X115804932Y-105491745D01*
X115716886Y-105704307D01*
X115672000Y-105929962D01*
X85789000Y-105929962D01*
X85789000Y-103569000D01*
X88265000Y-103569000D01*
X88277486Y-103567770D01*
X88289492Y-103564128D01*
X88300556Y-103558214D01*
X88310255Y-103550255D01*
X88318214Y-103540556D01*
X88324128Y-103529492D01*
X88327770Y-103517486D01*
X88329000Y-103505000D01*
X88329000Y-103389962D01*
X115672000Y-103389962D01*
X115672000Y-103620038D01*
X115716886Y-103845693D01*
X115804932Y-104058255D01*
X115932756Y-104249556D01*
X116095444Y-104412244D01*
X116286745Y-104540068D01*
X116499307Y-104628114D01*
X116724962Y-104673000D01*
X116955038Y-104673000D01*
X117180693Y-104628114D01*
X117393255Y-104540068D01*
X117584556Y-104412244D01*
X117747244Y-104249556D01*
X117875068Y-104058255D01*
X117963114Y-103845693D01*
X118008000Y-103620038D01*
X118008000Y-103389962D01*
X117963114Y-103164307D01*
X117875068Y-102951745D01*
X117747244Y-102760444D01*
X117584556Y-102597756D01*
X117393255Y-102469932D01*
X117180693Y-102381886D01*
X116955038Y-102337000D01*
X116724962Y-102337000D01*
X116499307Y-102381886D01*
X116286745Y-102469932D01*
X116095444Y-102597756D01*
X115932756Y-102760444D01*
X115804932Y-102951745D01*
X115716886Y-103164307D01*
X115672000Y-103389962D01*
X88329000Y-103389962D01*
X88329000Y-97155000D01*
X88327770Y-97142514D01*
X88324128Y-97130508D01*
X88318214Y-97119444D01*
X88310255Y-97109745D01*
X88300556Y-97101786D01*
X88289492Y-97095872D01*
X88277486Y-97092230D01*
X88265000Y-97091000D01*
X85789000Y-97091000D01*
X85789000Y-95804434D01*
X95702000Y-95804434D01*
X95702000Y-95965566D01*
X95733435Y-96123602D01*
X95795098Y-96272468D01*
X95884618Y-96406445D01*
X95948001Y-96469828D01*
X95948000Y-101650173D01*
X95884618Y-101713555D01*
X95795098Y-101847532D01*
X95733435Y-101996398D01*
X95702000Y-102154434D01*
X95702000Y-102315566D01*
X95733435Y-102473602D01*
X95795098Y-102622468D01*
X95884618Y-102756445D01*
X95998555Y-102870382D01*
X96132532Y-102959902D01*
X96281398Y-103021565D01*
X96439434Y-103053000D01*
X96600566Y-103053000D01*
X96758602Y-103021565D01*
X96907468Y-102959902D01*
X97041445Y-102870382D01*
X97155382Y-102756445D01*
X97244902Y-102622468D01*
X97306565Y-102473602D01*
X97338000Y-102315566D01*
X97338000Y-102154434D01*
X97306565Y-101996398D01*
X97244902Y-101847532D01*
X97155382Y-101713555D01*
X97092000Y-101650173D01*
X97092000Y-100115000D01*
X115670462Y-100115000D01*
X115670462Y-101815000D01*
X115676602Y-101877339D01*
X115694785Y-101937282D01*
X115724314Y-101992526D01*
X115764053Y-102040947D01*
X115812474Y-102080686D01*
X115867718Y-102110215D01*
X115927661Y-102128398D01*
X115990000Y-102134538D01*
X117690000Y-102134538D01*
X117752339Y-102128398D01*
X117812282Y-102110215D01*
X117867526Y-102080686D01*
X117915947Y-102040947D01*
X117955686Y-101992526D01*
X117985215Y-101937282D01*
X118003398Y-101877339D01*
X118009538Y-101815000D01*
X118009538Y-100115000D01*
X118003398Y-100052661D01*
X117985215Y-99992718D01*
X117955686Y-99937474D01*
X117915947Y-99889053D01*
X117867526Y-99849314D01*
X117812282Y-99819785D01*
X117752339Y-99801602D01*
X117690000Y-99795462D01*
X115990000Y-99795462D01*
X115927661Y-99801602D01*
X115867718Y-99819785D01*
X115812474Y-99849314D01*
X115764053Y-99889053D01*
X115724314Y-99937474D01*
X115694785Y-99992718D01*
X115676602Y-100052661D01*
X115670462Y-100115000D01*
X97092000Y-100115000D01*
X97092000Y-96469827D01*
X97155382Y-96406445D01*
X97244902Y-96272468D01*
X97306565Y-96123602D01*
X97338000Y-95965566D01*
X97338000Y-95804434D01*
X97306565Y-95646398D01*
X97244902Y-95497532D01*
X97155382Y-95363555D01*
X97041445Y-95249618D01*
X96907468Y-95160098D01*
X96758602Y-95098435D01*
X96600566Y-95067000D01*
X96439434Y-95067000D01*
X96281398Y-95098435D01*
X96132532Y-95160098D01*
X95998555Y-95249618D01*
X95884618Y-95363555D01*
X95795098Y-95497532D01*
X95733435Y-95646398D01*
X95702000Y-95804434D01*
X85789000Y-95804434D01*
X85789000Y-94505000D01*
X86560461Y-94505000D01*
X86566601Y-94567339D01*
X86584784Y-94627282D01*
X86614313Y-94682526D01*
X86654052Y-94730948D01*
X86702474Y-94770687D01*
X86757718Y-94800216D01*
X86817661Y-94818399D01*
X86880000Y-94824539D01*
X87487500Y-94823000D01*
X87567000Y-94743500D01*
X87567000Y-94043000D01*
X87693000Y-94043000D01*
X87693000Y-94743500D01*
X87772500Y-94823000D01*
X88380000Y-94824539D01*
X88442339Y-94818399D01*
X88502282Y-94800216D01*
X88557526Y-94770687D01*
X88605948Y-94730948D01*
X88645687Y-94682526D01*
X88675216Y-94627282D01*
X88693399Y-94567339D01*
X88699539Y-94505000D01*
X88698000Y-94122500D01*
X88618500Y-94043000D01*
X87693000Y-94043000D01*
X87567000Y-94043000D01*
X86641500Y-94043000D01*
X86562000Y-94122500D01*
X86560461Y-94505000D01*
X85789000Y-94505000D01*
X85789000Y-91440000D01*
X86557922Y-91440000D01*
X86574198Y-91605257D01*
X86622402Y-91764163D01*
X86700680Y-91910611D01*
X86806025Y-92038975D01*
X86849922Y-92075000D01*
X86806025Y-92111025D01*
X86700680Y-92239389D01*
X86622402Y-92385837D01*
X86574198Y-92544743D01*
X86557922Y-92710000D01*
X86574198Y-92875257D01*
X86622402Y-93034163D01*
X86700680Y-93180611D01*
X86706191Y-93187326D01*
X86702474Y-93189313D01*
X86654052Y-93229052D01*
X86614313Y-93277474D01*
X86584784Y-93332718D01*
X86566601Y-93392661D01*
X86560461Y-93455000D01*
X86562000Y-93837500D01*
X86641500Y-93917000D01*
X87567000Y-93917000D01*
X87567000Y-93897000D01*
X87693000Y-93897000D01*
X87693000Y-93917000D01*
X88618500Y-93917000D01*
X88698000Y-93837500D01*
X88699539Y-93455000D01*
X88693399Y-93392661D01*
X88675216Y-93332718D01*
X88645687Y-93277474D01*
X88605948Y-93229052D01*
X88557526Y-93189313D01*
X88553809Y-93187326D01*
X88559320Y-93180611D01*
X88637598Y-93034163D01*
X88685802Y-92875257D01*
X88702078Y-92710000D01*
X88685802Y-92544743D01*
X88637598Y-92385837D01*
X88559320Y-92239389D01*
X88453975Y-92111025D01*
X88410078Y-92075000D01*
X88453975Y-92038975D01*
X88559320Y-91910611D01*
X88637598Y-91764163D01*
X88685802Y-91605257D01*
X88702078Y-91440000D01*
X88685802Y-91274743D01*
X88637598Y-91115837D01*
X88559320Y-90969389D01*
X88453975Y-90841025D01*
X88325611Y-90735680D01*
X88179163Y-90657402D01*
X88020257Y-90609198D01*
X87896406Y-90597000D01*
X87363594Y-90597000D01*
X87239743Y-90609198D01*
X87080837Y-90657402D01*
X86934389Y-90735680D01*
X86806025Y-90841025D01*
X86700680Y-90969389D01*
X86622402Y-91115837D01*
X86574198Y-91274743D01*
X86557922Y-91440000D01*
X85789000Y-91440000D01*
X85789000Y-90089434D01*
X95702000Y-90089434D01*
X95702000Y-90250566D01*
X95733435Y-90408602D01*
X95795098Y-90557468D01*
X95884618Y-90691445D01*
X95998555Y-90805382D01*
X96132532Y-90894902D01*
X96281398Y-90956565D01*
X96439434Y-90988000D01*
X96600566Y-90988000D01*
X96758602Y-90956565D01*
X96907468Y-90894902D01*
X97041445Y-90805382D01*
X97155382Y-90691445D01*
X97244902Y-90557468D01*
X97306565Y-90408602D01*
X97338000Y-90250566D01*
X97338000Y-90160929D01*
X98415930Y-89083000D01*
X98505566Y-89083000D01*
X98663602Y-89051565D01*
X98812468Y-88989902D01*
X98946445Y-88900382D01*
X99060382Y-88786445D01*
X99149902Y-88652468D01*
X99211565Y-88503602D01*
X99243000Y-88345566D01*
X99243000Y-88184434D01*
X99211565Y-88026398D01*
X99149902Y-87877532D01*
X99060382Y-87743555D01*
X98946445Y-87629618D01*
X98812468Y-87540098D01*
X98663602Y-87478435D01*
X98505566Y-87447000D01*
X98344434Y-87447000D01*
X98186398Y-87478435D01*
X98037532Y-87540098D01*
X97903555Y-87629618D01*
X97789618Y-87743555D01*
X97700098Y-87877532D01*
X97638435Y-88026398D01*
X97607000Y-88184434D01*
X97607000Y-88274070D01*
X96529071Y-89352000D01*
X96439434Y-89352000D01*
X96281398Y-89383435D01*
X96132532Y-89445098D01*
X95998555Y-89534618D01*
X95884618Y-89648555D01*
X95795098Y-89782532D01*
X95733435Y-89931398D01*
X95702000Y-90089434D01*
X85789000Y-90089434D01*
X85789000Y-80564434D01*
X95067000Y-80564434D01*
X95067000Y-80725566D01*
X95098435Y-80883602D01*
X95160098Y-81032468D01*
X95249618Y-81166445D01*
X95313000Y-81229827D01*
X95313001Y-85140172D01*
X95249618Y-85203555D01*
X95160098Y-85337532D01*
X95098435Y-85486398D01*
X95067000Y-85644434D01*
X95067000Y-85805566D01*
X95098435Y-85963602D01*
X95160098Y-86112468D01*
X95249618Y-86246445D01*
X95363555Y-86360382D01*
X95497532Y-86449902D01*
X95646398Y-86511565D01*
X95804434Y-86543000D01*
X95965566Y-86543000D01*
X96123602Y-86511565D01*
X96272468Y-86449902D01*
X96406445Y-86360382D01*
X96487393Y-86279434D01*
X105862000Y-86279434D01*
X105862000Y-86440566D01*
X105893435Y-86598602D01*
X105955098Y-86747468D01*
X106044618Y-86881445D01*
X106158555Y-86995382D01*
X106292532Y-87084902D01*
X106441398Y-87146565D01*
X106599434Y-87178000D01*
X106760566Y-87178000D01*
X106918602Y-87146565D01*
X107067468Y-87084902D01*
X107201445Y-86995382D01*
X107264827Y-86932000D01*
X114906909Y-86932000D01*
X114935000Y-86934767D01*
X114963091Y-86932000D01*
X114963094Y-86932000D01*
X115047131Y-86923723D01*
X115154954Y-86891015D01*
X115254323Y-86837901D01*
X115341422Y-86766422D01*
X115359337Y-86744592D01*
X115560929Y-86543000D01*
X115650566Y-86543000D01*
X115808602Y-86511565D01*
X115957468Y-86449902D01*
X116091445Y-86360382D01*
X116205382Y-86246445D01*
X116294902Y-86112468D01*
X116356565Y-85963602D01*
X116388000Y-85805566D01*
X116388000Y-85644434D01*
X116356565Y-85486398D01*
X116294902Y-85337532D01*
X116205382Y-85203555D01*
X116091445Y-85089618D01*
X115957468Y-85000098D01*
X115808602Y-84938435D01*
X115650566Y-84907000D01*
X115489434Y-84907000D01*
X115331398Y-84938435D01*
X115182532Y-85000098D01*
X115048555Y-85089618D01*
X114934618Y-85203555D01*
X114845098Y-85337532D01*
X114783435Y-85486398D01*
X114752000Y-85644434D01*
X114752000Y-85734071D01*
X114698071Y-85788000D01*
X107264827Y-85788000D01*
X107201445Y-85724618D01*
X107067468Y-85635098D01*
X106918602Y-85573435D01*
X106760566Y-85542000D01*
X106599434Y-85542000D01*
X106441398Y-85573435D01*
X106292532Y-85635098D01*
X106158555Y-85724618D01*
X106044618Y-85838555D01*
X105955098Y-85972532D01*
X105893435Y-86121398D01*
X105862000Y-86279434D01*
X96487393Y-86279434D01*
X96520382Y-86246445D01*
X96609902Y-86112468D01*
X96671565Y-85963602D01*
X96703000Y-85805566D01*
X96703000Y-85644434D01*
X96671565Y-85486398D01*
X96609902Y-85337532D01*
X96520382Y-85203555D01*
X96457000Y-85140173D01*
X96457000Y-81229827D01*
X96520382Y-81166445D01*
X96609902Y-81032468D01*
X96671565Y-80883602D01*
X96703000Y-80725566D01*
X96703000Y-80564434D01*
X96671565Y-80406398D01*
X96609902Y-80257532D01*
X96520382Y-80123555D01*
X96406445Y-80009618D01*
X96272468Y-79920098D01*
X96123602Y-79858435D01*
X95965566Y-79827000D01*
X95804434Y-79827000D01*
X95646398Y-79858435D01*
X95497532Y-79920098D01*
X95363555Y-80009618D01*
X95249618Y-80123555D01*
X95160098Y-80257532D01*
X95098435Y-80406398D01*
X95067000Y-80564434D01*
X85789000Y-80564434D01*
X85789000Y-75991233D01*
X85814902Y-75952468D01*
X85876565Y-75803602D01*
X85908000Y-75645566D01*
X85908000Y-75484434D01*
X85876565Y-75326398D01*
X85814902Y-75177532D01*
X85789000Y-75138767D01*
X85789000Y-73095870D01*
X85891636Y-73150730D01*
X86121230Y-73220376D01*
X86360000Y-73243893D01*
X86598769Y-73220376D01*
X86828363Y-73150730D01*
X87039958Y-73037630D01*
X87225423Y-72885423D01*
X87377630Y-72699959D01*
X87490730Y-72488364D01*
X87560376Y-72258770D01*
X87578000Y-72079832D01*
X87578000Y-70160168D01*
X87560376Y-69981230D01*
X87490730Y-69751636D01*
X87393644Y-69570000D01*
X88950462Y-69570000D01*
X88950462Y-72670000D01*
X88961406Y-72781111D01*
X88993815Y-72887953D01*
X89046446Y-72986418D01*
X89117276Y-73072724D01*
X89203582Y-73143554D01*
X89302047Y-73196185D01*
X89408889Y-73228594D01*
X89520000Y-73239538D01*
X90820000Y-73239538D01*
X90931111Y-73228594D01*
X91037953Y-73196185D01*
X91136418Y-73143554D01*
X91222724Y-73072724D01*
X91293554Y-72986418D01*
X91346185Y-72887953D01*
X91378594Y-72781111D01*
X91389538Y-72670000D01*
X91389538Y-71059132D01*
X95902000Y-71059132D01*
X95902000Y-71180868D01*
X95925750Y-71300264D01*
X95972336Y-71412733D01*
X96039968Y-71513952D01*
X96126048Y-71600032D01*
X96227267Y-71667664D01*
X96339736Y-71714250D01*
X96459132Y-71738000D01*
X96580868Y-71738000D01*
X96700264Y-71714250D01*
X96812733Y-71667664D01*
X96913952Y-71600032D01*
X96948984Y-71565000D01*
X98631016Y-71565000D01*
X98666048Y-71600032D01*
X98767267Y-71667664D01*
X98879736Y-71714250D01*
X98999132Y-71738000D01*
X99120868Y-71738000D01*
X99240264Y-71714250D01*
X99352733Y-71667664D01*
X99453952Y-71600032D01*
X99540032Y-71513952D01*
X99607664Y-71412733D01*
X99654250Y-71300264D01*
X99678000Y-71180868D01*
X99678000Y-71059132D01*
X99654250Y-70939736D01*
X99607664Y-70827267D01*
X99540032Y-70726048D01*
X99453952Y-70639968D01*
X99352733Y-70572336D01*
X99240264Y-70525750D01*
X99120868Y-70502000D01*
X98999132Y-70502000D01*
X98879736Y-70525750D01*
X98767267Y-70572336D01*
X98666048Y-70639968D01*
X98631016Y-70675000D01*
X96948984Y-70675000D01*
X96913952Y-70639968D01*
X96812733Y-70572336D01*
X96700264Y-70525750D01*
X96580868Y-70502000D01*
X96459132Y-70502000D01*
X96339736Y-70525750D01*
X96227267Y-70572336D01*
X96126048Y-70639968D01*
X96039968Y-70726048D01*
X95972336Y-70827267D01*
X95925750Y-70939736D01*
X95902000Y-71059132D01*
X91389538Y-71059132D01*
X91389538Y-69570000D01*
X91378594Y-69458889D01*
X91346185Y-69352047D01*
X91293554Y-69253582D01*
X91222724Y-69167276D01*
X91136418Y-69096446D01*
X91037953Y-69043815D01*
X90931111Y-69011406D01*
X90820000Y-69000462D01*
X89520000Y-69000462D01*
X89408889Y-69011406D01*
X89302047Y-69043815D01*
X89203582Y-69096446D01*
X89117276Y-69167276D01*
X89046446Y-69253582D01*
X88993815Y-69352047D01*
X88961406Y-69458889D01*
X88950462Y-69570000D01*
X87393644Y-69570000D01*
X87377630Y-69540041D01*
X87225423Y-69354577D01*
X87039959Y-69202370D01*
X86828364Y-69089270D01*
X86598770Y-69019624D01*
X86360000Y-68996107D01*
X86121231Y-69019624D01*
X85891637Y-69089270D01*
X85789000Y-69144131D01*
X85789000Y-67830000D01*
X96620462Y-67830000D01*
X96620462Y-69330000D01*
X96631406Y-69441111D01*
X96663815Y-69547953D01*
X96716446Y-69646418D01*
X96787276Y-69732724D01*
X96873582Y-69803554D01*
X96972047Y-69856185D01*
X97078889Y-69888594D01*
X97190000Y-69899538D01*
X98390000Y-69899538D01*
X98501111Y-69888594D01*
X98607953Y-69856185D01*
X98706418Y-69803554D01*
X98792724Y-69732724D01*
X98863554Y-69646418D01*
X98916185Y-69547953D01*
X98948594Y-69441111D01*
X98959538Y-69330000D01*
X98959538Y-68643000D01*
X99122000Y-68643000D01*
X99122000Y-68793000D01*
X99156733Y-69019655D01*
X99235017Y-69235179D01*
X99353844Y-69431289D01*
X99508647Y-69600449D01*
X99693477Y-69736158D01*
X99901231Y-69833201D01*
X100045326Y-69872086D01*
X100227000Y-69816675D01*
X100227000Y-68643000D01*
X100353000Y-68643000D01*
X100353000Y-69816675D01*
X100534674Y-69872086D01*
X100678769Y-69833201D01*
X100886523Y-69736158D01*
X101071353Y-69600449D01*
X101226156Y-69431289D01*
X101344983Y-69235179D01*
X101423267Y-69019655D01*
X101458000Y-68793000D01*
X101458000Y-68643000D01*
X100353000Y-68643000D01*
X100227000Y-68643000D01*
X99122000Y-68643000D01*
X98959538Y-68643000D01*
X98959538Y-68367000D01*
X99122000Y-68367000D01*
X99122000Y-68517000D01*
X100227000Y-68517000D01*
X100227000Y-67343325D01*
X100353000Y-67343325D01*
X100353000Y-68517000D01*
X101458000Y-68517000D01*
X101458000Y-68367000D01*
X101423267Y-68140345D01*
X101344983Y-67924821D01*
X101287530Y-67830000D01*
X106780462Y-67830000D01*
X106780462Y-69330000D01*
X106791406Y-69441111D01*
X106823815Y-69547953D01*
X106876446Y-69646418D01*
X106947276Y-69732724D01*
X107033582Y-69803554D01*
X107132047Y-69856185D01*
X107238889Y-69888594D01*
X107350000Y-69899538D01*
X108550000Y-69899538D01*
X108661111Y-69888594D01*
X108767953Y-69856185D01*
X108866418Y-69803554D01*
X108952724Y-69732724D01*
X109023554Y-69646418D01*
X109076185Y-69547953D01*
X109108594Y-69441111D01*
X109119538Y-69330000D01*
X109119538Y-68372624D01*
X109282000Y-68372624D01*
X109282000Y-68787377D01*
X109298900Y-68958968D01*
X109365688Y-69179137D01*
X109474146Y-69382046D01*
X109620104Y-69559897D01*
X109797955Y-69705855D01*
X110000864Y-69814312D01*
X110221033Y-69881100D01*
X110450000Y-69903651D01*
X110678968Y-69881100D01*
X110899137Y-69814312D01*
X111102046Y-69705855D01*
X111279897Y-69559897D01*
X111425855Y-69382045D01*
X111534312Y-69179136D01*
X111601100Y-68958967D01*
X111618000Y-68787376D01*
X111618000Y-68372623D01*
X111601100Y-68201032D01*
X111534312Y-67980863D01*
X111425855Y-67777954D01*
X111279897Y-67600103D01*
X111102045Y-67454145D01*
X110899136Y-67345688D01*
X110678967Y-67278900D01*
X110450000Y-67256349D01*
X110221032Y-67278900D01*
X110000863Y-67345688D01*
X109797954Y-67454145D01*
X109620103Y-67600103D01*
X109474145Y-67777955D01*
X109365688Y-67980864D01*
X109298900Y-68201033D01*
X109282000Y-68372624D01*
X109119538Y-68372624D01*
X109119538Y-67830000D01*
X109108594Y-67718889D01*
X109076185Y-67612047D01*
X109023554Y-67513582D01*
X108952724Y-67427276D01*
X108866418Y-67356446D01*
X108767953Y-67303815D01*
X108661111Y-67271406D01*
X108550000Y-67260462D01*
X107350000Y-67260462D01*
X107238889Y-67271406D01*
X107132047Y-67303815D01*
X107033582Y-67356446D01*
X106947276Y-67427276D01*
X106876446Y-67513582D01*
X106823815Y-67612047D01*
X106791406Y-67718889D01*
X106780462Y-67830000D01*
X101287530Y-67830000D01*
X101226156Y-67728711D01*
X101071353Y-67559551D01*
X100886523Y-67423842D01*
X100678769Y-67326799D01*
X100534674Y-67287914D01*
X100353000Y-67343325D01*
X100227000Y-67343325D01*
X100045326Y-67287914D01*
X99901231Y-67326799D01*
X99693477Y-67423842D01*
X99508647Y-67559551D01*
X99353844Y-67728711D01*
X99235017Y-67924821D01*
X99156733Y-68140345D01*
X99122000Y-68367000D01*
X98959538Y-68367000D01*
X98959538Y-67830000D01*
X98948594Y-67718889D01*
X98916185Y-67612047D01*
X98863554Y-67513582D01*
X98792724Y-67427276D01*
X98706418Y-67356446D01*
X98607953Y-67303815D01*
X98501111Y-67271406D01*
X98390000Y-67260462D01*
X97190000Y-67260462D01*
X97078889Y-67271406D01*
X96972047Y-67303815D01*
X96873582Y-67356446D01*
X96787276Y-67427276D01*
X96716446Y-67513582D01*
X96663815Y-67612047D01*
X96631406Y-67718889D01*
X96620462Y-67830000D01*
X85789000Y-67830000D01*
X85789000Y-67007828D01*
X120757000Y-67007828D01*
X120757000Y-67612172D01*
X120874901Y-68204903D01*
X121106173Y-68763243D01*
X121441929Y-69265736D01*
X121869264Y-69693071D01*
X122371757Y-70028827D01*
X122930097Y-70260099D01*
X123522828Y-70378000D01*
X124127172Y-70378000D01*
X124719903Y-70260099D01*
X125278243Y-70028827D01*
X125780736Y-69693071D01*
X126208071Y-69265736D01*
X126543827Y-68763243D01*
X126775099Y-68204903D01*
X126893000Y-67612172D01*
X126893000Y-67007828D01*
X126775099Y-66415097D01*
X126543827Y-65856757D01*
X126208071Y-65354264D01*
X125780736Y-64926929D01*
X125278243Y-64591173D01*
X124719903Y-64359901D01*
X124127172Y-64242000D01*
X123522828Y-64242000D01*
X122930097Y-64359901D01*
X122371757Y-64591173D01*
X121869264Y-64926929D01*
X121441929Y-65354264D01*
X121106173Y-65856757D01*
X120874901Y-66415097D01*
X120757000Y-67007828D01*
X85789000Y-67007828D01*
X85789000Y-64199000D01*
X126936000Y-64199000D01*
X126936000Y-126301000D01*
G37*
X126936000Y-126301000D02*
X97014655Y-126301000D01*
X97062224Y-126212003D01*
X97114717Y-126038959D01*
X97128000Y-125904091D01*
X97128000Y-125113909D01*
X97114717Y-124979041D01*
X97062224Y-124805997D01*
X96976982Y-124646519D01*
X96862264Y-124506736D01*
X96722480Y-124392018D01*
X96563002Y-124306776D01*
X96389958Y-124254283D01*
X96210000Y-124236559D01*
X96030041Y-124254283D01*
X95856997Y-124306776D01*
X95697519Y-124392018D01*
X95557736Y-124506736D01*
X95443018Y-124646520D01*
X95357776Y-124805998D01*
X95305283Y-124979042D01*
X95292000Y-125113910D01*
X95292000Y-125904091D01*
X95305283Y-126038959D01*
X95357777Y-126212003D01*
X95405346Y-126301000D01*
X90014655Y-126301000D01*
X90062224Y-126212003D01*
X90114717Y-126038959D01*
X90128000Y-125904091D01*
X90128000Y-125113909D01*
X90114717Y-124979041D01*
X90062224Y-124805997D01*
X89976982Y-124646519D01*
X89862264Y-124506736D01*
X89722481Y-124392018D01*
X89563003Y-124306776D01*
X89389959Y-124254283D01*
X89210000Y-124236559D01*
X89030042Y-124254283D01*
X88856998Y-124306776D01*
X88697520Y-124392018D01*
X88557737Y-124506736D01*
X88443019Y-124646519D01*
X88357777Y-124805997D01*
X88305283Y-124979041D01*
X88292000Y-125113909D01*
X88292000Y-125904090D01*
X88305283Y-126038958D01*
X88357776Y-126212002D01*
X88405346Y-126301000D01*
X85789000Y-126301000D01*
X85789000Y-122706273D01*
X89167000Y-122706273D01*
X89167000Y-122911727D01*
X89207082Y-123113232D01*
X89285705Y-123303046D01*
X89399849Y-123473874D01*
X89545126Y-123619151D01*
X89715954Y-123733295D01*
X89905768Y-123811918D01*
X90107273Y-123852000D01*
X90312727Y-123852000D01*
X90514232Y-123811918D01*
X90704046Y-123733295D01*
X90874874Y-123619151D01*
X91020151Y-123473874D01*
X91134295Y-123303046D01*
X91212918Y-123113232D01*
X91253000Y-122911727D01*
X91253000Y-122706273D01*
X94167000Y-122706273D01*
X94167000Y-122911727D01*
X94207082Y-123113232D01*
X94285705Y-123303046D01*
X94399849Y-123473874D01*
X94545126Y-123619151D01*
X94715954Y-123733295D01*
X94905768Y-123811918D01*
X95107273Y-123852000D01*
X95312727Y-123852000D01*
X95514232Y-123811918D01*
X95704046Y-123733295D01*
X95874874Y-123619151D01*
X95884025Y-123610000D01*
X97890462Y-123610000D01*
X97890462Y-125310000D01*
X97896602Y-125372339D01*
X97914785Y-125432282D01*
X97944314Y-125487526D01*
X97984053Y-125535947D01*
X98032474Y-125575686D01*
X98087718Y-125605215D01*
X98147661Y-125623398D01*
X98210000Y-125629538D01*
X99910000Y-125629538D01*
X99972339Y-125623398D01*
X100032282Y-125605215D01*
X100087526Y-125575686D01*
X100135947Y-125535947D01*
X100175686Y-125487526D01*
X100205215Y-125432282D01*
X100223398Y-125372339D01*
X100229538Y-125310000D01*
X100229538Y-124344962D01*
X100432000Y-124344962D01*
X100432000Y-124575038D01*
X100476886Y-124800693D01*
X100564932Y-125013255D01*
X100692756Y-125204556D01*
X100855444Y-125367244D01*
X101046745Y-125495068D01*
X101259307Y-125583114D01*
X101484962Y-125628000D01*
X101715038Y-125628000D01*
X101940693Y-125583114D01*
X102153255Y-125495068D01*
X102344556Y-125367244D01*
X102507244Y-125204556D01*
X102635068Y-125013255D01*
X102723114Y-124800693D01*
X102768000Y-124575038D01*
X102768000Y-124344962D01*
X102972000Y-124344962D01*
X102972000Y-124575038D01*
X103016886Y-124800693D01*
X103104932Y-125013255D01*
X103232756Y-125204556D01*
X103395444Y-125367244D01*
X103586745Y-125495068D01*
X103799307Y-125583114D01*
X104024962Y-125628000D01*
X104255038Y-125628000D01*
X104480693Y-125583114D01*
X104693255Y-125495068D01*
X104884556Y-125367244D01*
X105047244Y-125204556D01*
X105175068Y-125013255D01*
X105263114Y-124800693D01*
X105308000Y-124575038D01*
X105308000Y-124344962D01*
X105512000Y-124344962D01*
X105512000Y-124575038D01*
X105556886Y-124800693D01*
X105644932Y-125013255D01*
X105772756Y-125204556D01*
X105935444Y-125367244D01*
X106126745Y-125495068D01*
X106339307Y-125583114D01*
X106564962Y-125628000D01*
X106795038Y-125628000D01*
X107020693Y-125583114D01*
X107233255Y-125495068D01*
X107424556Y-125367244D01*
X107587244Y-125204556D01*
X107715068Y-125013255D01*
X107803114Y-124800693D01*
X107848000Y-124575038D01*
X107848000Y-124344962D01*
X108052000Y-124344962D01*
X108052000Y-124575038D01*
X108096886Y-124800693D01*
X108184932Y-125013255D01*
X108312756Y-125204556D01*
X108475444Y-125367244D01*
X108666745Y-125495068D01*
X108879307Y-125583114D01*
X109104962Y-125628000D01*
X109335038Y-125628000D01*
X109560693Y-125583114D01*
X109773255Y-125495068D01*
X109964556Y-125367244D01*
X110127244Y-125204556D01*
X110255068Y-125013255D01*
X110343114Y-124800693D01*
X110388000Y-124575038D01*
X110388000Y-124344962D01*
X110592000Y-124344962D01*
X110592000Y-124575038D01*
X110636886Y-124800693D01*
X110724932Y-125013255D01*
X110852756Y-125204556D01*
X111015444Y-125367244D01*
X111206745Y-125495068D01*
X111419307Y-125583114D01*
X111644962Y-125628000D01*
X111875038Y-125628000D01*
X112100693Y-125583114D01*
X112313255Y-125495068D01*
X112504556Y-125367244D01*
X112667244Y-125204556D01*
X112795068Y-125013255D01*
X112883114Y-124800693D01*
X112928000Y-124575038D01*
X112928000Y-124344962D01*
X113132000Y-124344962D01*
X113132000Y-124575038D01*
X113176886Y-124800693D01*
X113264932Y-125013255D01*
X113392756Y-125204556D01*
X113555444Y-125367244D01*
X113746745Y-125495068D01*
X113959307Y-125583114D01*
X114184962Y-125628000D01*
X114415038Y-125628000D01*
X114640693Y-125583114D01*
X114853255Y-125495068D01*
X115044556Y-125367244D01*
X115207244Y-125204556D01*
X115335068Y-125013255D01*
X115423114Y-124800693D01*
X115442213Y-124704674D01*
X115697911Y-124704674D01*
X115767589Y-124922783D01*
X115878480Y-125123108D01*
X116026321Y-125297950D01*
X116205432Y-125440590D01*
X116408929Y-125545546D01*
X116595326Y-125602086D01*
X116777000Y-125546675D01*
X116777000Y-124523000D01*
X116903000Y-124523000D01*
X116903000Y-125546675D01*
X117084674Y-125602086D01*
X117271071Y-125545546D01*
X117474568Y-125440590D01*
X117653679Y-125297950D01*
X117801520Y-125123108D01*
X117912411Y-124922783D01*
X117982089Y-124704674D01*
X117926803Y-124523000D01*
X116903000Y-124523000D01*
X116777000Y-124523000D01*
X115753197Y-124523000D01*
X115697911Y-124704674D01*
X115442213Y-124704674D01*
X115468000Y-124575038D01*
X115468000Y-124344962D01*
X115442214Y-124215326D01*
X115697911Y-124215326D01*
X115753197Y-124397000D01*
X116777000Y-124397000D01*
X116777000Y-123373325D01*
X116903000Y-123373325D01*
X116903000Y-124397000D01*
X117926803Y-124397000D01*
X117982089Y-124215326D01*
X117912411Y-123997217D01*
X117801520Y-123796892D01*
X117653679Y-123622050D01*
X117474568Y-123479410D01*
X117271071Y-123374454D01*
X117084674Y-123317914D01*
X116903000Y-123373325D01*
X116777000Y-123373325D01*
X116595326Y-123317914D01*
X116408929Y-123374454D01*
X116205432Y-123479410D01*
X116026321Y-123622050D01*
X115878480Y-123796892D01*
X115767589Y-123997217D01*
X115697911Y-124215326D01*
X115442214Y-124215326D01*
X115423114Y-124119307D01*
X115335068Y-123906745D01*
X115207244Y-123715444D01*
X115044556Y-123552756D01*
X114853255Y-123424932D01*
X114640693Y-123336886D01*
X114415038Y-123292000D01*
X114184962Y-123292000D01*
X113959307Y-123336886D01*
X113746745Y-123424932D01*
X113555444Y-123552756D01*
X113392756Y-123715444D01*
X113264932Y-123906745D01*
X113176886Y-124119307D01*
X113132000Y-124344962D01*
X112928000Y-124344962D01*
X112883114Y-124119307D01*
X112795068Y-123906745D01*
X112667244Y-123715444D01*
X112504556Y-123552756D01*
X112313255Y-123424932D01*
X112100693Y-123336886D01*
X111875038Y-123292000D01*
X111644962Y-123292000D01*
X111419307Y-123336886D01*
X111206745Y-123424932D01*
X111015444Y-123552756D01*
X110852756Y-123715444D01*
X110724932Y-123906745D01*
X110636886Y-124119307D01*
X110592000Y-124344962D01*
X110388000Y-124344962D01*
X110343114Y-124119307D01*
X110255068Y-123906745D01*
X110127244Y-123715444D01*
X109964556Y-123552756D01*
X109773255Y-123424932D01*
X109560693Y-123336886D01*
X109335038Y-123292000D01*
X109104962Y-123292000D01*
X108879307Y-123336886D01*
X108666745Y-123424932D01*
X108475444Y-123552756D01*
X108312756Y-123715444D01*
X108184932Y-123906745D01*
X108096886Y-124119307D01*
X108052000Y-124344962D01*
X107848000Y-124344962D01*
X107803114Y-124119307D01*
X107715068Y-123906745D01*
X107587244Y-123715444D01*
X107424556Y-123552756D01*
X107233255Y-123424932D01*
X107020693Y-123336886D01*
X106795038Y-123292000D01*
X106564962Y-123292000D01*
X106339307Y-123336886D01*
X106126745Y-123424932D01*
X105935444Y-123552756D01*
X105772756Y-123715444D01*
X105644932Y-123906745D01*
X105556886Y-124119307D01*
X105512000Y-124344962D01*
X105308000Y-124344962D01*
X105263114Y-124119307D01*
X105175068Y-123906745D01*
X105047244Y-123715444D01*
X104884556Y-123552756D01*
X104693255Y-123424932D01*
X104480693Y-123336886D01*
X104255038Y-123292000D01*
X104024962Y-123292000D01*
X103799307Y-123336886D01*
X103586745Y-123424932D01*
X103395444Y-123552756D01*
X103232756Y-123715444D01*
X103104932Y-123906745D01*
X103016886Y-124119307D01*
X102972000Y-124344962D01*
X102768000Y-124344962D01*
X102723114Y-124119307D01*
X102635068Y-123906745D01*
X102507244Y-123715444D01*
X102344556Y-123552756D01*
X102153255Y-123424932D01*
X101940693Y-123336886D01*
X101715038Y-123292000D01*
X101484962Y-123292000D01*
X101259307Y-123336886D01*
X101046745Y-123424932D01*
X100855444Y-123552756D01*
X100692756Y-123715444D01*
X100564932Y-123906745D01*
X100476886Y-124119307D01*
X100432000Y-124344962D01*
X100229538Y-124344962D01*
X100229538Y-123610000D01*
X100223398Y-123547661D01*
X100205215Y-123487718D01*
X100175686Y-123432474D01*
X100135947Y-123384053D01*
X100087526Y-123344314D01*
X100032282Y-123314785D01*
X99972339Y-123296602D01*
X99910000Y-123290462D01*
X98210000Y-123290462D01*
X98147661Y-123296602D01*
X98087718Y-123314785D01*
X98032474Y-123344314D01*
X97984053Y-123384053D01*
X97944314Y-123432474D01*
X97914785Y-123487718D01*
X97896602Y-123547661D01*
X97890462Y-123610000D01*
X95884025Y-123610000D01*
X96020151Y-123473874D01*
X96134295Y-123303046D01*
X96212918Y-123113232D01*
X96253000Y-122911727D01*
X96253000Y-122887828D01*
X120757000Y-122887828D01*
X120757000Y-123492172D01*
X120874901Y-124084903D01*
X121106173Y-124643243D01*
X121441929Y-125145736D01*
X121869264Y-125573071D01*
X122371757Y-125908827D01*
X122930097Y-126140099D01*
X123522828Y-126258000D01*
X124127172Y-126258000D01*
X124719903Y-126140099D01*
X125278243Y-125908827D01*
X125780736Y-125573071D01*
X126208071Y-125145736D01*
X126543827Y-124643243D01*
X126775099Y-124084903D01*
X126893000Y-123492172D01*
X126893000Y-122887828D01*
X126775099Y-122295097D01*
X126543827Y-121736757D01*
X126208071Y-121234264D01*
X125780736Y-120806929D01*
X125278243Y-120471173D01*
X124719903Y-120239901D01*
X124127172Y-120122000D01*
X123522828Y-120122000D01*
X122930097Y-120239901D01*
X122371757Y-120471173D01*
X121869264Y-120806929D01*
X121441929Y-121234264D01*
X121106173Y-121736757D01*
X120874901Y-122295097D01*
X120757000Y-122887828D01*
X96253000Y-122887828D01*
X96253000Y-122706273D01*
X96212918Y-122504768D01*
X96134295Y-122314954D01*
X96020151Y-122144126D01*
X95874874Y-121998849D01*
X95704046Y-121884705D01*
X95514232Y-121806082D01*
X95312727Y-121766000D01*
X95107273Y-121766000D01*
X94905768Y-121806082D01*
X94715954Y-121884705D01*
X94545126Y-121998849D01*
X94399849Y-122144126D01*
X94285705Y-122314954D01*
X94207082Y-122504768D01*
X94167000Y-122706273D01*
X91253000Y-122706273D01*
X91212918Y-122504768D01*
X91134295Y-122314954D01*
X91020151Y-122144126D01*
X90874874Y-121998849D01*
X90704046Y-121884705D01*
X90514232Y-121806082D01*
X90312727Y-121766000D01*
X90107273Y-121766000D01*
X89905768Y-121806082D01*
X89715954Y-121884705D01*
X89545126Y-121998849D01*
X89399849Y-122144126D01*
X89285705Y-122314954D01*
X89207082Y-122504768D01*
X89167000Y-122706273D01*
X85789000Y-122706273D01*
X85789000Y-107879283D01*
X90722000Y-107879283D01*
X90722000Y-108020717D01*
X90749592Y-108159433D01*
X90803717Y-108290100D01*
X90868001Y-108386308D01*
X90868000Y-111096909D01*
X90865233Y-111125000D01*
X90868000Y-111153091D01*
X90868000Y-111153093D01*
X90876277Y-111237130D01*
X90908985Y-111344953D01*
X90962099Y-111444322D01*
X91033578Y-111531422D01*
X91055408Y-111549337D01*
X95313001Y-115806931D01*
X95313000Y-118081906D01*
X95313000Y-118308693D01*
X95248717Y-118404900D01*
X95194592Y-118535567D01*
X95167000Y-118674283D01*
X95167000Y-118815717D01*
X95194592Y-118954433D01*
X95248717Y-119085100D01*
X95327293Y-119202698D01*
X95427302Y-119302707D01*
X95544900Y-119381283D01*
X95675567Y-119435408D01*
X95814283Y-119463000D01*
X95955717Y-119463000D01*
X96094433Y-119435408D01*
X96225100Y-119381283D01*
X96342698Y-119302707D01*
X96442707Y-119202698D01*
X96521283Y-119085100D01*
X96575408Y-118954433D01*
X96603000Y-118815717D01*
X96603000Y-118674283D01*
X96575408Y-118535567D01*
X96521283Y-118404900D01*
X96457000Y-118308693D01*
X96457000Y-115598090D01*
X96459767Y-115569999D01*
X96457000Y-115541906D01*
X96448723Y-115457869D01*
X96416015Y-115350046D01*
X96362901Y-115250677D01*
X96291422Y-115163578D01*
X96269597Y-115145667D01*
X92493604Y-111369674D01*
X115697914Y-111369674D01*
X115754454Y-111556071D01*
X115859410Y-111759568D01*
X116002050Y-111938679D01*
X116176892Y-112086520D01*
X116377217Y-112197411D01*
X116595326Y-112267089D01*
X116777000Y-112211803D01*
X116777000Y-111188000D01*
X116903000Y-111188000D01*
X116903000Y-112211803D01*
X117084674Y-112267089D01*
X117302783Y-112197411D01*
X117503108Y-112086520D01*
X117677950Y-111938679D01*
X117820590Y-111759568D01*
X117925546Y-111556071D01*
X117982086Y-111369674D01*
X117926675Y-111188000D01*
X116903000Y-111188000D01*
X116777000Y-111188000D01*
X115753325Y-111188000D01*
X115697914Y-111369674D01*
X92493604Y-111369674D01*
X92012000Y-110888071D01*
X92012000Y-110880326D01*
X115697914Y-110880326D01*
X115753325Y-111062000D01*
X116777000Y-111062000D01*
X116777000Y-110038197D01*
X116903000Y-110038197D01*
X116903000Y-111062000D01*
X117926675Y-111062000D01*
X117982086Y-110880326D01*
X117925546Y-110693929D01*
X117820590Y-110490432D01*
X117677950Y-110311321D01*
X117503108Y-110163480D01*
X117302783Y-110052589D01*
X117084674Y-109982911D01*
X116903000Y-110038197D01*
X116777000Y-110038197D01*
X116595326Y-109982911D01*
X116377217Y-110052589D01*
X116176892Y-110163480D01*
X116002050Y-110311321D01*
X115859410Y-110490432D01*
X115754454Y-110693929D01*
X115697914Y-110880326D01*
X92012000Y-110880326D01*
X92012000Y-108469962D01*
X115672000Y-108469962D01*
X115672000Y-108700038D01*
X115716886Y-108925693D01*
X115804932Y-109138255D01*
X115932756Y-109329556D01*
X116095444Y-109492244D01*
X116286745Y-109620068D01*
X116499307Y-109708114D01*
X116724962Y-109753000D01*
X116955038Y-109753000D01*
X117180693Y-109708114D01*
X117393255Y-109620068D01*
X117584556Y-109492244D01*
X117747244Y-109329556D01*
X117875068Y-109138255D01*
X117963114Y-108925693D01*
X118008000Y-108700038D01*
X118008000Y-108469962D01*
X117963114Y-108244307D01*
X117875068Y-108031745D01*
X117747244Y-107840444D01*
X117584556Y-107677756D01*
X117393255Y-107549932D01*
X117180693Y-107461886D01*
X116955038Y-107417000D01*
X116724962Y-107417000D01*
X116499307Y-107461886D01*
X116286745Y-107549932D01*
X116095444Y-107677756D01*
X115932756Y-107840444D01*
X115804932Y-108031745D01*
X115716886Y-108244307D01*
X115672000Y-108469962D01*
X92012000Y-108469962D01*
X92012000Y-108386307D01*
X92076283Y-108290100D01*
X92130408Y-108159433D01*
X92158000Y-108020717D01*
X92158000Y-107879283D01*
X92130408Y-107740567D01*
X92076283Y-107609900D01*
X91997707Y-107492302D01*
X91897698Y-107392293D01*
X91780100Y-107313717D01*
X91649433Y-107259592D01*
X91510717Y-107232000D01*
X91369283Y-107232000D01*
X91230567Y-107259592D01*
X91099900Y-107313717D01*
X90982302Y-107392293D01*
X90882293Y-107492302D01*
X90803717Y-107609900D01*
X90749592Y-107740567D01*
X90722000Y-107879283D01*
X85789000Y-107879283D01*
X85789000Y-105929962D01*
X115672000Y-105929962D01*
X115672000Y-106160038D01*
X115716886Y-106385693D01*
X115804932Y-106598255D01*
X115932756Y-106789556D01*
X116095444Y-106952244D01*
X116286745Y-107080068D01*
X116499307Y-107168114D01*
X116724962Y-107213000D01*
X116955038Y-107213000D01*
X117180693Y-107168114D01*
X117393255Y-107080068D01*
X117584556Y-106952244D01*
X117747244Y-106789556D01*
X117875068Y-106598255D01*
X117963114Y-106385693D01*
X118008000Y-106160038D01*
X118008000Y-105929962D01*
X117963114Y-105704307D01*
X117875068Y-105491745D01*
X117747244Y-105300444D01*
X117584556Y-105137756D01*
X117393255Y-105009932D01*
X117180693Y-104921886D01*
X116955038Y-104877000D01*
X116724962Y-104877000D01*
X116499307Y-104921886D01*
X116286745Y-105009932D01*
X116095444Y-105137756D01*
X115932756Y-105300444D01*
X115804932Y-105491745D01*
X115716886Y-105704307D01*
X115672000Y-105929962D01*
X85789000Y-105929962D01*
X85789000Y-103569000D01*
X88265000Y-103569000D01*
X88277486Y-103567770D01*
X88289492Y-103564128D01*
X88300556Y-103558214D01*
X88310255Y-103550255D01*
X88318214Y-103540556D01*
X88324128Y-103529492D01*
X88327770Y-103517486D01*
X88329000Y-103505000D01*
X88329000Y-103389962D01*
X115672000Y-103389962D01*
X115672000Y-103620038D01*
X115716886Y-103845693D01*
X115804932Y-104058255D01*
X115932756Y-104249556D01*
X116095444Y-104412244D01*
X116286745Y-104540068D01*
X116499307Y-104628114D01*
X116724962Y-104673000D01*
X116955038Y-104673000D01*
X117180693Y-104628114D01*
X117393255Y-104540068D01*
X117584556Y-104412244D01*
X117747244Y-104249556D01*
X117875068Y-104058255D01*
X117963114Y-103845693D01*
X118008000Y-103620038D01*
X118008000Y-103389962D01*
X117963114Y-103164307D01*
X117875068Y-102951745D01*
X117747244Y-102760444D01*
X117584556Y-102597756D01*
X117393255Y-102469932D01*
X117180693Y-102381886D01*
X116955038Y-102337000D01*
X116724962Y-102337000D01*
X116499307Y-102381886D01*
X116286745Y-102469932D01*
X116095444Y-102597756D01*
X115932756Y-102760444D01*
X115804932Y-102951745D01*
X115716886Y-103164307D01*
X115672000Y-103389962D01*
X88329000Y-103389962D01*
X88329000Y-97155000D01*
X88327770Y-97142514D01*
X88324128Y-97130508D01*
X88318214Y-97119444D01*
X88310255Y-97109745D01*
X88300556Y-97101786D01*
X88289492Y-97095872D01*
X88277486Y-97092230D01*
X88265000Y-97091000D01*
X85789000Y-97091000D01*
X85789000Y-95804434D01*
X95702000Y-95804434D01*
X95702000Y-95965566D01*
X95733435Y-96123602D01*
X95795098Y-96272468D01*
X95884618Y-96406445D01*
X95948001Y-96469828D01*
X95948000Y-101650173D01*
X95884618Y-101713555D01*
X95795098Y-101847532D01*
X95733435Y-101996398D01*
X95702000Y-102154434D01*
X95702000Y-102315566D01*
X95733435Y-102473602D01*
X95795098Y-102622468D01*
X95884618Y-102756445D01*
X95998555Y-102870382D01*
X96132532Y-102959902D01*
X96281398Y-103021565D01*
X96439434Y-103053000D01*
X96600566Y-103053000D01*
X96758602Y-103021565D01*
X96907468Y-102959902D01*
X97041445Y-102870382D01*
X97155382Y-102756445D01*
X97244902Y-102622468D01*
X97306565Y-102473602D01*
X97338000Y-102315566D01*
X97338000Y-102154434D01*
X97306565Y-101996398D01*
X97244902Y-101847532D01*
X97155382Y-101713555D01*
X97092000Y-101650173D01*
X97092000Y-100115000D01*
X115670462Y-100115000D01*
X115670462Y-101815000D01*
X115676602Y-101877339D01*
X115694785Y-101937282D01*
X115724314Y-101992526D01*
X115764053Y-102040947D01*
X115812474Y-102080686D01*
X115867718Y-102110215D01*
X115927661Y-102128398D01*
X115990000Y-102134538D01*
X117690000Y-102134538D01*
X117752339Y-102128398D01*
X117812282Y-102110215D01*
X117867526Y-102080686D01*
X117915947Y-102040947D01*
X117955686Y-101992526D01*
X117985215Y-101937282D01*
X118003398Y-101877339D01*
X118009538Y-101815000D01*
X118009538Y-100115000D01*
X118003398Y-100052661D01*
X117985215Y-99992718D01*
X117955686Y-99937474D01*
X117915947Y-99889053D01*
X117867526Y-99849314D01*
X117812282Y-99819785D01*
X117752339Y-99801602D01*
X117690000Y-99795462D01*
X115990000Y-99795462D01*
X115927661Y-99801602D01*
X115867718Y-99819785D01*
X115812474Y-99849314D01*
X115764053Y-99889053D01*
X115724314Y-99937474D01*
X115694785Y-99992718D01*
X115676602Y-100052661D01*
X115670462Y-100115000D01*
X97092000Y-100115000D01*
X97092000Y-96469827D01*
X97155382Y-96406445D01*
X97244902Y-96272468D01*
X97306565Y-96123602D01*
X97338000Y-95965566D01*
X97338000Y-95804434D01*
X97306565Y-95646398D01*
X97244902Y-95497532D01*
X97155382Y-95363555D01*
X97041445Y-95249618D01*
X96907468Y-95160098D01*
X96758602Y-95098435D01*
X96600566Y-95067000D01*
X96439434Y-95067000D01*
X96281398Y-95098435D01*
X96132532Y-95160098D01*
X95998555Y-95249618D01*
X95884618Y-95363555D01*
X95795098Y-95497532D01*
X95733435Y-95646398D01*
X95702000Y-95804434D01*
X85789000Y-95804434D01*
X85789000Y-94505000D01*
X86560461Y-94505000D01*
X86566601Y-94567339D01*
X86584784Y-94627282D01*
X86614313Y-94682526D01*
X86654052Y-94730948D01*
X86702474Y-94770687D01*
X86757718Y-94800216D01*
X86817661Y-94818399D01*
X86880000Y-94824539D01*
X87487500Y-94823000D01*
X87567000Y-94743500D01*
X87567000Y-94043000D01*
X87693000Y-94043000D01*
X87693000Y-94743500D01*
X87772500Y-94823000D01*
X88380000Y-94824539D01*
X88442339Y-94818399D01*
X88502282Y-94800216D01*
X88557526Y-94770687D01*
X88605948Y-94730948D01*
X88645687Y-94682526D01*
X88675216Y-94627282D01*
X88693399Y-94567339D01*
X88699539Y-94505000D01*
X88698000Y-94122500D01*
X88618500Y-94043000D01*
X87693000Y-94043000D01*
X87567000Y-94043000D01*
X86641500Y-94043000D01*
X86562000Y-94122500D01*
X86560461Y-94505000D01*
X85789000Y-94505000D01*
X85789000Y-91440000D01*
X86557922Y-91440000D01*
X86574198Y-91605257D01*
X86622402Y-91764163D01*
X86700680Y-91910611D01*
X86806025Y-92038975D01*
X86849922Y-92075000D01*
X86806025Y-92111025D01*
X86700680Y-92239389D01*
X86622402Y-92385837D01*
X86574198Y-92544743D01*
X86557922Y-92710000D01*
X86574198Y-92875257D01*
X86622402Y-93034163D01*
X86700680Y-93180611D01*
X86706191Y-93187326D01*
X86702474Y-93189313D01*
X86654052Y-93229052D01*
X86614313Y-93277474D01*
X86584784Y-93332718D01*
X86566601Y-93392661D01*
X86560461Y-93455000D01*
X86562000Y-93837500D01*
X86641500Y-93917000D01*
X87567000Y-93917000D01*
X87567000Y-93897000D01*
X87693000Y-93897000D01*
X87693000Y-93917000D01*
X88618500Y-93917000D01*
X88698000Y-93837500D01*
X88699539Y-93455000D01*
X88693399Y-93392661D01*
X88675216Y-93332718D01*
X88645687Y-93277474D01*
X88605948Y-93229052D01*
X88557526Y-93189313D01*
X88553809Y-93187326D01*
X88559320Y-93180611D01*
X88637598Y-93034163D01*
X88685802Y-92875257D01*
X88702078Y-92710000D01*
X88685802Y-92544743D01*
X88637598Y-92385837D01*
X88559320Y-92239389D01*
X88453975Y-92111025D01*
X88410078Y-92075000D01*
X88453975Y-92038975D01*
X88559320Y-91910611D01*
X88637598Y-91764163D01*
X88685802Y-91605257D01*
X88702078Y-91440000D01*
X88685802Y-91274743D01*
X88637598Y-91115837D01*
X88559320Y-90969389D01*
X88453975Y-90841025D01*
X88325611Y-90735680D01*
X88179163Y-90657402D01*
X88020257Y-90609198D01*
X87896406Y-90597000D01*
X87363594Y-90597000D01*
X87239743Y-90609198D01*
X87080837Y-90657402D01*
X86934389Y-90735680D01*
X86806025Y-90841025D01*
X86700680Y-90969389D01*
X86622402Y-91115837D01*
X86574198Y-91274743D01*
X86557922Y-91440000D01*
X85789000Y-91440000D01*
X85789000Y-90089434D01*
X95702000Y-90089434D01*
X95702000Y-90250566D01*
X95733435Y-90408602D01*
X95795098Y-90557468D01*
X95884618Y-90691445D01*
X95998555Y-90805382D01*
X96132532Y-90894902D01*
X96281398Y-90956565D01*
X96439434Y-90988000D01*
X96600566Y-90988000D01*
X96758602Y-90956565D01*
X96907468Y-90894902D01*
X97041445Y-90805382D01*
X97155382Y-90691445D01*
X97244902Y-90557468D01*
X97306565Y-90408602D01*
X97338000Y-90250566D01*
X97338000Y-90160929D01*
X98415930Y-89083000D01*
X98505566Y-89083000D01*
X98663602Y-89051565D01*
X98812468Y-88989902D01*
X98946445Y-88900382D01*
X99060382Y-88786445D01*
X99149902Y-88652468D01*
X99211565Y-88503602D01*
X99243000Y-88345566D01*
X99243000Y-88184434D01*
X99211565Y-88026398D01*
X99149902Y-87877532D01*
X99060382Y-87743555D01*
X98946445Y-87629618D01*
X98812468Y-87540098D01*
X98663602Y-87478435D01*
X98505566Y-87447000D01*
X98344434Y-87447000D01*
X98186398Y-87478435D01*
X98037532Y-87540098D01*
X97903555Y-87629618D01*
X97789618Y-87743555D01*
X97700098Y-87877532D01*
X97638435Y-88026398D01*
X97607000Y-88184434D01*
X97607000Y-88274070D01*
X96529071Y-89352000D01*
X96439434Y-89352000D01*
X96281398Y-89383435D01*
X96132532Y-89445098D01*
X95998555Y-89534618D01*
X95884618Y-89648555D01*
X95795098Y-89782532D01*
X95733435Y-89931398D01*
X95702000Y-90089434D01*
X85789000Y-90089434D01*
X85789000Y-80564434D01*
X95067000Y-80564434D01*
X95067000Y-80725566D01*
X95098435Y-80883602D01*
X95160098Y-81032468D01*
X95249618Y-81166445D01*
X95313000Y-81229827D01*
X95313001Y-85140172D01*
X95249618Y-85203555D01*
X95160098Y-85337532D01*
X95098435Y-85486398D01*
X95067000Y-85644434D01*
X95067000Y-85805566D01*
X95098435Y-85963602D01*
X95160098Y-86112468D01*
X95249618Y-86246445D01*
X95363555Y-86360382D01*
X95497532Y-86449902D01*
X95646398Y-86511565D01*
X95804434Y-86543000D01*
X95965566Y-86543000D01*
X96123602Y-86511565D01*
X96272468Y-86449902D01*
X96406445Y-86360382D01*
X96487393Y-86279434D01*
X105862000Y-86279434D01*
X105862000Y-86440566D01*
X105893435Y-86598602D01*
X105955098Y-86747468D01*
X106044618Y-86881445D01*
X106158555Y-86995382D01*
X106292532Y-87084902D01*
X106441398Y-87146565D01*
X106599434Y-87178000D01*
X106760566Y-87178000D01*
X106918602Y-87146565D01*
X107067468Y-87084902D01*
X107201445Y-86995382D01*
X107264827Y-86932000D01*
X114906909Y-86932000D01*
X114935000Y-86934767D01*
X114963091Y-86932000D01*
X114963094Y-86932000D01*
X115047131Y-86923723D01*
X115154954Y-86891015D01*
X115254323Y-86837901D01*
X115341422Y-86766422D01*
X115359337Y-86744592D01*
X115560929Y-86543000D01*
X115650566Y-86543000D01*
X115808602Y-86511565D01*
X115957468Y-86449902D01*
X116091445Y-86360382D01*
X116205382Y-86246445D01*
X116294902Y-86112468D01*
X116356565Y-85963602D01*
X116388000Y-85805566D01*
X116388000Y-85644434D01*
X116356565Y-85486398D01*
X116294902Y-85337532D01*
X116205382Y-85203555D01*
X116091445Y-85089618D01*
X115957468Y-85000098D01*
X115808602Y-84938435D01*
X115650566Y-84907000D01*
X115489434Y-84907000D01*
X115331398Y-84938435D01*
X115182532Y-85000098D01*
X115048555Y-85089618D01*
X114934618Y-85203555D01*
X114845098Y-85337532D01*
X114783435Y-85486398D01*
X114752000Y-85644434D01*
X114752000Y-85734071D01*
X114698071Y-85788000D01*
X107264827Y-85788000D01*
X107201445Y-85724618D01*
X107067468Y-85635098D01*
X106918602Y-85573435D01*
X106760566Y-85542000D01*
X106599434Y-85542000D01*
X106441398Y-85573435D01*
X106292532Y-85635098D01*
X106158555Y-85724618D01*
X106044618Y-85838555D01*
X105955098Y-85972532D01*
X105893435Y-86121398D01*
X105862000Y-86279434D01*
X96487393Y-86279434D01*
X96520382Y-86246445D01*
X96609902Y-86112468D01*
X96671565Y-85963602D01*
X96703000Y-85805566D01*
X96703000Y-85644434D01*
X96671565Y-85486398D01*
X96609902Y-85337532D01*
X96520382Y-85203555D01*
X96457000Y-85140173D01*
X96457000Y-81229827D01*
X96520382Y-81166445D01*
X96609902Y-81032468D01*
X96671565Y-80883602D01*
X96703000Y-80725566D01*
X96703000Y-80564434D01*
X96671565Y-80406398D01*
X96609902Y-80257532D01*
X96520382Y-80123555D01*
X96406445Y-80009618D01*
X96272468Y-79920098D01*
X96123602Y-79858435D01*
X95965566Y-79827000D01*
X95804434Y-79827000D01*
X95646398Y-79858435D01*
X95497532Y-79920098D01*
X95363555Y-80009618D01*
X95249618Y-80123555D01*
X95160098Y-80257532D01*
X95098435Y-80406398D01*
X95067000Y-80564434D01*
X85789000Y-80564434D01*
X85789000Y-75991233D01*
X85814902Y-75952468D01*
X85876565Y-75803602D01*
X85908000Y-75645566D01*
X85908000Y-75484434D01*
X85876565Y-75326398D01*
X85814902Y-75177532D01*
X85789000Y-75138767D01*
X85789000Y-73095870D01*
X85891636Y-73150730D01*
X86121230Y-73220376D01*
X86360000Y-73243893D01*
X86598769Y-73220376D01*
X86828363Y-73150730D01*
X87039958Y-73037630D01*
X87225423Y-72885423D01*
X87377630Y-72699959D01*
X87490730Y-72488364D01*
X87560376Y-72258770D01*
X87578000Y-72079832D01*
X87578000Y-70160168D01*
X87560376Y-69981230D01*
X87490730Y-69751636D01*
X87393644Y-69570000D01*
X88950462Y-69570000D01*
X88950462Y-72670000D01*
X88961406Y-72781111D01*
X88993815Y-72887953D01*
X89046446Y-72986418D01*
X89117276Y-73072724D01*
X89203582Y-73143554D01*
X89302047Y-73196185D01*
X89408889Y-73228594D01*
X89520000Y-73239538D01*
X90820000Y-73239538D01*
X90931111Y-73228594D01*
X91037953Y-73196185D01*
X91136418Y-73143554D01*
X91222724Y-73072724D01*
X91293554Y-72986418D01*
X91346185Y-72887953D01*
X91378594Y-72781111D01*
X91389538Y-72670000D01*
X91389538Y-71059132D01*
X95902000Y-71059132D01*
X95902000Y-71180868D01*
X95925750Y-71300264D01*
X95972336Y-71412733D01*
X96039968Y-71513952D01*
X96126048Y-71600032D01*
X96227267Y-71667664D01*
X96339736Y-71714250D01*
X96459132Y-71738000D01*
X96580868Y-71738000D01*
X96700264Y-71714250D01*
X96812733Y-71667664D01*
X96913952Y-71600032D01*
X96948984Y-71565000D01*
X98631016Y-71565000D01*
X98666048Y-71600032D01*
X98767267Y-71667664D01*
X98879736Y-71714250D01*
X98999132Y-71738000D01*
X99120868Y-71738000D01*
X99240264Y-71714250D01*
X99352733Y-71667664D01*
X99453952Y-71600032D01*
X99540032Y-71513952D01*
X99607664Y-71412733D01*
X99654250Y-71300264D01*
X99678000Y-71180868D01*
X99678000Y-71059132D01*
X99654250Y-70939736D01*
X99607664Y-70827267D01*
X99540032Y-70726048D01*
X99453952Y-70639968D01*
X99352733Y-70572336D01*
X99240264Y-70525750D01*
X99120868Y-70502000D01*
X98999132Y-70502000D01*
X98879736Y-70525750D01*
X98767267Y-70572336D01*
X98666048Y-70639968D01*
X98631016Y-70675000D01*
X96948984Y-70675000D01*
X96913952Y-70639968D01*
X96812733Y-70572336D01*
X96700264Y-70525750D01*
X96580868Y-70502000D01*
X96459132Y-70502000D01*
X96339736Y-70525750D01*
X96227267Y-70572336D01*
X96126048Y-70639968D01*
X96039968Y-70726048D01*
X95972336Y-70827267D01*
X95925750Y-70939736D01*
X95902000Y-71059132D01*
X91389538Y-71059132D01*
X91389538Y-69570000D01*
X91378594Y-69458889D01*
X91346185Y-69352047D01*
X91293554Y-69253582D01*
X91222724Y-69167276D01*
X91136418Y-69096446D01*
X91037953Y-69043815D01*
X90931111Y-69011406D01*
X90820000Y-69000462D01*
X89520000Y-69000462D01*
X89408889Y-69011406D01*
X89302047Y-69043815D01*
X89203582Y-69096446D01*
X89117276Y-69167276D01*
X89046446Y-69253582D01*
X88993815Y-69352047D01*
X88961406Y-69458889D01*
X88950462Y-69570000D01*
X87393644Y-69570000D01*
X87377630Y-69540041D01*
X87225423Y-69354577D01*
X87039959Y-69202370D01*
X86828364Y-69089270D01*
X86598770Y-69019624D01*
X86360000Y-68996107D01*
X86121231Y-69019624D01*
X85891637Y-69089270D01*
X85789000Y-69144131D01*
X85789000Y-67830000D01*
X96620462Y-67830000D01*
X96620462Y-69330000D01*
X96631406Y-69441111D01*
X96663815Y-69547953D01*
X96716446Y-69646418D01*
X96787276Y-69732724D01*
X96873582Y-69803554D01*
X96972047Y-69856185D01*
X97078889Y-69888594D01*
X97190000Y-69899538D01*
X98390000Y-69899538D01*
X98501111Y-69888594D01*
X98607953Y-69856185D01*
X98706418Y-69803554D01*
X98792724Y-69732724D01*
X98863554Y-69646418D01*
X98916185Y-69547953D01*
X98948594Y-69441111D01*
X98959538Y-69330000D01*
X98959538Y-68643000D01*
X99122000Y-68643000D01*
X99122000Y-68793000D01*
X99156733Y-69019655D01*
X99235017Y-69235179D01*
X99353844Y-69431289D01*
X99508647Y-69600449D01*
X99693477Y-69736158D01*
X99901231Y-69833201D01*
X100045326Y-69872086D01*
X100227000Y-69816675D01*
X100227000Y-68643000D01*
X100353000Y-68643000D01*
X100353000Y-69816675D01*
X100534674Y-69872086D01*
X100678769Y-69833201D01*
X100886523Y-69736158D01*
X101071353Y-69600449D01*
X101226156Y-69431289D01*
X101344983Y-69235179D01*
X101423267Y-69019655D01*
X101458000Y-68793000D01*
X101458000Y-68643000D01*
X100353000Y-68643000D01*
X100227000Y-68643000D01*
X99122000Y-68643000D01*
X98959538Y-68643000D01*
X98959538Y-68367000D01*
X99122000Y-68367000D01*
X99122000Y-68517000D01*
X100227000Y-68517000D01*
X100227000Y-67343325D01*
X100353000Y-67343325D01*
X100353000Y-68517000D01*
X101458000Y-68517000D01*
X101458000Y-68367000D01*
X101423267Y-68140345D01*
X101344983Y-67924821D01*
X101287530Y-67830000D01*
X106780462Y-67830000D01*
X106780462Y-69330000D01*
X106791406Y-69441111D01*
X106823815Y-69547953D01*
X106876446Y-69646418D01*
X106947276Y-69732724D01*
X107033582Y-69803554D01*
X107132047Y-69856185D01*
X107238889Y-69888594D01*
X107350000Y-69899538D01*
X108550000Y-69899538D01*
X108661111Y-69888594D01*
X108767953Y-69856185D01*
X108866418Y-69803554D01*
X108952724Y-69732724D01*
X109023554Y-69646418D01*
X109076185Y-69547953D01*
X109108594Y-69441111D01*
X109119538Y-69330000D01*
X109119538Y-68372624D01*
X109282000Y-68372624D01*
X109282000Y-68787377D01*
X109298900Y-68958968D01*
X109365688Y-69179137D01*
X109474146Y-69382046D01*
X109620104Y-69559897D01*
X109797955Y-69705855D01*
X110000864Y-69814312D01*
X110221033Y-69881100D01*
X110450000Y-69903651D01*
X110678968Y-69881100D01*
X110899137Y-69814312D01*
X111102046Y-69705855D01*
X111279897Y-69559897D01*
X111425855Y-69382045D01*
X111534312Y-69179136D01*
X111601100Y-68958967D01*
X111618000Y-68787376D01*
X111618000Y-68372623D01*
X111601100Y-68201032D01*
X111534312Y-67980863D01*
X111425855Y-67777954D01*
X111279897Y-67600103D01*
X111102045Y-67454145D01*
X110899136Y-67345688D01*
X110678967Y-67278900D01*
X110450000Y-67256349D01*
X110221032Y-67278900D01*
X110000863Y-67345688D01*
X109797954Y-67454145D01*
X109620103Y-67600103D01*
X109474145Y-67777955D01*
X109365688Y-67980864D01*
X109298900Y-68201033D01*
X109282000Y-68372624D01*
X109119538Y-68372624D01*
X109119538Y-67830000D01*
X109108594Y-67718889D01*
X109076185Y-67612047D01*
X109023554Y-67513582D01*
X108952724Y-67427276D01*
X108866418Y-67356446D01*
X108767953Y-67303815D01*
X108661111Y-67271406D01*
X108550000Y-67260462D01*
X107350000Y-67260462D01*
X107238889Y-67271406D01*
X107132047Y-67303815D01*
X107033582Y-67356446D01*
X106947276Y-67427276D01*
X106876446Y-67513582D01*
X106823815Y-67612047D01*
X106791406Y-67718889D01*
X106780462Y-67830000D01*
X101287530Y-67830000D01*
X101226156Y-67728711D01*
X101071353Y-67559551D01*
X100886523Y-67423842D01*
X100678769Y-67326799D01*
X100534674Y-67287914D01*
X100353000Y-67343325D01*
X100227000Y-67343325D01*
X100045326Y-67287914D01*
X99901231Y-67326799D01*
X99693477Y-67423842D01*
X99508647Y-67559551D01*
X99353844Y-67728711D01*
X99235017Y-67924821D01*
X99156733Y-68140345D01*
X99122000Y-68367000D01*
X98959538Y-68367000D01*
X98959538Y-67830000D01*
X98948594Y-67718889D01*
X98916185Y-67612047D01*
X98863554Y-67513582D01*
X98792724Y-67427276D01*
X98706418Y-67356446D01*
X98607953Y-67303815D01*
X98501111Y-67271406D01*
X98390000Y-67260462D01*
X97190000Y-67260462D01*
X97078889Y-67271406D01*
X96972047Y-67303815D01*
X96873582Y-67356446D01*
X96787276Y-67427276D01*
X96716446Y-67513582D01*
X96663815Y-67612047D01*
X96631406Y-67718889D01*
X96620462Y-67830000D01*
X85789000Y-67830000D01*
X85789000Y-67007828D01*
X120757000Y-67007828D01*
X120757000Y-67612172D01*
X120874901Y-68204903D01*
X121106173Y-68763243D01*
X121441929Y-69265736D01*
X121869264Y-69693071D01*
X122371757Y-70028827D01*
X122930097Y-70260099D01*
X123522828Y-70378000D01*
X124127172Y-70378000D01*
X124719903Y-70260099D01*
X125278243Y-70028827D01*
X125780736Y-69693071D01*
X126208071Y-69265736D01*
X126543827Y-68763243D01*
X126775099Y-68204903D01*
X126893000Y-67612172D01*
X126893000Y-67007828D01*
X126775099Y-66415097D01*
X126543827Y-65856757D01*
X126208071Y-65354264D01*
X125780736Y-64926929D01*
X125278243Y-64591173D01*
X124719903Y-64359901D01*
X124127172Y-64242000D01*
X123522828Y-64242000D01*
X122930097Y-64359901D01*
X122371757Y-64591173D01*
X121869264Y-64926929D01*
X121441929Y-65354264D01*
X121106173Y-65856757D01*
X120874901Y-66415097D01*
X120757000Y-67007828D01*
X85789000Y-67007828D01*
X85789000Y-64199000D01*
X126936000Y-64199000D01*
X126936000Y-126301000D01*
M02*
